<svg width="88" height="88" viewBox="0 0 88 88" fill="none" xmlns="http://www.w3.org/2000/svg">
<path d="M6.83354 41.3448C6.83354 40.2262 6.83354 39.1821 6.83354 38.1396C6.83354 36.3593 7.1297 36.053 8.87785 36.0361C9.042 36.0344 9.20616 36.0361 9.42954 36.0361C9.42954 29.8507 9.42954 23.7025 9.42954 17.4461C8.25508 17.4461 7.07723 17.4495 5.8977 17.4444C4.64539 17.4393 4.19016 16.9908 4.18 15.7588C4.17493 15.1784 4.17831 14.5979 4.18 14.0175C4.1817 12.7415 4.33908 12.4978 5.50339 12.0324C11.0897 9.79853 16.7285 7.68315 22.242 5.28177C24.508 4.29515 26.3949 4.32392 28.644 5.2953C34.1389 7.673 39.7455 9.79346 45.3082 12.0188C46.4979 12.4944 46.6552 12.7279 46.6569 13.9853C46.6586 14.5658 46.6603 15.1462 46.6569 15.7267C46.6485 16.9807 46.2051 17.4359 44.9697 17.441C43.7885 17.4478 42.6072 17.4427 41.3871 17.4427C41.3871 23.6552 41.3871 29.783 41.3871 36.0327C41.7611 36.0327 42.1351 36.0242 42.5074 36.0344C43.4923 36.0615 43.9831 36.5387 43.9966 37.5219C44.0135 38.7607 44 40.0011 44 41.3448C44.462 41.3448 44.8665 41.3279 45.2709 41.3482C46.112 41.3905 46.6332 41.8678 46.6451 42.6953C46.6722 44.4367 46.6705 46.1798 46.6468 47.9212C46.6349 48.7927 46.1137 49.2767 45.2219 49.3021C44.4485 49.3241 43.6734 49.3072 42.9 49.3072C30.6494 49.3072 18.4005 49.3072 6.14985 49.3072C4.554 49.3072 4.1817 48.9416 4.18 47.3762C4.17831 45.9936 4.17831 44.611 4.18 43.2284C4.1817 41.7459 4.56754 41.355 6.0297 41.3432C6.27 41.3432 6.51031 41.3448 6.83354 41.3448ZM9.504 41.3448C9.90339 41.3448 10.23 41.3448 10.5549 41.3448C17.4951 41.3448 24.4352 41.3448 31.3754 41.3465C31.6783 41.3465 31.9914 41.3211 32.2859 41.3787C32.9763 41.5141 33.3435 41.9811 33.3469 42.6665C33.3503 43.3536 32.9848 43.8224 32.2977 43.9645C32.0049 44.0255 31.6918 43.9984 31.3889 43.9984C23.5366 44.0001 15.6843 44.0001 7.832 44.0001C7.51216 44.0001 7.194 44.0001 6.87585 44.0001C6.87585 44.9393 6.87585 45.7567 6.87585 46.6045C19.2585 46.6045 31.5988 46.6045 43.9408 46.6045C43.9408 45.7144 43.9408 44.8767 43.9408 44.0001C41.8085 44.0001 39.7371 44.0339 37.6674 43.973C37.202 43.9595 36.5962 43.7378 36.3152 43.3976C35.6349 42.5718 36.2865 41.3888 37.4034 41.3567C38.6929 41.3178 39.9842 41.3482 41.2906 41.3482C41.2906 40.4175 41.2906 39.5781 41.2906 38.7556C30.6629 38.7556 20.0928 38.7556 9.5057 38.7556C9.504 39.6187 9.504 40.4175 9.504 41.3448ZM43.9577 14.7485C43.9865 14.6944 44.0169 14.6402 44.0457 14.5861C43.8629 14.4439 43.7005 14.251 43.494 14.1681C37.6285 11.8141 31.7612 9.46684 25.8839 7.13992C25.6114 7.03161 25.2239 7.03161 24.9514 7.13823C19.0757 9.46684 13.2085 11.8158 7.34293 14.1698C7.13477 14.2527 6.97231 14.4456 6.78785 14.5861C6.81662 14.6402 6.84708 14.6944 6.87585 14.7485C19.2365 14.7485 31.5971 14.7485 43.9577 14.7485ZM17.5069 17.485C17.5069 23.6975 17.5069 29.8439 17.5069 35.9684C18.8472 35.9684 20.1283 35.9684 21.3908 35.9684C21.3908 29.7745 21.3908 23.6484 21.3908 17.485C20.0877 17.485 18.8269 17.485 17.5069 17.485ZM29.4665 17.4799C29.4665 23.7195 29.4665 29.8642 29.4665 35.987C30.7949 35.987 32.0557 35.987 33.3283 35.987C33.3283 29.7931 33.3283 23.6484 33.3283 17.4799C32.0151 17.4799 30.7543 17.4799 29.4665 17.4799ZM14.762 17.4952C13.8482 17.4952 13.0291 17.4952 12.1965 17.4952C12.1965 23.689 12.1965 29.8321 12.1965 35.9735C13.0883 35.9735 13.926 35.9735 14.762 35.9735C14.762 29.7864 14.762 23.6619 14.762 17.4952ZM26.6877 35.9955C26.6877 29.7864 26.6877 23.6416 26.6877 17.5138C25.7925 17.5138 24.9548 17.5138 24.1306 17.5138C24.1306 23.7059 24.1306 29.8321 24.1306 35.9955C24.9903 35.9955 25.8077 35.9955 26.6877 35.9955ZM36.0935 17.4833C36.0935 23.7008 36.0935 29.8473 36.0935 35.9955C36.9719 35.9955 37.7892 35.9955 38.6455 35.9955C38.6455 29.8101 38.6455 23.6653 38.6455 17.4833C37.7842 17.4833 36.9668 17.4833 36.0935 17.4833Z" fill="url(#paint0_linear_55_924)"/>
<path d="M54.6226 75.8578C60.1514 75.8578 65.5431 75.8578 70.9331 75.8578C72.9232 75.8578 74.9151 75.8527 76.9052 75.8595C77.9528 75.8629 78.5282 76.3638 78.5028 77.2218C78.4791 78.046 77.9257 78.508 76.9103 78.5097C69.8314 78.5147 62.7525 78.5113 55.6736 78.5113C55.3486 78.5113 55.0254 78.5113 54.6345 78.5113C54.6345 79.0546 54.5922 79.5217 54.6446 79.9769C54.7225 80.6623 55.1405 81.0667 55.8343 81.153C56.0526 81.1801 56.276 81.1649 56.4977 81.1649C64.1012 81.1649 71.7065 81.1666 79.31 81.1649C80.784 81.1649 81.1682 80.779 81.1682 79.2983C81.1682 68.7078 81.1682 58.1173 81.1682 47.5269C81.1682 47.2798 81.1682 47.031 81.1682 46.652C80.8212 46.652 80.5048 46.652 80.1866 46.652C71.4205 46.652 62.656 46.652 53.8899 46.652C52.3617 46.652 51.9691 46.2627 51.9674 44.7532C51.9674 44.0069 51.9454 43.2589 51.9759 42.5143C52.0605 40.4293 53.746 38.7083 55.8276 38.7015C63.8745 38.6761 71.9197 38.6727 79.9666 38.7032C82.1717 38.7117 83.8166 40.5377 83.8183 42.8527C83.8251 53.2773 83.8217 63.702 83.8217 74.1266C83.8217 75.9796 83.8302 77.831 83.8183 79.6841C83.8031 82.0973 82.0989 83.8133 79.684 83.8167C71.8317 83.8269 63.9777 83.8252 56.1254 83.8167C53.702 83.815 51.9742 82.1143 51.9708 79.7061C51.9606 70.1107 51.9657 60.517 51.9674 50.9217C51.9674 49.8267 52.4074 49.297 53.2874 49.2937C54.1725 49.2903 54.6192 49.8183 54.6192 50.9081C54.6226 58.8992 54.6209 66.8903 54.6209 74.8813C54.6226 75.1809 54.6226 75.4787 54.6226 75.8578ZM54.6226 43.9443C63.5276 43.9443 72.3276 43.9443 81.1682 43.9443C81.1682 43.7243 81.1665 43.5618 81.1682 43.3993C81.1868 41.6918 80.8517 41.3466 79.1679 41.3466C77.2336 41.3466 75.2992 41.3466 73.3649 41.3466C67.672 41.3466 61.9791 41.3449 56.2879 41.3483C55.0728 41.3483 54.6362 41.7883 54.6226 42.9864C54.6192 43.286 54.6226 43.5872 54.6226 43.9443Z" fill="url(#paint1_linear_55_924)"/>
<path d="M31.7494 78.5131C27.5745 78.5131 23.4012 78.5164 19.2263 78.5114C14.9583 78.5063 12.1508 75.7106 12.1474 71.4612C12.1423 66.4571 12.1457 61.4529 12.1474 56.4504C12.1474 56.2017 12.122 55.9444 12.1778 55.7075C12.3454 55.0052 12.7922 54.594 13.5351 54.6228C14.2357 54.6498 14.6486 55.0678 14.7772 55.7414C14.828 56.0088 14.8009 56.2931 14.8009 56.5689C14.8026 61.5443 14.7992 66.5214 14.8026 71.4968C14.8043 74.2654 16.4018 75.8544 19.1891 75.8561C27.6202 75.8595 36.0529 75.8578 44.484 75.8578C44.7057 75.8578 44.9257 75.8545 45.1474 75.8595C46.1543 75.8781 46.6772 76.3435 46.6654 77.2066C46.6535 78.0274 46.1374 78.4995 45.1863 78.5097C43.8866 78.5249 42.5869 78.5131 41.2889 78.5131C38.1074 78.5131 34.9275 78.5131 31.7494 78.5131Z" fill="url(#paint2_linear_55_924)"/>
<path d="M73.2008 65.2707C73.1906 67.4081 71.8977 69.3136 69.8162 70.1378C69.3389 70.3273 69.168 70.5541 69.2154 71.0364C69.2475 71.3647 69.2475 71.7032 69.2052 72.0298C69.1122 72.7659 68.662 73.1738 67.9292 73.1907C67.1965 73.2076 66.5534 72.7998 66.6279 72.0992C66.7734 70.7402 66.1202 70.1936 65.0168 69.6098C63.5208 68.8195 62.7711 67.3675 62.6019 65.6701C62.4986 64.6361 62.9674 63.9998 63.8152 63.9355C64.6394 63.8746 65.12 64.3924 65.2486 65.4806C65.4229 66.9562 66.6719 68.0021 68.1154 67.8802C69.5555 67.7601 70.6471 66.479 70.5405 65.0321C70.4372 63.6241 69.3525 62.651 67.8006 62.5766C64.7494 62.431 62.4563 60.0364 62.6019 57.0495C62.7102 54.8275 63.8728 53.2553 65.9137 52.399C66.4485 52.1739 66.6448 51.9184 66.5754 51.3752C66.5415 51.1027 66.5534 50.8201 66.5805 50.5476C66.6549 49.8081 67.1863 49.3139 67.8886 49.3072C68.5909 49.3021 69.256 49.8064 69.1866 50.5256C69.0732 51.7069 69.5082 52.267 70.5862 52.7916C72.2615 53.6073 73.0789 55.1642 73.194 57.0359C73.2515 57.965 72.7642 58.5404 71.962 58.5895C71.1615 58.6402 70.642 58.1309 70.5489 57.2052C70.3865 55.5992 69.2679 54.5601 67.7685 54.6244C66.3402 54.687 65.2317 55.8547 65.2419 57.2864C65.252 58.7722 66.3655 59.8486 67.9715 59.9264C70.9703 60.0736 73.2143 62.365 73.2008 65.2707Z" fill="url(#paint3_linear_55_924)"/>
<path d="M61.5272 9.48719C64.0132 9.48719 66.5009 9.47873 68.9869 9.48888C72.974 9.50581 75.8425 12.3523 75.8526 16.3241C75.8662 21.4907 75.8594 26.6573 75.8543 31.824C75.8526 32.9053 75.3145 33.4655 74.3939 33.3893C73.6019 33.3233 73.2042 32.8089 73.2042 31.8037C73.2008 26.61 73.2092 21.4146 73.1974 16.2209C73.1923 14.1461 71.918 12.5892 69.9414 12.2169C69.5386 12.1407 69.1172 12.1458 68.7043 12.1458C63.6477 12.1407 58.5928 12.1441 53.5362 12.1424C52.5428 12.1424 52.052 11.7989 51.9454 11.0577C51.81 10.1066 52.3922 9.49565 53.4871 9.49227C56.1677 9.48042 58.8483 9.48719 61.5272 9.48719Z" fill="url(#paint4_linear_55_924)"/>
<defs>
<linearGradient id="paint0_linear_55_924" x1="6.74997" y1="8.75844" x2="48.2675" y2="44.8017" gradientUnits="userSpaceOnUse">
<stop stop-color="#02C0C2"/>
<stop offset="1" stop-color="#164A9E"/>
</linearGradient>
<linearGradient id="paint1_linear_55_924" x1="53.8892" y1="42.9216" x2="92.4313" y2="67.8032" gradientUnits="userSpaceOnUse">
<stop stop-color="#02C0C2"/>
<stop offset="1" stop-color="#164A9E"/>
</linearGradient>
<linearGradient id="paint2_linear_55_924" x1="14.2321" y1="56.8659" x2="35.7777" y2="85.3344" gradientUnits="userSpaceOnUse">
<stop stop-color="#02C0C2"/>
<stop offset="1" stop-color="#164A9E"/>
</linearGradient>
<linearGradient id="paint3_linear_55_924" x1="63.2304" y1="51.5506" x2="78.8394" y2="57.894" gradientUnits="userSpaceOnUse">
<stop stop-color="#02C0C2"/>
<stop offset="1" stop-color="#164A9E"/>
</linearGradient>
<linearGradient id="paint4_linear_55_924" x1="53.3753" y1="11.73" x2="75.6907" y2="32.1577" gradientUnits="userSpaceOnUse">
<stop stop-color="#02C0C2"/>
<stop offset="1" stop-color="#164A9E"/>
</linearGradient>
</defs>
</svg>
