<svg width="88" height="88" viewBox="0 0 88 88" fill="none" xmlns="http://www.w3.org/2000/svg">
<path d="M85.0334 64.196C84.964 64.4228 84.8912 64.6479 84.8252 64.8763C84.2702 66.77 83.1414 68.1983 81.3459 69.0445C78.9106 70.1919 76.4619 71.3156 74.0114 72.4308C72.9639 72.9063 72.0229 72.6017 71.6472 71.7133C71.2648 70.8062 71.6726 69.9837 72.754 69.4913C73.8151 69.0073 74.8779 68.5283 75.9305 68.0511C75.3009 66.171 75.3872 65.5059 76.2876 65.0388C77.2082 64.5616 77.7209 64.856 78.9952 66.616C79.3168 66.4637 79.6552 66.3165 79.9802 66.1456C81.576 65.3096 82.2326 63.602 81.5743 62.0214C80.9059 60.4154 79.1695 59.6471 77.4552 60.2716C73.2719 61.793 69.1003 63.3482 64.9237 64.8933C62.5731 65.7631 60.236 66.6702 57.8702 67.491C57.0257 67.7837 56.1119 68.0173 55.2268 68.0257C49.8859 68.0748 44.5449 68.0494 39.2023 68.0494C39.0957 68.0494 38.9891 68.0528 38.8825 68.0443C38.0126 67.9834 37.3611 67.3403 37.3256 66.5111C37.2917 65.692 37.9077 64.9779 38.7674 64.8645C39.0297 64.829 39.3005 64.8442 39.5679 64.8442C44.7751 64.8425 49.984 64.851 55.1912 64.8391C56.8226 64.8357 58.1156 63.7171 58.3897 62.1331C58.6368 60.6997 57.7855 59.1817 56.3792 58.6808C55.8902 58.5065 55.3368 58.4456 54.8122 58.4422C51.634 58.4219 48.4559 58.4117 45.2777 58.4422C44.1185 58.454 43.0726 58.1731 42.0742 57.6028C39.8505 56.3319 37.576 55.1473 35.3912 53.812C31.7562 51.59 28.0754 51.4547 24.2525 53.2587C22.9765 53.8611 21.6429 54.34 20.3517 54.9103C20.1706 54.9899 19.9709 55.281 19.9709 55.4739C19.9506 60.7065 19.954 65.9391 19.954 71.2428C21.1674 71.3748 22.3537 71.4713 23.5299 71.6388C26.8823 72.1143 30.0486 73.2296 33.1675 74.4971C36.2357 75.7443 39.3343 76.8562 42.6343 77.3673C46.5689 77.9748 50.402 77.5957 54.1826 76.4551C55.7649 75.9779 57.3388 75.4753 58.916 74.9828C60.038 74.6325 60.8859 74.9777 61.2125 75.917C61.5289 76.8308 61.0449 77.6499 59.9246 78.0273C56.4605 79.1933 52.9743 80.2983 49.3223 80.7163C45.4757 81.1563 41.6765 80.757 38.0075 79.6011C34.782 78.5874 31.6445 77.2962 28.4579 76.159C25.7535 75.1927 22.9646 74.6325 19.9523 74.5208C19.9523 74.9997 19.9625 75.4651 19.9506 75.9305C19.9202 77.0423 19.3109 77.6583 18.1906 77.66C13.7043 77.6685 9.21632 77.6533 4.73001 77.6736C3.85847 77.677 3.35924 77.215 2.96155 76.5363C2.96155 68.7365 2.96155 60.935 2.96155 53.1351C3.44555 52.2822 4.16986 51.9928 5.15139 52.003C9.34493 52.0419 13.5402 52.0656 17.732 51.986C18.7626 51.9657 19.8339 51.656 20.8019 51.2685C22.9765 50.3987 25.0614 49.3037 27.4171 48.9314C30.4091 48.4576 33.2149 49.0042 35.8482 50.4342C38.4272 51.8337 40.9572 53.3247 43.5414 54.7157C44.0982 55.0153 44.7903 55.193 45.4232 55.2031C48.4948 55.2522 51.568 55.2962 54.6379 55.2082C59.2985 55.0762 61.9876 58.8297 61.6068 62.2956C61.5983 62.3717 61.6237 62.4513 61.6457 62.6374C61.9351 62.5494 62.2025 62.4851 62.4597 62.3904C66.9122 60.7471 71.4035 59.2003 75.8019 57.4251C80.256 55.6262 84.3582 58.4388 84.9369 62.1483C84.9437 62.194 84.9979 62.2313 85.03 62.2736C85.0334 62.915 85.0334 63.5547 85.0334 64.196ZM16.6912 74.4277C16.6912 67.9919 16.6912 61.6288 16.6912 55.2674C13.1712 55.2674 9.71216 55.2674 6.21755 55.2674C6.21755 61.6711 6.21755 68.0325 6.21755 74.4277C9.72401 74.4277 13.1831 74.4277 16.6912 74.4277Z" fill="url(#paint0_linear_50_868)"/>
<path d="M56.8294 12.4976C58.8602 10.2198 61.1617 8.5884 63.9709 7.7304C71.3291 5.48132 79.0206 9.82378 80.6165 17.1938C81.4322 20.9642 80.5268 24.5029 78.848 27.8807C76.6142 32.3755 73.3125 36.0292 69.6672 39.4002C66.0305 42.7612 62.0536 45.6838 57.9379 48.4236C57.2779 48.8636 56.6162 48.9855 55.9257 48.5269C49.7894 44.4535 43.9492 40.0264 39.1668 34.3555C36.5826 31.2924 34.4486 27.9619 33.3639 24.0459C31.3382 16.7267 34.8463 9.88978 41.8914 7.7507C47.4608 6.0584 52.1705 7.80993 56.1948 11.7886C56.3996 11.9916 56.5806 12.2201 56.8294 12.4976ZM77.6702 20.6681C77.682 14.7755 73.4529 10.4313 68.3523 10.3433C63.9862 10.2689 60.7877 12.3927 58.3254 15.823C57.4166 17.0889 56.2405 17.1024 55.3639 15.8179C54.3874 14.3896 53.1943 13.183 51.7592 12.2167C48.0463 9.71717 43.5854 9.70193 40.0417 12.1795C36.5776 14.6012 35.2796 18.4698 36.4269 22.9578C37.2917 26.3441 39.1092 29.2227 41.2906 31.8847C45.6009 37.1461 50.9182 41.2567 56.5129 45.0356C56.6889 45.1558 57.1256 45.0915 57.3219 44.951C59.532 43.3619 61.7726 41.805 63.9032 40.1127C67.892 36.9447 71.5694 33.4552 74.3955 29.1686C76.2537 26.3475 77.6126 23.3335 77.6702 20.6681Z" fill="url(#paint1_linear_50_868)"/>
<path d="M66.4282 72.2276C67.276 72.2208 68.0088 72.9265 68.0359 73.7777C68.0646 74.6679 67.3471 75.4125 66.4502 75.4193C65.5566 75.4261 64.8256 74.6899 64.8425 73.8014C64.8577 72.9519 65.582 72.2344 66.4282 72.2276Z" fill="url(#paint2_linear_50_868)"/>
<path d="M58.4252 29.5798C58.4252 31.1638 58.4303 32.6311 58.4236 34.0966C58.4185 35.2744 57.8092 35.9852 56.826 35.9869C55.8445 35.9886 55.2268 35.2728 55.2217 34.1034C55.2149 32.6361 55.22 31.1706 55.22 29.5798C54.0506 29.5798 52.9151 29.5798 51.7796 29.5798C51.326 29.5798 50.8708 29.5934 50.4172 29.5748C49.4865 29.5341 48.8299 28.8877 48.8129 28.0161C48.7943 27.1311 49.4729 26.4101 50.4359 26.3864C51.8506 26.3509 53.2654 26.3746 54.6802 26.3712C54.8342 26.3712 54.9882 26.3543 55.2183 26.3408C55.2183 24.8346 55.2031 23.3741 55.2285 21.9137C55.2352 21.5261 55.2877 21.0929 55.4705 20.7663C55.8275 20.1266 56.4334 19.8558 57.1712 20.0183C57.9057 20.1808 58.3982 20.7815 58.4134 21.5854C58.4388 22.8935 58.4219 24.2017 58.4236 25.5098C58.4236 25.7704 58.4236 26.0294 58.4236 26.3729C59.9314 26.3729 61.3648 26.3628 62.7982 26.3797C63.1654 26.3848 63.5546 26.4203 63.8897 26.5506C64.5582 26.8095 64.9305 27.5575 64.8103 28.2463C64.6749 29.0129 64.064 29.5544 63.2314 29.5697C61.9503 29.5934 60.6692 29.5764 59.3865 29.5781C59.1005 29.5798 58.8128 29.5798 58.4252 29.5798Z" fill="url(#paint3_linear_50_868)"/>
<defs>
<linearGradient id="paint0_linear_50_868" x1="18" y1="57.4261" x2="38.2376" y2="97.3816" gradientUnits="userSpaceOnUse">
<stop stop-color="#02C0C2"/>
<stop offset="1" stop-color="#164A9E"/>
</linearGradient>
<linearGradient id="paint1_linear_50_868" x1="41.6131" y1="18.3529" x2="73.9917" y2="47.225" gradientUnits="userSpaceOnUse">
<stop stop-color="#02C0C2"/>
<stop offset="1" stop-color="#164A9E"/>
</linearGradient>
<linearGradient id="paint2_linear_50_868" x1="65.4275" y1="73.0881" x2="67.8415" y2="74.9552" gradientUnits="userSpaceOnUse">
<stop stop-color="#02C0C2"/>
<stop offset="1" stop-color="#164A9E"/>
</linearGradient>
<linearGradient id="paint3_linear_50_868" x1="51.748" y1="24.2898" x2="63.8584" y2="33.6523" gradientUnits="userSpaceOnUse">
<stop stop-color="#02C0C2"/>
<stop offset="1" stop-color="#164A9E"/>
</linearGradient>
</defs>
</svg>
