<svg width="88" height="88" viewBox="0 0 88 88" fill="none" xmlns="http://www.w3.org/2000/svg">
<path d="M35.3246 85C34.3012 84.7378 33.2425 84.5676 32.2601 84.1959C26.7652 82.1141 23.4835 78.1737 22.5167 72.359C22.4326 71.8483 22.2721 71.6566 21.7379 71.6664C19.8632 71.6957 17.9885 71.6918 16.1138 71.6683C15.648 71.6624 15.4563 71.8131 15.288 72.2611C14.4015 74.6226 11.8497 76.0313 9.38597 75.5735C6.88114 75.1079 5.00252 72.8461 5.01621 70.3105C5.02991 67.7846 6.87722 65.5718 9.35466 65.1101C11.8967 64.6366 14.3976 66.0218 15.3036 68.444C15.4543 68.849 15.6167 69.0231 16.0649 69.0172C17.965 68.9938 19.8671 68.9898 21.7673 69.0192C22.28 69.027 22.4326 68.8314 22.505 68.3638C23.4717 62.1264 27.6203 57.5794 33.7102 56.0612C39.5535 54.6055 46.113 57.2625 49.3223 62.3827C49.4593 62.6018 49.6002 62.819 49.7744 63.0909C51.4827 61.8114 53.1774 60.5651 54.829 59.2679C54.9915 59.1407 54.9895 58.6673 54.9171 58.3953C53.7978 54.1732 54.3203 50.1838 56.6529 46.4821C58.5706 43.4378 61.3025 41.4089 64.727 40.3093C64.8992 40.2545 65.0714 40.1978 65.3454 40.1097C63.3415 37.4371 61.371 34.8095 59.4043 32.1878C50.0797 37.5956 39.3148 32.1878 37.2326 22.3778C35.1348 24.17 33.0957 25.9093 31.1838 27.5411C31.9862 29.1376 32.8413 30.5952 33.4578 32.1487C33.8922 33.2424 33.9783 34.4711 34.2738 35.6234C34.3736 36.0147 34.5536 36.4726 34.8491 36.7113C36.9371 38.3939 39.0721 40.0158 41.1699 41.6847C41.573 42.0056 41.847 42.0388 42.3205 41.7708C44.2579 40.6654 46.2246 40.7162 48.0503 41.9919C49.8507 43.2519 50.6178 45.0675 50.2323 47.2334C49.8429 49.4227 48.5083 50.8843 46.342 51.4556C44.4086 51.9642 42.6571 51.4927 41.2521 50.0723C39.847 48.6558 39.3578 46.9067 39.896 44.9717C40.0701 44.3436 39.9292 44.0482 39.4498 43.6862C37.6866 42.3578 35.9587 40.9843 34.3364 39.7204C33.5889 41.4049 32.9998 43.1599 32.0821 44.7212C29.1722 49.6673 23.2036 52.4847 17.558 51.5103C11.4446 50.4538 7.30578 46.8949 5.59546 40.9197C3.13759 32.3267 8.82238 23.7709 17.6499 22.4972C18.1666 22.4228 18.3505 22.2507 18.3427 21.7185C18.3133 19.8442 18.3172 17.9698 18.3407 16.0955C18.3466 15.6298 18.194 15.44 17.7458 15.2718C15.3839 14.3855 13.9749 11.8322 14.4348 9.36897C14.9025 6.86268 17.1627 4.98638 19.6988 5.00007C22.2232 5.01377 24.4384 6.86268 24.8983 9.33962C25.3699 11.8831 23.9864 14.3816 21.5637 15.2874C21.1587 15.4381 20.9865 15.6044 20.9923 16.0505C21.0158 17.9502 21.008 19.852 20.9982 21.7518C20.9962 22.1254 21.0256 22.4111 21.4933 22.4639C24.3132 22.7828 26.7847 23.9235 28.998 25.6667C29.0371 25.698 29.0919 25.7098 29.1761 25.7489C31.6926 23.5948 34.2268 21.4328 36.7434 19.2513C36.9117 19.1046 37.0252 18.8229 37.0467 18.592C37.9528 8.58441 47.7803 2.40378 57.1225 6.08398C62.003 8.00724 64.9012 11.7403 66.0969 16.8311C66.1712 17.1442 66.4569 17.512 66.7446 17.6548C69.7015 19.1222 72.6759 20.5563 75.6602 21.9709C75.9127 22.0902 76.3549 22.1333 76.5565 21.9924C79.7286 19.7874 84.0533 21.4778 84.8811 25.1913C84.9026 25.2872 84.9692 25.3713 85.0161 25.4613C85.0161 26.0346 85.0161 26.6078 85.0161 27.1811C84.9359 27.3963 84.8439 27.6076 84.7754 27.8267C83.5935 31.6224 79.028 32.9137 76.1083 30.243C74.4039 28.6837 74.0282 26.7213 74.6661 24.4674C71.8991 23.1331 69.1379 21.8007 66.3219 20.4428C66.0323 24.5241 64.3846 27.8169 61.5118 30.5502C63.6781 33.4361 65.8248 36.2789 67.9461 39.1413C68.2416 39.5404 68.5332 39.6852 69.0342 39.6871C78.2727 39.7302 85.2294 48.0688 83.3743 57.1275C82.118 63.267 78.2433 67.2622 72.1163 68.624C66.1751 69.9466 61.2281 67.9333 57.3867 63.224C56.9679 62.7114 56.6157 62.146 56.2204 61.5864C54.5414 62.8464 52.9093 64.0536 51.3086 65.2979C51.1305 65.4348 51.0268 65.8085 51.0581 66.0512C51.2381 67.4403 51.5121 68.8157 51.6569 70.2068C51.7078 70.6979 51.8663 70.9229 52.2909 71.1244C55.1774 72.4979 58.054 73.8929 60.9248 75.2976C61.3573 75.5089 61.6567 75.5285 62.1028 75.2272C64.1791 73.8342 66.8933 74.1139 68.7113 75.8318C70.4549 77.4811 70.8247 80.1283 69.6232 82.2883C68.7778 83.8065 67.4041 84.5617 65.7935 84.9922C65.273 84.9922 64.7525 84.9922 64.2319 84.9922C63.0519 84.642 61.9267 84.2037 61.0872 83.2372C59.7115 81.6504 59.3808 79.8485 60.007 77.802C57.1069 76.4031 54.2263 75.0139 51.3301 73.617C51.2538 73.8361 51.2029 73.9555 51.1677 74.0807C49.7078 79.1422 46.4731 82.5348 41.5182 84.28C40.6259 84.595 39.6807 84.7593 38.761 84.9941C37.6162 85 36.4694 85 35.3246 85ZM45.0054 79.1344C48.25 76.5537 49.9701 71.41 48.428 66.6518C46.7862 61.5883 41.7961 58.0666 36.7297 58.3405C30.9197 58.6555 26.456 62.4042 25.2564 67.9509C24.2721 72.5057 26.4501 77.3109 28.996 79.0502C29.0058 78.8507 29.0156 78.6746 29.0234 78.4985C29.1369 75.9863 30.7377 74.382 33.2523 74.3526C35.8824 74.3213 38.5124 74.3096 41.1425 74.3781C43.2677 74.4329 44.8939 76.1213 45.0054 78.2402C45.0172 78.5161 45.0054 78.792 45.0054 79.1344ZM27.6595 45.8658C31.1936 42.8332 32.7063 37.4704 30.861 32.673C28.9999 27.8326 24.1312 24.7022 18.8691 25.027C13.6716 25.3459 9.22746 29.1395 7.98874 34.2852C6.83222 39.1002 9.10613 43.8956 11.6618 45.7523C11.6736 45.5371 11.6814 45.3649 11.6892 45.1928C11.7969 42.7608 13.1608 41.1662 15.5776 41.0606C18.4327 40.9354 21.3035 40.9725 24.1605 41.1017C26.0685 41.1878 27.5381 42.8841 27.6575 44.7975C27.6771 45.0988 27.6595 45.4041 27.6595 45.8658ZM77.0614 63.0812C80.0985 60.704 81.9986 55.6034 80.4507 50.7082C78.8206 45.5508 73.9675 42.1719 68.4941 42.3519C63.2868 42.5241 58.6802 46.2943 57.3769 51.4047C56.1343 56.2803 58.3691 61.1853 60.9659 63.0538C60.9854 62.7799 60.9991 62.5236 61.0226 62.2653C61.2438 59.9977 62.5842 58.501 64.8562 58.3953C67.6585 58.2662 70.4764 58.274 73.2787 58.411C75.4528 58.5166 76.852 60.119 77.0183 62.3005C77.0379 62.547 77.0457 62.7955 77.0614 63.0812ZM59.6939 28.4704C63.0343 25.7157 64.6938 20.4428 62.9717 15.6357C61.1733 10.6153 56.2497 7.36159 50.9505 7.68832C45.5533 8.02093 41.0818 11.8987 39.9273 17.2616C38.9566 21.7733 40.9977 26.4806 43.6336 28.3785C43.6493 28.1554 43.6649 27.95 43.6806 27.7446C43.8685 25.3185 45.2676 23.8061 47.6961 23.7102C50.3732 23.6046 53.058 23.6809 55.739 23.7004C56.7996 23.7083 57.7135 24.1328 58.4728 24.8665C59.4571 25.8174 59.7409 27.0363 59.6939 28.4704ZM69.0166 60.9916C67.8209 60.9916 66.6252 60.972 65.4315 60.9975C64.185 61.0249 63.7016 61.5316 63.6781 62.7701C63.6683 63.3159 63.7094 63.8638 63.6664 64.4057C63.6273 64.9066 63.8425 65.1375 64.2867 65.3194C67.1379 66.4953 70.0204 66.5872 72.9421 65.6227C74.3608 65.1551 74.3589 65.1472 74.3589 63.6329C74.3589 63.3727 74.3608 63.1125 74.3589 62.8542C74.3471 61.5316 73.852 61.017 72.5253 60.9955C71.355 60.976 70.1868 60.9916 69.0166 60.9916ZM19.7243 43.6647C18.4777 43.6647 17.2292 43.6354 15.9827 43.6725C14.8496 43.7078 14.378 44.2145 14.3584 45.3141C14.3487 45.9108 14.3839 46.5114 14.3467 47.1062C14.3173 47.564 14.4837 47.7969 14.9103 47.973C17.8672 49.1899 20.8495 49.2721 23.8572 48.196C25.0196 47.7793 25.0118 47.7617 25.0118 46.4977C25.0118 46.1593 25.0137 45.8228 25.0118 45.4843C25.004 44.2008 24.5206 43.6901 23.231 43.6667C22.0627 43.6451 20.8925 43.6628 19.7243 43.6647ZM37.0526 77.0155C35.7786 77.0155 34.5047 76.9979 33.2327 77.0213C32.219 77.0409 31.722 77.5594 31.6946 78.5768C31.6789 79.1735 31.7318 79.7761 31.6789 80.3689C31.63 80.9089 31.857 81.1515 32.3286 81.3433C35.2972 82.5387 38.2698 82.5622 41.2893 81.5213C42.1307 81.2318 42.5162 80.8091 42.3656 79.9052C42.2971 79.5002 42.3616 79.0757 42.3519 78.6589C42.3284 77.5594 41.8196 77.0331 40.7218 77.0174C39.4967 76.9998 38.2756 77.0155 37.0526 77.0155ZM51.7137 31.7711C53.0483 31.4893 54.4024 31.278 55.7116 30.9063C57.0442 30.5287 57.0247 30.4602 57.0247 29.0867C57.0247 28.6719 57.0443 28.2533 57.0188 27.8404C56.964 26.9424 56.5061 26.3906 55.6216 26.377C52.9993 26.3359 50.3751 26.3339 47.7529 26.373C46.8527 26.3867 46.4046 26.913 46.3596 27.8248C46.3283 28.4724 46.3772 29.1259 46.34 29.7735C46.3126 30.2352 46.4927 30.4622 46.9134 30.6382C48.4417 31.2741 50.019 31.6243 51.7137 31.7711ZM12.9827 70.3848C13.0004 68.8842 11.834 67.6751 10.3585 67.6672C8.92805 67.6594 7.71282 68.8431 7.67955 70.2772C7.64629 71.7427 8.85173 72.9713 10.3272 72.9792C11.7969 72.985 12.9651 71.8424 12.9827 70.3848ZM19.6753 12.969C21.1665 12.969 22.3641 11.7657 22.3426 10.2944C22.3211 8.86223 21.1117 7.66876 19.6812 7.6668C18.2116 7.66485 17.0159 8.8818 17.0316 10.3668C17.0453 11.8283 18.2057 12.969 19.6753 12.969ZM42.3558 46.3608C42.3714 47.8067 43.5554 48.9806 45.0015 48.9884C46.475 48.9962 47.6805 47.7812 47.6688 46.3021C47.6551 44.8523 46.4809 43.6882 45.023 43.6823C43.5397 43.6765 42.3401 44.8797 42.3558 46.3608ZM67.6682 79.6841C67.6761 78.2305 66.5176 77.0448 65.0695 77.0213C63.5764 76.9979 62.367 78.1718 62.3592 79.6528C62.3514 81.1222 63.5744 82.347 65.0382 82.3333C66.4726 82.3176 67.6624 81.1202 67.6682 79.6841ZM79.7169 23.6828C78.2629 23.6633 77.0653 24.8137 77.0359 26.2596C77.0066 27.7543 78.167 28.9654 79.6503 28.9889C81.1141 29.0104 82.3508 27.7876 82.3489 26.3261C82.345 24.8822 81.1689 23.7024 79.7169 23.6828Z" fill="url(#paint0_linear_52_897)"/>
<path d="M31.7005 66.3524C31.6868 63.4353 34.0351 61.0542 36.9724 61.0072C39.8725 60.9603 42.3617 63.4353 42.346 66.3505C42.3303 69.25 39.9097 71.6605 37.0135 71.6624C34.1075 71.6644 31.7142 69.2716 31.7005 66.3524ZM34.3658 66.3622C34.3775 67.812 35.5536 68.9859 37.0037 68.9918C38.4674 68.9977 39.7003 67.7611 39.6827 66.3055C39.665 64.8635 38.4733 63.6916 37.0252 63.6838C35.534 63.6759 34.3521 64.8675 34.3658 66.3622Z" fill="url(#paint1_linear_52_897)"/>
<path d="M19.5657 38.3057C16.6265 38.2372 14.3154 35.8366 14.3663 32.9057C14.4191 29.9905 16.8672 27.6055 19.7497 27.6662C22.6655 27.7288 25.047 30.1686 25.0059 33.0525C24.9629 36.0048 22.5109 38.3742 19.5657 38.3057ZM19.6401 35.6448C21.1234 35.6605 22.3426 34.467 22.3426 32.9977C22.3426 31.5714 21.145 30.3564 19.7164 30.3309C18.2879 30.3055 17.0629 31.4872 17.0316 32.9214C16.9983 34.4259 18.149 35.6272 19.6401 35.6448Z" fill="url(#paint2_linear_52_897)"/>
<path d="M69.0342 55.6442C66.1106 55.656 63.7349 53.3101 63.6977 50.3714C63.6605 47.4484 66.1047 44.989 69.0342 45.0027C71.9362 45.0184 74.3491 47.4386 74.3471 50.3303C74.3432 53.2397 71.9499 55.6325 69.0342 55.6442ZM68.9774 52.9795C70.4607 52.9931 71.6799 51.7977 71.676 50.3284C71.674 48.8962 70.4823 47.689 69.0498 47.6675C67.5763 47.644 66.3669 48.8453 66.3689 50.3342C66.3708 51.7997 67.5195 52.9638 68.9774 52.9795Z" fill="url(#paint3_linear_52_897)"/>
<path d="M51.6706 20.975C48.7431 20.9711 46.3733 18.6018 46.3674 15.6729C46.3616 12.7616 48.7392 10.355 51.6491 10.3257C54.5492 10.2963 57.0501 12.7987 57.0169 15.6905C56.9836 18.6096 54.5844 20.9789 51.6706 20.975ZM51.7137 18.3083C53.1598 18.2926 54.3437 17.105 54.3457 15.667C54.3477 14.2133 53.0933 12.9709 51.6452 12.9924C50.1716 13.0159 49.0034 14.2426 49.0366 15.7355C49.0679 17.197 50.2401 18.3239 51.7137 18.3083Z" fill="url(#paint4_linear_52_897)"/>
<defs>
<linearGradient id="paint0_linear_52_897" x1="13" y1="27" x2="84" y2="75" gradientUnits="userSpaceOnUse">
<stop stop-color="#02C0C2"/>
<stop offset="1" stop-color="#164A9E"/>
</linearGradient>
<linearGradient id="paint1_linear_52_897" x1="32.7628" y1="63.9369" x2="42.2165" y2="70.3221" gradientUnits="userSpaceOnUse">
<stop stop-color="#02C0C2"/>
<stop offset="1" stop-color="#164A9E"/>
</linearGradient>
<linearGradient id="paint2_linear_52_897" x1="15.4274" y1="30.5916" x2="24.8719" y2="36.976" gradientUnits="userSpaceOnUse">
<stop stop-color="#02C0C2"/>
<stop offset="1" stop-color="#164A9E"/>
</linearGradient>
<linearGradient id="paint3_linear_52_897" x1="64.7601" y1="47.9291" x2="74.2073" y2="54.3209" gradientUnits="userSpaceOnUse">
<stop stop-color="#02C0C2"/>
<stop offset="1" stop-color="#164A9E"/>
</linearGradient>
<linearGradient id="paint4_linear_52_897" x1="47.4302" y1="13.2541" x2="56.8818" y2="19.644" gradientUnits="userSpaceOnUse">
<stop stop-color="#02C0C2"/>
<stop offset="1" stop-color="#164A9E"/>
</linearGradient>
</defs>
</svg>
