<svg width="88" height="88" viewBox="0 0 88 88" fill="none" xmlns="http://www.w3.org/2000/svg">
<path d="M42.6732 86.477C42.5548 86.4195 42.4414 86.3433 42.3162 86.3061C39.8268 85.5463 38.3748 83.6221 38.3714 81.0075C38.3612 75.1741 38.368 69.339 38.368 63.5057C38.368 63.2027 38.368 62.8998 38.368 62.3566C37.9195 62.8017 37.6031 63.1164 37.2849 63.4295C34.8988 65.7852 31.79 65.792 29.4157 63.4193C20.6918 54.704 11.9781 45.9784 3.24753 37.2698C2.37261 36.3983 1.87507 35.3558 1.52307 34.2101C1.52307 33.6009 1.52307 32.9933 1.52307 32.3841C1.9783 30.7544 3.06476 29.5732 4.24261 28.4275C6.48153 26.2478 8.66461 24.0123 10.8815 21.8123C11.7226 20.978 12.6568 20.917 13.3794 21.6058C14.1088 22.3013 14.0461 23.3015 13.2186 24.168C13.0663 24.327 12.9072 24.481 12.7498 24.6384C10.4432 26.945 8.13492 29.2517 5.82999 31.56C4.48969 32.9003 4.48969 33.804 5.83169 35.146C14.4134 43.7293 22.9968 52.311 31.5801 60.8927C32.8731 62.1857 33.8343 62.1941 35.112 60.9181C43.7157 52.3178 52.3177 43.7141 60.918 35.1121C62.1906 33.8378 62.1838 32.8681 60.8926 31.5769C52.3109 22.9935 43.7275 14.4101 35.1441 5.82842C33.8055 4.48981 32.8985 4.4915 31.5565 5.83012C29.1111 8.27212 26.6809 10.731 24.2068 13.1426C23.8395 13.4997 23.2878 13.784 22.7852 13.855C22.1134 13.9498 21.5718 13.542 21.2875 12.8955C20.9846 12.2101 21.1301 11.5738 21.6395 11.0627C24.3692 8.3195 27.0786 5.55089 29.8811 2.88381C30.5462 2.25089 31.5412 1.96658 32.3857 1.52319C32.9949 1.52319 33.6025 1.52319 34.2117 1.52319C35.7805 1.89889 36.9261 2.89058 38.0363 4.00412C46.4657 12.4673 54.9222 20.9018 63.3634 29.3532C65.8105 31.8037 65.802 34.8972 63.3668 37.346C63.0808 37.6337 62.7762 37.9044 62.5545 38.3715C62.8438 38.3715 63.1332 38.3715 63.4209 38.3715C69.1443 38.3715 74.8677 38.3715 80.5911 38.3715C83.7151 38.3715 85.3583 39.5646 86.3652 42.5566C86.3805 42.6023 86.438 42.6344 86.4752 42.6717C86.4752 55.8344 86.4752 68.9989 86.4752 82.1617C86.1689 82.8284 85.9235 83.5324 85.5445 84.1569C84.7745 85.4244 83.512 86.0269 82.1615 86.477C68.9988 86.477 55.836 86.477 42.6732 86.477ZM83.1583 62.5021C83.1583 56.337 83.16 50.1703 83.1566 44.0052C83.1549 42.4517 82.4137 41.6935 80.8855 41.6935C73.8066 41.6884 66.7294 41.685 59.6505 41.7104C59.29 41.7121 58.8415 41.9017 58.586 42.1572C53.0945 47.6132 47.6198 53.0878 42.1655 58.581C41.8965 58.8518 41.7069 59.3358 41.7052 59.72C41.6782 66.7143 41.6849 73.7103 41.6866 80.7046C41.6866 82.4595 42.3906 83.1584 44.154 83.1584C56.32 83.1601 68.4843 83.1601 80.6503 83.1584C82.4865 83.1584 83.1566 82.4917 83.1566 80.6674C83.1583 74.6123 83.1583 68.5572 83.1583 62.5021Z" fill="url(#paint0_linear_52_888)"/>
<path d="M46.0223 27.231C49.4171 27.2327 52.1315 29.9437 52.14 33.3368C52.1468 36.7553 49.3748 39.5239 45.9732 39.4951C42.6191 39.468 39.8606 36.6757 39.8775 33.3266C39.8928 29.9522 42.6394 27.2293 46.0223 27.231ZM48.8214 33.3283C48.8112 31.7765 47.5877 30.5563 46.0341 30.5479C44.462 30.5411 43.1775 31.8188 43.1928 33.3757C43.208 34.8937 44.484 36.1663 45.9986 36.1765C47.564 36.1867 48.8315 34.9073 48.8214 33.3283Z" fill="url(#paint1_linear_52_888)"/>
<path d="M33.3858 52.1418C29.9894 52.1554 27.2478 49.4527 27.2292 46.0732C27.2106 42.648 29.9572 39.8726 33.3605 39.876C36.718 39.8811 39.49 42.6514 39.4968 46.0072C39.5018 49.3766 36.762 52.1283 33.3858 52.1418ZM33.3689 48.8232C34.9038 48.8164 36.1612 47.5709 36.1765 46.0427C36.1934 44.4977 34.8802 43.1827 33.3351 43.1946C31.8069 43.2064 30.5563 44.4621 30.5478 45.9954C30.5377 47.5861 31.7798 48.83 33.3689 48.8232Z" fill="url(#paint2_linear_52_888)"/>
<path d="M33.2674 26.8062C29.8286 26.7487 27.1785 23.9987 27.2309 20.5396C27.2817 17.1838 30.1028 14.4862 33.4789 14.5675C36.872 14.6487 39.5645 17.4342 39.4934 20.7918C39.4206 24.1764 36.6402 26.8621 33.2674 26.8062ZM33.3588 23.4893C34.8988 23.4876 36.1528 22.2556 36.1782 20.7207C36.2035 19.1638 34.9225 17.8793 33.3469 17.881C31.7951 17.8827 30.5614 19.1045 30.5478 20.6496C30.5326 22.2438 31.7697 23.4927 33.3588 23.4893Z" fill="url(#paint3_linear_52_888)"/>
<path d="M26.8028 33.3453C26.8095 36.7282 24.09 39.4765 20.7138 39.4968C17.3529 39.5171 14.5945 36.784 14.5623 33.4028C14.5301 29.9843 17.2717 27.2259 20.6969 27.231C24.0917 27.2343 26.796 29.9437 26.8028 33.3453ZM17.8792 33.3639C17.8843 34.9005 19.1214 36.1562 20.6529 36.1765C22.2149 36.1985 23.4909 34.9225 23.4858 33.3436C23.4808 31.7545 22.2285 30.5276 20.6326 30.5496C19.0892 30.5699 17.8741 31.812 17.8792 33.3639Z" fill="url(#paint4_linear_52_888)"/>
<path d="M19.1535 17.5105C19.1569 18.4294 18.4614 19.1418 17.5458 19.1554C16.6015 19.1689 15.8468 18.4175 15.8671 17.4851C15.8874 16.5865 16.6337 15.8605 17.5289 15.8672C18.4309 15.8757 19.1501 16.6017 19.1535 17.5105Z" fill="url(#paint5_linear_52_888)"/>
<path d="M68.5571 62.4293C68.5554 65.8037 65.8138 68.5503 62.4411 68.5571C59.0378 68.5622 56.2641 65.78 56.2861 62.3802C56.3081 59.0226 59.0869 56.276 62.4495 56.2879C65.8155 56.2997 68.5588 59.0582 68.5571 62.4293ZM65.2368 62.4208C65.2351 60.891 63.9878 59.6268 62.4597 59.6048C60.9061 59.5828 59.6014 60.874 59.6031 62.4293C59.6048 63.9557 60.8571 65.2199 62.3852 65.2368C63.9574 65.2554 65.2401 63.9879 65.2368 62.4208Z" fill="url(#paint6_linear_52_888)"/>
<defs>
<linearGradient id="paint0_linear_52_888" x1="10" y1="27" x2="82" y2="86" gradientUnits="userSpaceOnUse">
<stop stop-color="#02C0C2"/>
<stop offset="1" stop-color="#164A9E"/>
</linearGradient>
<linearGradient id="paint1_linear_52_888" x1="41.1011" y1="30.9089" x2="51.4951" y2="39.4252" gradientUnits="userSpaceOnUse">
<stop stop-color="#02C0C2"/>
<stop offset="1" stop-color="#164A9E"/>
</linearGradient>
<linearGradient id="paint2_linear_52_888" x1="28.4533" y1="43.5544" x2="38.8492" y2="52.0746" gradientUnits="userSpaceOnUse">
<stop stop-color="#02C0C2"/>
<stop offset="1" stop-color="#164A9E"/>
</linearGradient>
<linearGradient id="paint3_linear_52_888" x1="28.454" y1="18.2367" x2="38.8327" y2="26.7578" gradientUnits="userSpaceOnUse">
<stop stop-color="#02C0C2"/>
<stop offset="1" stop-color="#164A9E"/>
</linearGradient>
<linearGradient id="paint4_linear_52_888" x1="15.7835" y1="30.9094" x2="26.1749" y2="39.4073" gradientUnits="userSpaceOnUse">
<stop stop-color="#02C0C2"/>
<stop offset="1" stop-color="#164A9E"/>
</linearGradient>
<linearGradient id="paint5_linear_52_888" x1="16.1946" y1="16.8533" x2="18.9814" y2="19.1359" gradientUnits="userSpaceOnUse">
<stop stop-color="#02C0C2"/>
<stop offset="1" stop-color="#164A9E"/>
</linearGradient>
<linearGradient id="paint6_linear_52_888" x1="57.5105" y1="59.9673" x2="67.9093" y2="68.4899" gradientUnits="userSpaceOnUse">
<stop stop-color="#02C0C2"/>
<stop offset="1" stop-color="#164A9E"/>
</linearGradient>
</defs>
</svg>
