<svg width="88" height="88" viewBox="0 0 88 88" fill="none" xmlns="http://www.w3.org/2000/svg">
<path d="M1.69231 74.0775C2.20677 73.4428 2.88538 73.2871 3.66554 73.3548C4.12246 73.3938 4.58615 73.3616 5.13784 73.3616C5.13784 72.9081 5.13784 72.5578 5.13784 72.2091C5.13784 57.8584 5.13615 43.5093 5.13954 29.1585C5.14123 26.1175 6.78784 23.8481 9.53446 23.1288C10.1386 22.9715 10.7834 22.9376 11.4112 22.9088C12.2049 22.8733 13.0003 22.9004 13.7602 22.9004C13.6586 22.0051 13.4403 21.1658 13.4978 20.345C13.6298 18.4411 14.6503 17.0721 16.3358 16.1802C20.7138 13.8685 25.0868 11.5467 29.4614 9.22822C32.912 7.39884 36.3677 5.57622 39.8132 3.74007C42.5429 2.28469 45.2777 2.23561 48.0277 3.66222C49.0769 4.20715 50.1245 4.75715 51.1618 5.32576C51.942 5.75392 52.1789 6.45115 51.8049 7.10945C51.458 7.72376 50.7709 7.8913 50.0094 7.50376C48.9788 6.98084 47.9634 6.42915 46.9429 5.8893C44.9663 4.84176 42.9981 4.8553 41.0215 5.90284C33.198 10.0541 25.3745 14.2053 17.5425 18.3413C16.5542 18.8642 15.9382 19.6105 15.9382 20.7376C15.9382 21.8681 16.5626 22.6178 17.5458 23.1356C25.4015 27.2835 33.2538 31.4431 41.1045 35.6011C42.9338 36.5708 44.7937 36.6538 46.6451 35.7179C48.6522 34.7008 50.6305 33.6245 52.6934 32.5347C50.9131 30.5022 49.192 28.5375 47.4709 26.5727C46.0731 24.9785 44.6702 23.3878 43.2791 21.7868C42.6445 21.0558 42.6191 20.3179 43.1742 19.817C43.7512 19.2975 44.5077 19.4328 45.1728 20.1893C48.2426 23.6873 51.3108 27.187 54.3806 30.685C54.56 30.8881 54.7495 31.0827 54.9729 31.323C57.3726 30.0504 59.7486 28.7896 62.1246 27.5305C64.8458 26.087 67.5603 24.6282 70.2968 23.2135C71.3342 22.677 72.0466 21.9476 72.0551 20.7393C72.0635 19.5259 71.3375 18.7881 70.3137 18.2499C65.1538 15.5338 60.0008 12.8041 54.8511 10.0693C54.5668 9.91869 54.1572 9.72407 54.1014 9.48038C53.9931 9.02176 53.9423 8.42269 54.1538 8.04361C54.4957 7.43438 55.1608 7.44961 55.7615 7.76268C57.3709 8.60207 58.9769 9.44992 60.5812 10.2995C64.0809 12.1542 67.5755 14.0175 71.0786 15.8688C74.184 17.5087 75.0403 19.4108 74.1282 22.897C74.9405 22.897 75.7206 22.8953 76.5025 22.897C80.3982 22.9088 82.8571 25.3525 82.8588 29.2381C82.8622 43.5601 82.8605 57.8821 82.8605 72.2058C82.8605 72.5561 82.8605 72.9047 82.8605 73.2618C84.0586 73.5765 85.4108 72.8979 86.306 74.0758C86.306 75.5075 86.306 76.9408 86.306 78.3725C86.02 79.2288 85.8423 80.1427 85.426 80.9296C83.7862 84.0316 81.1377 85.3838 77.6532 85.3804C55.2166 85.3584 32.7783 85.3685 10.3417 85.3685C9.98461 85.3685 9.62584 85.355 9.26877 85.3398C7.40892 85.2551 5.80631 84.5511 4.40677 83.3428C2.88031 82.0245 2.11031 80.295 1.69061 78.3742C1.69231 76.9425 1.69231 75.5108 1.69231 74.0775ZM53.6005 47.823C53.5091 47.7722 53.4194 47.7215 53.328 47.669C53.1148 47.7181 52.9015 47.7587 52.69 47.8162C46.1238 49.6016 39.6355 49.3393 33.1912 47.163C29.4952 45.9158 26.7249 43.7175 25.2594 40.0181C24.4894 38.0719 24.4572 36.0445 24.4911 34.0002C24.5063 33.0779 24.4945 32.1539 24.4945 31.2079C20.7494 31.2079 17.1245 31.2079 13.4505 31.2079C13.4505 43.3282 13.4505 55.4028 13.4505 67.5773C13.8075 67.5773 14.1308 67.5756 14.4557 67.5773C15.8874 67.5824 17.3208 67.5655 18.7508 67.6027C19.4565 67.6213 19.8677 68.0495 19.8965 68.7619C19.9252 69.4778 19.5292 69.8907 18.8422 70.021C18.6289 70.0616 18.4038 70.0548 18.1838 70.0548C16.3392 70.0565 14.4929 70.0599 12.6483 70.0548C11.2877 70.0515 10.9222 69.6893 10.9222 68.3473C10.9205 55.7058 10.9205 43.0625 10.9222 30.421C10.9222 29.035 11.2792 28.6881 12.7025 28.6864C15.6488 28.683 18.5968 28.6864 21.5431 28.683C21.8155 28.683 22.0863 28.6559 22.3588 28.6424C21.846 28.2142 21.3062 27.9858 20.8357 27.6591C18.0078 25.6842 14.8889 25.0835 11.4755 25.3441C8.97261 25.537 7.61707 26.7368 7.61707 29.2702C7.61538 43.6481 7.61538 58.0242 7.61538 72.4021C7.61538 72.6948 7.61538 72.9876 7.61538 73.3074C31.9186 73.3074 56.1135 73.3074 80.3338 73.3074C80.3525 73.0671 80.3795 72.8776 80.3795 72.6881C80.3812 58.1173 80.3846 43.5482 80.3762 28.9775C80.3745 26.8265 78.9648 25.4202 76.8037 25.3847C75.3162 25.3593 73.8286 25.3475 72.3428 25.3965C71.8165 25.4135 71.2546 25.5471 70.7842 25.779C69.256 26.5321 67.76 27.3562 66.2538 28.155C66.0355 28.2701 65.8257 28.4021 65.6125 28.5256C68.904 28.6847 72.1228 28.6813 75.3432 28.6864C76.7038 28.6881 77.0745 29.0519 77.0745 30.3888C77.0762 43.0304 77.0762 55.6736 77.0745 68.3151C77.0745 69.6994 76.7106 70.0548 75.2958 70.0565C58.2746 70.0582 41.2534 70.0582 24.2322 70.0548C23.958 70.0548 23.6771 70.0582 23.4114 70.0024C22.7548 69.8619 22.4011 69.4135 22.4265 68.7636C22.4535 68.1188 22.8225 67.6839 23.4994 67.6078C23.826 67.5705 24.1594 67.579 24.4894 67.579C40.8218 67.5773 57.1543 67.5773 73.4885 67.5773C73.8371 67.5773 74.1857 67.5773 74.5343 67.5773C74.5343 55.3859 74.5343 43.3113 74.5343 31.2367C70.8298 31.2367 67.188 31.2367 63.5038 31.2367C63.5038 31.6936 63.5157 32.0778 63.5022 32.4619C63.4328 34.3573 63.5766 36.2933 63.2348 38.1396C62.5088 42.0539 60.1802 44.8344 56.5366 46.4708C56.0763 46.6773 55.9037 46.9041 55.8749 47.4304C55.8157 48.5185 56.0492 49.4662 56.6568 50.3801C57.31 51.3633 57.86 52.4159 58.4337 53.4516C59.0311 54.5296 59.1038 55.6618 58.5978 56.7854C57.7652 58.6334 56.2134 59.1107 54.3214 59.0599C51.1838 58.9753 49.4458 56.0374 50.9706 53.2908C51.5985 52.1604 52.3075 51.0739 52.8897 49.9215C53.2214 49.2682 53.3703 48.5253 53.6005 47.823ZM4.25277 75.8408C3.88892 78.8362 4.90769 81.0396 7.13815 82.2513C8.19415 82.825 9.33307 82.8944 10.5008 82.8944C32.8308 82.8893 55.1625 82.891 77.4925 82.8893C77.8225 82.8893 78.1542 82.8876 78.4825 82.8707C82.0499 82.6913 84.5308 79.3778 83.7117 75.8831C83.6339 75.8713 83.5526 75.8459 83.4714 75.8459C73.9166 75.8425 64.3618 75.8442 54.8071 75.8273C54.3078 75.8273 54.1792 76.0541 54.0422 76.4738C53.2722 78.8464 51.3023 80.4794 48.8722 80.5471C45.6263 80.6368 42.372 80.6656 39.1278 80.5387C36.6012 80.4405 34.8768 78.9987 34.0222 76.6311C33.7886 75.9847 33.5077 75.8222 32.8629 75.8239C23.6111 75.8442 14.3592 75.8374 5.10738 75.8374C4.83831 75.8408 4.56415 75.8408 4.25277 75.8408ZM26.9771 30.9422C26.9771 32.709 26.9229 34.3556 26.9872 35.9955C27.1378 39.8099 28.908 42.6716 32.4246 44.1676C39.0517 46.9887 45.8632 47.2527 52.7729 45.2185C53.24 45.0815 53.438 44.9105 53.4329 44.3842C53.4042 41.4379 53.4194 38.4899 53.4177 35.5436C53.4177 35.3947 53.3906 35.2458 53.3652 34.9919C51.5951 35.9278 49.918 36.7976 48.2545 37.6996C45.4131 39.2379 42.592 39.2311 39.7455 37.7013C36.3051 35.8533 32.8477 34.0358 29.3971 32.2081C28.6288 31.7985 27.8537 31.4008 26.9771 30.9422ZM61.1786 31.0962C61.0771 31.0675 60.9755 31.0387 60.8757 31.0099C59.3983 31.7935 57.9328 32.599 56.4385 33.3487C55.9934 33.5721 55.8885 33.8513 55.8918 34.3082C55.9105 37.0058 55.9003 39.7016 55.9003 42.3991C55.9003 42.9085 55.9003 43.4179 55.9003 44.0508C58.3998 42.7528 60.1429 40.8981 60.6337 38.297C61.0754 35.9481 61.0162 33.501 61.1786 31.0962ZM51.6323 75.9001C46.4911 75.9001 41.4768 75.9001 36.3694 75.9001C36.938 77.1828 37.8146 78.0222 39.1278 78.0527C42.3703 78.1271 45.6178 78.1255 48.8603 78.0544C50.1786 78.0273 51.0502 77.1845 51.6323 75.9001ZM54.6666 51.8507C54.0929 52.8424 53.5768 53.6851 53.108 54.555C52.5563 55.5805 53.1097 56.5198 54.2655 56.5638C54.5668 56.5756 54.8714 56.5807 55.1726 56.5604C56.188 56.491 56.7346 55.5924 56.2692 54.6768C55.7971 53.7495 55.2454 52.8627 54.6666 51.8507Z" fill="url(#paint0_linear_55_919)"/>
<path d="M30.7797 61.793C34.6906 61.793 38.6015 61.7913 42.5142 61.7946C42.8171 61.7946 43.1268 61.7811 43.4195 61.8454C43.9949 61.9723 44.4214 62.3819 44.3148 62.9454C44.2318 63.3854 43.8798 63.8322 43.5312 64.1453C43.3332 64.323 42.9 64.2654 42.5734 64.2671C34.6686 64.2722 26.7638 64.2722 18.8574 64.2671C18.5308 64.2671 18.0958 64.3179 17.9012 64.1385C17.5526 63.8187 17.1194 63.3245 17.1482 62.9353C17.1769 62.5477 17.688 62.1399 18.0722 61.8573C18.2752 61.7083 18.6594 61.7946 18.9606 61.7946C22.902 61.793 26.84 61.793 30.7797 61.793Z" fill="url(#paint1_linear_55_919)"/>
<path d="M26.6318 59.0446C23.9106 59.0446 21.1877 59.0717 18.4665 59.0142C18.0518 59.0057 17.5103 58.6926 17.2751 58.3508C17.0872 58.0783 17.1363 57.4539 17.336 57.1543C17.5374 56.8497 18.0502 56.5925 18.4275 56.5908C23.8717 56.5552 29.3142 56.5603 34.7583 56.5705C35.5943 56.5722 36.1223 57.0731 36.1325 57.7906C36.1426 58.5437 35.6062 59.0362 34.7143 59.0395C32.0202 59.0514 29.326 59.0446 26.6318 59.0446Z" fill="url(#paint2_linear_55_919)"/>
<defs>
<linearGradient id="paint0_linear_55_919" x1="11" y1="25" x2="80" y2="81" gradientUnits="userSpaceOnUse">
<stop stop-color="#02C0C2"/>
<stop offset="1" stop-color="#164A9E"/>
</linearGradient>
<linearGradient id="paint1_linear_55_919" x1="20.1376" y1="62.4472" x2="20.6265" y2="66.6586" gradientUnits="userSpaceOnUse">
<stop stop-color="#02C0C2"/>
<stop offset="1" stop-color="#164A9E"/>
</linearGradient>
<linearGradient id="paint2_linear_55_919" x1="19.245" y1="57.2358" x2="19.9266" y2="61.3626" gradientUnits="userSpaceOnUse">
<stop stop-color="#02C0C2"/>
<stop offset="1" stop-color="#164A9E"/>
</linearGradient>
</defs>
</svg>
