<svg width="88" height="88" viewBox="0 0 88 88" fill="none" xmlns="http://www.w3.org/2000/svg">
<path d="M13.1252 55.3586C12.3112 55.8448 11.5522 56.3354 10.7536 56.749C10.5292 56.8656 10.0562 56.8678 9.9132 56.716C7.6956 54.395 5.5154 52.041 3.2054 49.5682C3.509 49.0534 4.0392 48.1602 4.6442 47.1394C3.7004 46.9084 2.8226 46.6554 1.9294 46.4926C1.4586 46.4068 1.2892 46.244 1.2914 45.7556C1.3112 42.812 1.3134 39.8684 1.2914 36.927C1.287 36.4166 1.5004 36.2956 1.9492 36.2098C2.8314 36.0426 3.6982 35.794 4.642 35.5608C4.0656 34.5884 3.5354 33.6952 2.9458 32.7008C4.026 31.6822 5.1084 30.6856 6.1644 29.6626C7.348 28.5164 8.5294 27.3658 9.6668 26.1712C10.098 25.718 10.439 25.685 10.9362 26.0194C11.6182 26.477 12.3376 26.8774 13.1406 27.3614C13.3606 26.5166 13.6114 25.7444 13.75 24.9524C13.8556 24.3452 14.1064 24.156 14.7246 24.1692C16.8102 24.2088 18.9002 24.1846 20.9858 24.1846C21.2564 24.1846 21.527 24.1846 21.9054 24.1846C21.9054 23.8436 21.9054 23.551 21.9054 23.2606C21.9054 18.8606 21.9934 14.4562 21.879 10.0584C21.7822 6.39763 25.0404 3.03163 28.8486 3.04263C40.7682 3.08003 52.69 3.04043 64.6096 3.06463C68.5322 3.07343 71.3416 5.94663 71.3504 9.87143C71.3636 15.345 71.3548 20.8186 71.3548 26.2922C71.3548 26.5914 71.3548 26.8906 71.3548 27.203C76.2938 28.4416 80.355 30.888 83.2986 35.1098C85.6548 38.489 86.6624 42.1982 86.4996 46.2704C86.1938 53.8824 80.4276 61.3888 71.3548 63.3908C71.3548 63.6702 71.3548 63.9672 71.3548 64.2664C71.3548 68.915 71.3636 73.5636 71.3504 78.2122C71.3438 80.5112 70.4286 82.3944 68.5366 83.7034C67.4212 84.4756 66.132 84.9178 64.7526 84.9178C52.723 84.9266 40.6912 84.9464 28.6616 84.9046C26.1206 84.8958 24.2044 83.677 22.8426 81.4726C22.1408 80.3396 21.9054 79.178 21.9054 77.9042C21.9098 71.7706 21.9076 65.637 21.9076 59.5034C21.9076 59.2064 21.9076 58.9094 21.9076 58.52C20.0662 58.52 18.2908 58.5288 16.5154 58.5156C15.6728 58.509 14.6124 58.7532 14.0536 58.3374C13.5344 57.9524 13.5564 56.8414 13.3364 56.0494C13.277 55.836 13.2088 55.6292 13.1252 55.3586ZM63.0894 21.5996C52.0696 21.5996 41.129 21.5996 30.2126 21.5996C30.2126 36.575 30.2126 51.491 30.2126 66.3938C41.1994 66.3938 52.1202 66.3938 63.0564 66.3938C63.0564 65.3488 63.0564 64.35 63.0564 63.3666C62.8166 63.2962 62.634 63.2368 62.4492 63.1906C57.7038 62.0004 53.9132 59.3516 51.1434 55.374C48.741 51.9266 47.8346 47.9908 48.1932 43.7866C48.2218 43.4412 48.2548 43.0958 48.2944 42.6602C43.1486 42.6602 38.0842 42.6602 33.0044 42.6602C33.0044 36.4628 33.0044 30.3468 33.0044 24.244C42.1872 24.244 51.3128 24.244 60.5198 24.244C60.5198 25.5222 60.5198 26.7388 60.5198 28.017C61.4372 27.7332 62.2622 27.478 63.0894 27.2228C63.0894 25.3352 63.0894 23.496 63.0894 21.5996ZM24.7676 16.2932C24.7676 34.8018 24.7676 53.24 24.7676 71.654C39.446 71.654 54.0672 71.654 68.6532 71.654C68.6532 68.9898 68.6532 66.3916 68.6532 63.8154C67.7204 63.8154 66.8514 63.8154 65.9054 63.8154C65.9054 65.5754 65.9054 67.2936 65.9054 69.025C53.0706 69.025 40.3194 69.025 27.5704 69.025C27.5704 52.2962 27.5704 35.618 27.5704 18.9662C40.3832 18.9662 53.1344 18.9662 65.967 18.9662C65.967 21.6304 65.967 24.2286 65.967 26.8026C66.9152 26.8026 67.782 26.8026 68.6708 26.8026C68.6708 23.2804 68.6708 19.8044 68.6708 16.2932C54.021 16.2932 39.4218 16.2932 24.7676 16.2932ZM63.0872 46.937C63.173 46.8028 63.2588 46.6686 63.3446 46.5344C63.0982 46.4134 62.8056 46.343 62.612 46.1626C61.3712 45.0186 60.6518 43.5864 60.511 41.9078C60.4296 40.9508 60.4472 39.9828 60.4824 39.0236C60.5902 36.0844 61.8552 33.9086 64.614 32.659C68.3562 30.9628 73.4646 33.341 74.0058 37.5518C74.2038 39.0918 74.2016 40.6846 74.0542 42.2334C73.898 43.8812 73.172 45.3288 71.7244 46.3034C71.5528 46.42 71.4472 46.6356 71.2536 46.8798C73.0554 47.3088 74.701 47.7268 76.3598 48.092C78.8414 48.6376 80.8456 49.8014 81.9236 52.2302C81.9346 52.2544 81.9984 52.2566 82.0402 52.272C82.0908 52.1994 82.148 52.1356 82.1832 52.063C84.9574 46.4024 83.754 39.2128 79.9458 35.211C78.375 33.561 76.7118 32.1112 74.6416 31.1322C68.0064 27.9884 60.2778 29.326 55.0374 34.6786C52.998 36.762 51.8078 39.3734 51.106 42.1498C50.248 45.5466 50.831 48.8356 52.4018 51.9508C52.4634 52.074 52.5536 52.184 52.6768 52.371C53.6514 49.9092 55.5258 48.7256 57.9018 48.1756C59.6332 47.7752 61.3602 47.3506 63.0872 46.937ZM68.7148 48.9874C68.7148 47.9116 68.739 46.9216 68.706 45.9338C68.6862 45.3882 68.8116 45.0362 69.3396 44.7524C70.3208 44.2222 71.0974 43.3928 71.1942 42.2686C71.3218 40.7748 71.3108 39.2568 71.192 37.7608C71.1084 36.7378 70.4198 35.948 69.5486 35.398C66.5302 33.4906 63.2566 35.9986 63.1246 38.7222C63.0806 39.655 63.008 40.6098 63.151 41.5228C63.2632 42.2334 63.5756 42.977 64.0002 43.5556C64.5282 44.275 65.527 44.7326 65.8372 45.5004C66.1628 46.3034 65.9098 47.3418 65.912 48.2768C65.912 48.3054 65.9076 48.3318 65.912 48.3582C65.9802 48.8202 65.8042 49.0336 65.3224 49.1392C63.4216 49.5594 61.534 50.0324 59.6376 50.4768C58.1372 50.8266 56.5554 51.0642 55.6908 52.5558C55.3124 53.2092 55.0792 53.9638 54.8834 54.7008C54.6458 55.594 55.2288 56.0736 55.8492 56.6544C58.3132 58.9666 61.193 60.3922 64.4996 60.9026C70.1206 61.7694 75.0266 60.258 79.1164 56.254C79.332 56.0428 79.5454 55.726 79.5762 55.44C79.8226 53.0002 78.4542 51.2644 76.0716 50.754C73.6362 50.2282 71.225 49.5946 68.7148 48.9874ZM24.7214 13.5652C39.4262 13.5652 54.0452 13.5652 68.717 13.5652C68.717 12.4454 68.717 11.3762 68.717 10.3092C68.717 7.32383 67.0846 5.69583 64.0882 5.69583C55.165 5.69583 46.2418 5.69583 37.3186 5.69583C34.4916 5.69583 31.6624 5.67823 28.8354 5.70243C26.6178 5.72223 24.86 7.24243 24.739 9.30383C24.6532 10.6986 24.7214 12.1022 24.7214 13.5652ZM68.7016 74.415C53.9946 74.415 39.3778 74.415 24.7258 74.415C24.7258 75.8934 24.6422 77.3256 24.7456 78.7446C24.8996 80.8522 26.6992 82.2822 29.0664 82.2822C40.8166 82.2866 52.569 82.2844 64.3192 82.2844C64.5106 82.2844 64.7042 82.2822 64.8956 82.2734C66.539 82.1986 68.662 80.509 68.695 78.6742C68.7236 77.275 68.7016 75.8736 68.7016 74.415ZM35.7852 39.9982C40.1808 39.9982 44.5082 39.9982 48.8686 39.9982C48.9522 39.7672 49.0138 39.5296 49.1194 39.3118C49.8058 37.9126 50.3294 36.3902 51.2336 35.1472C52.8594 32.912 54.7426 30.8748 57.2616 29.5592C57.4552 29.458 57.6356 29.1522 57.651 28.93C57.7016 28.2546 57.6686 27.5726 57.6686 26.8686C50.3272 26.8686 43.0716 26.8686 35.783 26.8686C35.7852 31.2466 35.7852 35.5784 35.7852 39.9982ZM21.8768 50.2744C17.5582 51.1038 13.9238 50.1622 11.3256 46.5278C9.1234 43.4456 8.855 40.1874 10.8724 36.8742C13.4244 32.6854 17.2414 31.5678 21.8636 32.4038C21.8636 30.5602 21.8636 28.7298 21.8636 26.8686C19.9408 26.8686 18.062 26.8686 16.1766 26.8686C15.9566 27.7332 15.7476 28.556 15.5342 29.381C15.2878 30.3314 13.926 30.9034 13.079 30.4062C12.3046 29.953 11.5412 29.4822 10.615 28.9256C9.295 30.4304 7.9992 31.9066 6.6374 33.462C6.9432 33.9724 7.4008 34.7204 7.843 35.4794C8.305 36.267 7.7858 37.5298 6.9058 37.752C5.984 37.9852 5.0578 38.1942 4.136 38.4142C4.136 40.4118 4.136 42.3302 4.136 44.2948C5.0842 44.5192 6.017 44.7282 6.9432 44.9614C7.7638 45.1682 8.294 46.4464 7.865 47.1834C7.4118 47.9644 6.941 48.7344 6.479 49.5088C6.5956 49.4164 6.7122 49.3218 6.8288 49.2294C8.1048 50.7518 9.3808 52.2742 10.6282 53.7636C11.5566 53.207 12.2606 52.7824 12.969 52.3644C13.9612 51.777 15.2262 52.2698 15.5474 53.3874C15.7806 54.1992 15.9698 55.022 16.1744 55.814C18.1148 55.814 19.9936 55.814 21.8768 55.814C21.8768 53.9396 21.8768 52.1312 21.8768 50.2744ZM21.9054 41.4326C21.9054 39.5912 21.8878 37.7498 21.9164 35.9084C21.923 35.442 21.7734 35.2242 21.3378 35.0878C18.1368 34.0934 15.4902 35.2792 13.7148 37.378C11.6468 39.8244 11.5742 44.5082 15.5628 46.9128C17.3866 48.0128 19.305 48.224 21.3356 47.6146C21.7756 47.4826 21.9252 47.2626 21.9186 46.794C21.8878 45.0076 21.9054 43.219 21.9054 41.4326Z" fill="#164A9E"/>
<path d="M16.467 79.6246C15.4924 79.6246 14.6454 79.6246 13.6642 79.6246C13.6642 79.3276 13.6642 79.0394 13.6642 78.7512C13.6642 75.6734 13.6576 72.5956 13.6708 69.5178C13.673 69.069 13.5806 68.8006 13.1296 68.5608C11.6996 67.7952 10.9626 66.5478 11.044 64.9198C11.1254 63.2962 11.9592 62.0994 13.4618 61.4834C14.971 60.8652 16.4098 61.0698 17.7122 62.1104C19.074 63.1994 19.5646 64.5634 19.0916 66.253C18.7814 67.3662 17.9212 68.0196 17.0038 68.5586C16.5748 68.8094 16.4538 69.0536 16.456 69.5112C16.4714 72.5626 16.4648 75.6118 16.4648 78.6632C16.467 78.958 16.467 79.255 16.467 79.6246ZM15.1492 63.8044C14.3066 63.8022 13.6686 64.3742 13.673 65.1244C13.6774 65.8768 14.322 66.4422 15.1646 66.4312C15.8752 66.4224 16.4648 65.8196 16.4604 65.109C16.456 64.3962 15.8598 63.8044 15.1492 63.8044Z" fill="#02C0C2"/>
<path d="M76.956 8.36658C77.869 8.36658 78.6808 8.36658 79.5938 8.36658C79.5938 8.68778 79.5938 8.98038 79.5938 9.27298C79.5938 12.353 79.6048 15.433 79.5828 18.513C79.5784 19.0036 79.7346 19.2324 80.1944 19.404C81.4858 19.8858 82.401 21.3752 82.3944 22.8778C82.3878 24.4354 81.466 25.8368 80.0998 26.3692C78.1264 27.137 76.3114 26.8004 75.1278 25.4452C73.4206 23.4916 74.0256 20.4974 76.3686 19.4282C76.8482 19.2104 76.9714 18.931 76.9692 18.4294C76.945 15.1074 76.956 11.781 76.956 8.36658ZM78.2606 21.5468C77.5456 21.5556 76.9538 22.1584 76.9626 22.8734C76.9714 23.5884 77.5742 24.1824 78.287 24.1736C78.9998 24.1648 79.5938 23.5576 79.585 22.8448C79.5784 22.132 78.9756 21.5402 78.2606 21.5468Z" fill="#02C0C2"/>
<path d="M16.4494 82.3527C16.4494 83.2151 16.4494 84.0071 16.4494 84.8629C15.5496 84.8629 14.663 84.8629 13.7214 84.8629C13.7214 84.0445 13.7214 83.2129 13.7214 82.3527C14.6344 82.3527 15.5386 82.3527 16.4494 82.3527Z" fill="#02C0C2"/>
<path d="M79.5762 3.12402C79.5762 3.98642 79.5762 4.77842 79.5762 5.63422C78.7314 5.63422 77.8998 5.63422 77.011 5.63422C77.011 4.81582 77.011 3.98422 77.011 3.12402C77.8712 3.12402 78.7226 3.12402 79.5762 3.12402Z" fill="#02C0C2"/>
<path d="M32.9868 47.894C32.9868 47.0228 32.9868 46.2088 32.9868 45.353C37.0744 45.353 41.1268 45.353 45.2452 45.353C45.2452 46.1692 45.2452 47.003 45.2452 47.894C41.195 47.894 37.1228 47.894 32.9868 47.894Z" fill="#02C0C2"/>
<path d="M45.2408 53.218C41.14 53.218 37.1096 53.218 33.0132 53.218C33.0132 52.371 33.0132 51.5372 33.0132 50.6484C37.0678 50.6484 41.14 50.6484 45.2408 50.6484C45.2408 51.5064 45.2408 52.3578 45.2408 53.218Z" fill="#02C0C2"/>
<path d="M45.2716 55.9307C45.2716 56.8063 45.2716 57.6203 45.2716 58.4739C41.1818 58.4739 37.1316 58.4739 33.0132 58.4739C33.0132 57.6555 33.0132 56.8217 33.0132 55.9307C37.0678 55.9307 41.1378 55.9307 45.2716 55.9307Z" fill="#02C0C2"/>
<path d="M32.9978 61.1952C37.0832 61.1952 41.1334 61.1952 45.2474 61.1952C45.2474 62.0224 45.2474 62.8562 45.2474 63.7428C41.1862 63.7428 37.1162 63.7428 32.9978 63.7428C32.9978 62.92 32.9978 62.106 32.9978 61.1952Z" fill="#02C0C2"/>
<path d="M49.3834 10.9385C45.7402 10.9385 42.1278 10.9385 38.4538 10.9385C38.4538 10.1135 38.4538 9.27967 38.4538 8.39087C42.0728 8.39087 45.705 8.39087 49.3834 8.39087C49.3834 9.23127 49.3834 10.0651 49.3834 10.9385Z" fill="#02C0C2"/>
<path d="M52.3028 8.35339C53.163 8.35339 53.955 8.35339 54.8086 8.35339C54.8086 9.20039 54.8086 10.032 54.8086 10.9208C53.9924 10.9208 53.1608 10.9208 52.3028 10.9208C52.3028 10.0606 52.3028 9.21139 52.3028 8.35339Z" fill="#02C0C2"/>
<path d="M41.228 79.5851C41.228 78.7117 41.228 77.8977 41.228 77.0441C44.8778 77.0441 48.488 77.0441 52.1664 77.0441C52.1664 77.8603 52.1664 78.6941 52.1664 79.5851C48.5562 79.5851 44.924 79.5851 41.228 79.5851Z" fill="#02C0C2"/>
<path d="M32.9098 77.0485C32.9098 77.8977 32.9098 78.7095 32.9098 79.5829C32.0254 79.5829 31.1388 79.5829 30.1994 79.5829C30.1994 78.7579 30.1994 77.9263 30.1994 77.0485C31.0794 77.0485 31.9462 77.0485 32.9098 77.0485Z" fill="#02C0C2"/>
<path d="M63.0806 77.0419C63.0806 77.9109 63.0806 78.7249 63.0806 79.5895C62.2292 79.5895 61.3998 79.5895 60.522 79.5895C60.522 78.7447 60.522 77.9131 60.522 77.0419C61.3668 77.0419 62.1786 77.0419 63.0806 77.0419Z" fill="#02C0C2"/>
</svg>
