<svg width="88" height="88" viewBox="0 0 88 88" fill="none" xmlns="http://www.w3.org/2000/svg">
<path d="M54.6615 1.35376C56.1558 1.91899 56.7871 2.99191 56.694 4.58945C56.6212 5.82991 56.6788 7.07714 56.6788 8.30745C58.2915 8.59007 58.6858 8.86591 58.6841 9.67484C58.6825 10.4381 58.3592 10.6648 56.6788 11.0371C56.6788 12.3707 56.6838 13.7228 56.6771 15.0767C56.6686 16.9687 55.6397 17.9891 53.7325 18.001C52.9828 18.0061 52.2331 18.0179 51.4834 17.9976C49.9045 17.9519 48.8434 16.8722 48.818 15.2984C48.8078 14.7213 48.8163 14.1442 48.8163 13.5164C45.584 13.5164 42.4346 13.5164 39.1786 13.5164C39.1786 14.1391 39.1888 14.7416 39.1769 15.3424C39.1448 16.8316 38.1125 17.9248 36.6334 17.9891C35.7195 18.0298 34.8006 18.0264 33.8868 17.9908C32.4009 17.9316 31.3466 16.8468 31.3246 15.3644C31.3043 13.9242 31.3195 12.4841 31.3195 10.9915C30.3769 10.8527 29.2566 10.9491 29.3226 9.54791C29.3598 8.77791 29.7592 8.5393 31.3178 8.32268C31.3178 7.18714 31.3923 6.02791 31.2992 4.88053C31.1689 3.26945 31.6918 2.07807 33.1692 1.35376C34.5028 1.35376 35.8346 1.35376 37.1665 1.35376C39.3817 2.11868 39.2497 4.00053 39.1769 5.8113C42.4431 5.8113 45.606 5.8113 48.7605 5.8113C49.0685 2.23038 49.082 2.20161 50.8251 1.35376C52.1078 1.35376 53.3838 1.35376 54.6615 1.35376ZM36.6368 15.4625C36.6368 11.555 36.6368 7.74391 36.6368 3.90068C35.6925 3.90068 34.7955 3.90068 33.8834 3.90068C33.8834 7.77945 33.8834 11.6091 33.8834 15.4625C34.8226 15.4625 35.6975 15.4625 36.6368 15.4625ZM54.1268 15.4558C54.1268 11.5804 54.1268 7.74899 54.1268 3.90745C53.174 3.90745 52.2771 3.90745 51.3886 3.90745C51.3886 7.79299 51.3886 11.6244 51.3886 15.4558C52.3346 15.4558 53.2095 15.4558 54.1268 15.4558ZM48.7909 8.4293C45.5654 8.4293 42.4194 8.4293 39.2277 8.4293C39.2277 9.26699 39.2277 10.0573 39.2277 10.8984C42.4245 10.8984 45.5925 10.8984 48.7909 10.8984C48.7909 10.0624 48.7909 9.29068 48.7909 8.4293Z" fill="url(#paint0_linear_60_946)"/>
<path d="M86.6461 54.9948C85.9218 56.924 84.5121 57.6043 82.4881 57.5502C78.9935 57.4554 75.4955 57.5299 71.9992 57.5214C69.5961 57.5163 68.3269 56.2251 68.3252 53.8034C68.3235 50.1954 68.3252 46.5891 68.3252 42.9811C68.3252 42.8153 68.3185 42.6477 68.3286 42.4819C68.3777 41.7034 68.8668 41.1839 69.5572 41.172C70.2765 41.1602 70.8112 41.7017 70.818 42.5259C70.8349 44.6903 70.8248 46.8548 70.8248 49.0193C70.8248 49.3171 70.8248 49.615 70.8248 49.95C75.2857 49.95 79.6586 49.95 84.1077 49.95C84.1212 49.6793 84.1466 49.4119 84.1466 49.1462C84.1483 44.1793 84.15 39.2123 84.1483 34.2454C84.1483 33.1353 83.9994 32.9779 82.9112 32.9779C79.2761 32.9745 75.6411 32.9728 72.006 32.9779C71.0143 32.9796 70.8349 33.1623 70.8265 34.1371C70.8197 34.9139 70.84 35.6907 70.8197 36.4674C70.7977 37.295 70.2815 37.8382 69.564 37.8297C68.8465 37.8213 68.3489 37.2797 68.332 36.4403C68.3134 35.5248 68.3083 34.6076 68.3337 33.6937C68.3845 31.8965 69.7146 30.5105 71.5034 30.4953C75.4989 30.4614 79.4945 30.4682 83.49 30.4936C85.1637 30.5054 86.0555 31.5885 86.6461 33.005C86.6461 40.3343 86.6461 47.6654 86.6461 54.9948ZM70.8231 52.5088C70.8231 52.9437 70.8214 53.3719 70.8231 53.8C70.8298 54.851 70.9872 55.0185 72.0246 55.0219C73.9386 55.0287 75.8526 55.0236 77.7666 55.0236C79.5418 55.0236 81.3171 55.0185 83.0923 55.0253C83.6152 55.027 84.0705 54.9136 84.1229 54.3145C84.1754 53.7222 84.1348 53.1214 84.1348 52.5088C79.6688 52.5088 75.3161 52.5088 70.8231 52.5088Z" fill="url(#paint1_linear_60_946)"/>
<path d="M43.1674 86.646C40.3666 85.4547 38.5 83.1497 36.5352 80.992C34.7888 79.0747 33.3469 76.9322 32.8156 74.3193C32.2334 71.461 33.4468 68.7228 35.9074 67.2742C38.3325 65.8459 41.2856 66.1116 43.5059 67.9579C43.6531 68.0797 43.7969 68.2084 43.7682 68.1847C45.0949 67.5873 46.2609 66.7919 47.5353 66.5364C52.4108 65.5548 56.3776 69.9599 55.0812 74.8067C54.3739 77.45 52.8068 79.6044 50.9757 81.559C49.6692 82.9517 48.2613 84.2548 46.8262 85.5156C46.2643 86.0097 45.5045 86.2771 44.8343 86.6477C44.2776 86.646 43.7225 86.646 43.1674 86.646ZM35.1662 73.292C35.2136 74.541 35.9074 75.8931 36.7519 77.1742C38.4171 79.7008 40.5765 81.7739 42.878 83.7014C43.6514 84.3496 44.4214 84.336 45.2049 83.627C46.5199 82.4373 47.8297 81.234 49.0516 79.953C50.4325 78.5044 51.7051 76.9322 52.3532 75.0114C52.6612 74.0993 52.8356 73.045 52.7137 72.1024C52.4937 70.4016 51.1297 69.2288 49.4137 68.9242C47.8212 68.6416 46.2068 69.3777 45.3048 70.8416C44.9342 71.444 44.5111 72.0262 43.7462 71.769C43.3316 71.6285 42.9576 71.1919 42.6986 70.801C41.6663 69.244 39.8268 68.513 38.0634 69.0291C36.344 69.53 35.1543 71.1394 35.1662 73.292Z" fill="url(#paint2_linear_60_946)"/>
<path d="M1.35385 42.5006C1.46554 42.0217 1.56708 41.5394 1.68893 41.0621C2.71954 37.0141 4.82985 33.7023 8.31431 31.3195C9.95754 30.1958 11.5822 30.2364 13.1746 31.394C13.8228 31.8661 14.4523 32.3738 15.0379 32.9204C15.6268 33.4704 15.6369 34.166 15.1512 34.6957C14.6791 35.2118 13.9649 35.2338 13.3591 34.7414C12.9292 34.391 12.5299 34.0001 12.0831 33.6752C10.8612 32.7817 10.472 32.7597 9.27893 33.6718C6.69816 35.6434 4.9737 38.2174 4.19524 41.3634C3.02247 46.0934 5.48477 51.9572 9.60724 54.5735C10.4466 55.1066 11.1083 55.0084 11.8851 54.4855C16.7099 51.2397 18.7034 44.8681 16.5508 39.4815C16.5406 39.4561 16.5322 39.429 16.522 39.4037C16.1565 38.4712 16.3426 37.8129 17.0619 37.4964C17.8048 37.1715 18.4377 37.515 18.8455 38.4847C19.9946 41.2195 20.3652 44.0423 19.6646 46.948C18.7406 50.776 16.7403 53.9372 13.5875 56.3149C11.44 57.9344 9.90677 57.9378 7.76939 56.3047C4.36277 53.7037 2.29139 50.2615 1.51801 46.0409C1.48416 45.8564 1.41139 45.6804 1.35554 45.501C1.35385 44.4992 1.35385 43.5007 1.35385 42.5006Z" fill="url(#paint3_linear_60_946)"/>
<path d="M50.534 43.2976C51.37 43.2976 52.0029 43.2603 52.6308 43.3043C55.9105 43.5362 58.5657 46.2422 58.6672 49.5219C58.7315 51.6017 58.7197 53.6866 58.6757 55.7665C58.6351 57.6636 57.1695 59.1443 55.2725 59.1799C52.5258 59.2306 49.7758 59.2069 47.0275 59.1934C46.222 59.19 45.7075 58.7128 45.672 58.0257C45.6365 57.3065 46.1577 56.7412 46.9852 56.7159C48.2291 56.6786 49.4746 56.7057 50.8285 56.7057C50.8285 56.0406 50.8217 55.4399 50.8301 54.8391C50.8437 53.932 51.3125 53.3668 52.0503 53.3499C52.8152 53.3329 53.3128 53.9202 53.3263 54.8712C53.3348 55.4483 53.328 56.0254 53.328 56.5991C53.4701 56.6448 53.5446 56.6871 53.6208 56.6905C56.1068 56.8022 56.1981 56.7159 56.1981 54.2282C56.1981 52.8405 56.21 51.4511 56.1948 50.0634C56.166 47.5165 54.5211 45.7886 51.9961 45.7717C46.6671 45.7379 41.3363 45.7379 36.0055 45.7717C33.4772 45.7886 31.8289 47.5148 31.8052 50.06C31.7883 51.754 31.7985 53.4463 31.8018 55.1403C31.8052 56.4265 32.0777 56.6939 33.374 56.7006C33.7615 56.7023 34.1491 56.7006 34.6703 56.7006C34.6703 56.1794 34.6703 55.6937 34.6703 55.208C34.672 53.954 35.0968 53.3329 35.9412 53.3499C36.762 53.3651 37.1665 53.9659 37.1681 55.1674C37.1681 55.6362 37.1681 56.1049 37.1681 56.7006C38.1192 56.7006 39.0212 56.7006 39.9232 56.7006C40.2837 56.7006 40.6458 56.6837 41.0063 56.7091C41.8338 56.77 42.3585 57.3031 42.3246 58.0206C42.2925 58.7077 41.7763 59.1832 40.9725 59.1917C39.1397 59.2103 37.3086 59.2002 35.4758 59.1985C34.5874 59.1985 33.6989 59.2171 32.8105 59.1883C30.8186 59.1223 29.3514 57.6737 29.3158 55.6852C29.2786 53.6866 29.2718 51.6863 29.3209 49.6894C29.4072 46.2202 32.0625 43.5023 35.53 43.2891C36.0817 43.2552 36.6385 43.284 37.4491 43.284C35.1171 40.7709 33.9578 38.0192 34.452 34.7429C34.9461 31.4683 36.6757 29.0348 39.5966 27.51C43.648 25.3946 48.6352 26.476 51.4885 29.9892C54.1234 33.2368 54.9052 38.6792 50.534 43.2976ZM44.1235 28.9417C40.2329 28.852 36.9346 31.9879 36.8432 35.8616C36.7468 39.8977 39.8877 43.174 43.9188 43.2451C47.7975 43.3145 51.0823 40.1516 51.1601 36.2762C51.238 32.2756 48.1275 29.0331 44.1235 28.9417Z" fill="url(#paint4_linear_60_946)"/>
<path d="M15.4829 27.8706C14.2374 27.8723 13.6451 26.9771 14.0428 26.1225C14.2628 25.6486 14.5742 25.2154 14.8652 24.7771C17.4578 20.8729 20.6969 17.6085 24.5858 14.9922C24.7923 14.8534 24.9954 14.7045 25.2103 14.5809C25.9042 14.1799 26.5692 14.2949 26.9771 14.8771C27.39 15.466 27.2326 16.1886 26.5608 16.6828C25.5572 17.4206 24.5097 18.1043 23.5417 18.8862C20.7138 21.1691 18.3615 23.8768 16.4188 26.95C16.1514 27.3748 15.6877 27.676 15.4829 27.8706Z" fill="url(#paint5_linear_60_946)"/>
<path d="M27.4002 72.3851C27.0786 72.8167 26.8925 73.3176 26.5642 73.4394C26.1631 73.59 25.52 73.5951 25.1934 73.3633C23.5908 72.2294 21.9949 71.0685 20.5142 69.7823C18.0078 67.606 15.9568 65.0253 14.2103 62.2025C13.8955 61.6931 13.7145 61.1211 14.1562 60.671C14.4422 60.3782 14.9566 60.1785 15.3678 60.1802C15.6725 60.1819 16.0837 60.5068 16.2648 60.7996C18.9065 65.0642 22.3232 68.5588 26.5185 71.3054C26.8518 71.5254 27.0515 71.9485 27.4002 72.3851Z" fill="url(#paint6_linear_60_946)"/>
<path d="M61.9131 73.8116C61.5611 73.5002 61.0703 73.2616 60.9451 72.8977C60.8165 72.5288 60.9874 72.011 61.1448 71.6031C61.2294 71.3848 61.5526 71.2494 61.7828 71.0971C65.7445 68.4673 68.9937 65.147 71.5169 61.1142C71.6337 60.9264 71.742 60.7267 71.8892 60.5642C72.3377 60.0684 72.8945 59.9651 73.4648 60.2917C74.0418 60.6217 74.2178 61.1582 73.9928 61.7911C73.92 61.9959 73.7948 62.1871 73.678 62.3733C70.9398 66.7699 67.3978 70.3847 63.0757 73.2328C62.7609 73.4376 62.3988 73.5713 61.9131 73.8116Z" fill="url(#paint7_linear_60_946)"/>
<path d="M74.2195 26.7535C73.9318 27.0954 73.7034 27.6115 73.3463 27.7249C72.9503 27.8502 72.4138 27.6657 71.984 27.4999C71.7691 27.4169 71.6455 27.0802 71.4983 26.8466C68.9801 22.8477 65.7563 19.5392 61.8166 16.928C61.7015 16.8519 61.5831 16.7791 61.4714 16.6979C60.7809 16.1935 60.6049 15.5149 61.006 14.9074C61.4155 14.288 62.1246 14.134 62.8235 14.6163C64.0081 15.4337 65.1928 16.2612 66.3046 17.1717C69.2458 19.5782 71.698 22.4263 73.6932 25.6603C73.8777 25.9599 74.0012 26.2966 74.2195 26.7535Z" fill="url(#paint8_linear_60_946)"/>
<path d="M13.2677 41.2921C12.9749 41.7169 12.8277 42.1823 12.5417 42.2957C11.9291 42.5393 11.8885 42.9455 11.924 43.4718C11.9494 43.8577 11.9477 44.2486 11.924 44.6361C11.8952 45.1117 11.9816 45.4129 12.4926 45.6667C13.3168 46.078 13.3185 47.2592 12.5146 47.711C12.0966 47.9463 11.9206 48.173 11.8936 48.6452C11.8529 49.3594 11.3825 49.7689 10.692 49.7757C10.0016 49.7824 9.53109 49.3797 9.47017 48.6655C9.43124 48.2154 9.30601 47.9564 8.86432 47.7195C8.04694 47.2812 8.03171 46.0932 8.85248 45.6769C9.39401 45.401 9.45832 45.0575 9.43463 44.5684C9.41771 44.208 9.41263 43.8458 9.43632 43.487C9.47186 42.9641 9.3974 42.6037 8.83217 42.3058C7.99109 41.8624 8.11124 40.7438 8.9354 40.1854C9.16217 40.033 9.36694 39.7318 9.42448 39.4661C9.59032 38.6741 10.0523 38.1529 10.7174 38.2138C11.4536 38.2798 11.8259 38.7181 11.9392 39.4577C11.9799 39.7217 12.2337 39.9586 12.408 40.1938C12.672 40.5475 12.9529 40.891 13.2677 41.2921Z" fill="url(#paint9_linear_60_946)"/>
<defs>
<linearGradient id="paint0_linear_60_946" x1="32.9851" y1="4.21535" x2="44.2863" y2="21.2385" gradientUnits="userSpaceOnUse">
<stop stop-color="#02C0C2"/>
<stop offset="1" stop-color="#164A9E"/>
</linearGradient>
<linearGradient id="paint1_linear_60_946" x1="70.6042" y1="35.1224" x2="87.881" y2="45.1189" gradientUnits="userSpaceOnUse">
<stop stop-color="#02C0C2"/>
<stop offset="1" stop-color="#164A9E"/>
</linearGradient>
<linearGradient id="paint2_linear_60_946" x1="35.4997" y1="69.8456" x2="50.411" y2="84.0834" gradientUnits="userSpaceOnUse">
<stop stop-color="#02C0C2"/>
<stop offset="1" stop-color="#164A9E"/>
</linearGradient>
<linearGradient id="paint3_linear_60_946" x1="3.68366" y1="35.142" x2="21.0978" y2="45.4223" gradientUnits="userSpaceOnUse">
<stop stop-color="#02C0C2"/>
<stop offset="1" stop-color="#164A9E"/>
</linearGradient>
<linearGradient id="paint4_linear_60_946" x1="32.959" y1="32.0595" x2="56.259" y2="49.9396" gradientUnits="userSpaceOnUse">
<stop stop-color="#02C0C2"/>
<stop offset="1" stop-color="#164A9E"/>
</linearGradient>
<linearGradient id="paint5_linear_60_946" x1="15.5782" y1="16.6669" x2="25.3813" y2="24.897" gradientUnits="userSpaceOnUse">
<stop stop-color="#02C0C2"/>
<stop offset="1" stop-color="#164A9E"/>
</linearGradient>
<linearGradient id="paint6_linear_60_946" x1="15.5789" y1="62.4753" x2="25.3099" y2="70.8819" gradientUnits="userSpaceOnUse">
<stop stop-color="#02C0C2"/>
<stop offset="1" stop-color="#164A9E"/>
</linearGradient>
<linearGradient id="paint7_linear_60_946" x1="62.5459" y1="62.4574" x2="72.4433" y2="70.597" gradientUnits="userSpaceOnUse">
<stop stop-color="#02C0C2"/>
<stop offset="1" stop-color="#164A9E"/>
</linearGradient>
<linearGradient id="paint8_linear_60_946" x1="62.47" y1="16.6389" x2="72.2342" y2="24.9804" gradientUnits="userSpaceOnUse">
<stop stop-color="#02C0C2"/>
<stop offset="1" stop-color="#164A9E"/>
</linearGradient>
<linearGradient id="paint9_linear_60_946" x1="8.8711" y1="40.1952" x2="14.4257" y2="42.2575" gradientUnits="userSpaceOnUse">
<stop stop-color="#02C0C2"/>
<stop offset="1" stop-color="#164A9E"/>
</linearGradient>
</defs>
</svg>
