<svg width="88" height="88" viewBox="0 0 88 88" fill="none" xmlns="http://www.w3.org/2000/svg">
<path d="M58.669 69.6483C58.669 72.5427 58.6758 75.2904 58.6644 78.0381C58.6621 78.6362 58.6644 79.2527 58.5383 79.8325C57.9448 82.5641 55.676 84.3242 52.7267 84.3425C49.5183 84.3631 46.3077 84.3471 43.0971 84.3471C33.2108 84.3471 23.3246 84.3516 13.4383 84.3448C10.395 84.3425 8.12625 82.6512 7.48916 79.8989C7.36083 79.3489 7.34708 78.7623 7.34708 78.1939C7.3402 55.3896 7.3402 32.5829 7.3425 9.77853C7.3425 5.9904 9.71895 3.63915 13.5323 3.63686C26.5146 3.63228 39.4946 3.63228 52.4769 3.63686C56.2925 3.63915 58.6552 5.98811 58.6667 9.78082C58.6735 12.2742 58.669 14.7652 58.669 17.2585C58.669 17.5702 58.669 17.8796 58.669 18.3333C59.0677 18.3333 59.3977 18.3333 59.7277 18.3333C64.829 18.3333 69.9302 18.3287 75.0314 18.3356C78.5469 18.3402 80.6758 20.4394 80.6781 23.925C80.685 37.3037 80.6827 50.6848 80.6781 64.0635C80.6781 66.8869 79.1679 68.9356 76.6448 69.5154C76.0948 69.6414 75.5081 69.6437 74.9375 69.646C69.8935 69.6552 64.8496 69.6506 59.8056 69.6506C59.4687 69.6483 59.1319 69.6483 58.669 69.6483ZM77.0252 29.3333C76.5829 29.3333 76.2437 29.3333 75.9046 29.3333C70.3473 29.3333 64.7877 29.3242 59.2304 29.3379C56.9158 29.3425 55.2177 28.3777 54.191 26.2785C53.5998 25.0708 52.9696 23.8814 52.4058 22.6623C52.1721 22.1558 51.8902 21.9679 51.3081 21.9702C44.6623 21.9954 38.0142 21.9839 31.366 21.9862C29.8558 21.9862 29.354 22.4812 29.354 23.9892C29.3517 37.3083 29.3517 50.6275 29.354 63.9489C29.354 65.5119 29.8467 65.9954 31.4096 65.9954C45.9067 65.9954 60.4037 65.9954 74.9008 65.9954C76.56 65.9954 77.0252 65.521 77.0252 63.8321C77.0252 52.6602 77.0252 41.4906 77.0252 30.3187C77.0252 30.0346 77.0252 29.7527 77.0252 29.3333ZM54.9908 69.6483C54.5737 69.6483 54.2346 69.6483 53.8977 69.6483C46.4177 69.6483 38.94 69.6506 31.46 69.6414C30.8619 69.6414 30.2454 69.6323 29.6702 69.4948C27.1562 68.8921 25.6575 66.8319 25.6552 64.0154C25.6506 50.7214 25.6919 37.4298 25.6277 24.1358C25.6117 20.6387 28.0752 18.2462 31.46 18.2967C38.9652 18.4067 46.475 18.331 53.9825 18.331C54.3125 18.331 54.6425 18.331 55.0137 18.331C55.0137 15.3289 55.0206 12.4644 55.0115 9.60207C55.0069 8.11478 54.2277 7.34707 52.7152 7.33332C51.0239 7.31728 49.3327 7.34707 47.6437 7.31728C47.1465 7.30811 46.8783 7.47082 46.6606 7.92228C45.7921 9.72582 44.864 11.5019 43.9931 13.3054C43.5417 14.2381 42.8656 14.6483 41.8183 14.6437C35.9448 14.6208 30.069 14.6208 24.1954 14.6437C23.1481 14.6483 22.4698 14.2427 22.0183 13.3077C21.1498 11.5042 20.2217 9.72811 19.3508 7.92457C19.1331 7.4754 18.8673 7.30582 18.3677 7.31728C16.7933 7.34707 15.2167 7.32644 13.64 7.32874C11.6669 7.33332 10.9954 7.99561 10.9954 9.94353C10.9954 30.7427 10.9954 51.5419 10.9954 72.341C10.9954 72.6458 10.9954 72.9529 10.9954 73.2806C25.7194 73.2806 40.3425 73.2806 54.9908 73.2806C54.9908 72.0729 54.9908 70.9317 54.9908 69.6483ZM54.9542 77.0596C40.2875 77.0596 25.6621 77.0596 11.0435 77.0596C10.7869 79.5667 11.236 80.6987 14.2656 80.6827C26.7598 80.6094 39.254 80.6139 51.7481 80.6804C54.7112 80.6964 55.1879 79.6744 54.9977 77.1994C54.9954 77.1696 54.9817 77.1444 54.9542 77.0596ZM56.155 21.9839C56.6064 22.8892 57.0419 23.6569 57.381 24.4635C57.7569 25.3619 58.3733 25.6575 59.3267 25.6506C64.9115 25.6185 70.4962 25.6346 76.081 25.6346C76.3812 25.6346 76.6814 25.6346 77.0275 25.6346C77.0275 25.0158 77.0275 24.5323 77.0275 24.0487C77.0229 22.4881 76.5279 21.9839 74.981 21.9839C68.9952 21.9817 63.0094 21.9839 57.0235 21.9839C56.7783 21.9839 56.5331 21.9839 56.155 21.9839ZM42.8221 7.40894C36.2358 7.40894 29.7504 7.40894 23.1871 7.40894C23.7417 8.52499 24.2275 9.55853 24.7775 10.5554C24.8921 10.7639 25.2473 10.9633 25.4925 10.9633C30.4998 10.9862 35.5048 10.9839 40.5121 10.9702C40.7321 10.9702 41.0667 10.8739 41.1515 10.7158C41.729 9.64332 42.256 8.54561 42.8221 7.40894Z" fill="#164A9E"/>
<path d="M51.3402 62.3425C46.0717 62.3425 40.8008 62.3425 35.5323 62.3425C33.8937 62.3425 33.0389 61.726 33.0137 60.532C32.9862 59.3129 33.8777 58.646 35.5414 58.646C46.0808 58.646 56.6202 58.6437 67.1596 58.6506C67.5858 58.6506 68.0258 58.6689 68.4314 58.7812C69.2129 58.9966 69.6873 59.7139 69.6621 60.5389C69.6369 61.3777 69.2129 61.9597 68.4223 62.2027C68.0212 62.3264 67.5767 62.3333 67.1504 62.3356C61.8796 62.3447 56.6087 62.3425 51.3402 62.3425Z" fill="#02C0C2"/>
<path d="M44.0412 51.3425C47.0456 51.3425 50.05 51.3242 53.0521 51.3494C54.5692 51.3631 55.4606 52.7404 54.7983 53.9917C54.4477 54.654 53.8679 54.9885 53.1185 54.9885C47.0525 54.9908 40.9887 54.9977 34.9227 54.984C33.8204 54.9817 33.0298 54.2002 33.0092 53.1919C32.9885 52.1423 33.7746 51.3562 34.941 51.3471C37.9752 51.3287 41.0094 51.3425 44.0412 51.3425Z" fill="#02C0C2"/>
<path d="M58.0456 38.4588C57.1931 37.6613 56.4437 37.0013 55.7379 36.2954C54.8396 35.3948 54.78 34.3384 55.5385 33.5592C56.3246 32.7502 57.4039 32.8052 58.3389 33.7242C59.4435 34.8081 60.5389 35.9013 61.6206 37.0058C62.5808 37.9844 62.5969 38.9675 61.655 39.9392C60.5367 41.0896 59.4023 42.224 58.2496 43.34C57.3902 44.1719 56.3223 44.1948 55.5683 43.45C54.8144 42.7052 54.8258 41.619 55.6462 40.7711C56.3635 40.0309 57.1289 39.3388 58.0456 38.4588Z" fill="#02C0C2"/>
<path d="M37.345 38.5092C38.1402 39.2655 38.8552 39.9186 39.5381 40.6038C40.5121 41.5777 40.5923 42.68 39.7787 43.4684C38.9858 44.2361 37.9133 44.149 36.9737 43.2209C35.8966 42.1552 34.8242 41.085 33.7608 40.0057C32.7502 38.979 32.7341 38.028 33.7219 37.0196C34.8219 35.8967 35.9333 34.7852 37.0585 33.6852C37.95 32.8144 39.0317 32.7686 39.7971 33.5363C40.5671 34.3063 40.5189 35.3788 39.6389 36.2771C38.94 36.9875 38.2089 37.6705 37.345 38.5092Z" fill="#02C0C2"/>
<path d="M51.3402 34.9502C51.2944 35.106 51.2554 35.3994 51.1316 35.6491C49.9262 38.0806 48.7162 40.5098 47.4902 42.9321C47.1212 43.6631 46.4956 44.0458 45.6706 43.9679C44.8891 43.8946 44.3139 43.4546 44.1237 42.6891C44.0275 42.2996 44.0183 41.7977 44.1856 41.4516C45.4002 38.9285 46.6514 36.4237 47.9302 33.935C48.3312 33.1535 49.1975 32.835 49.9721 33.0504C50.7741 33.2704 51.3402 34.0083 51.3402 34.9502Z" fill="#02C0C2"/>
<path d="M40.3379 27.4794C40.3402 28.4831 39.4694 29.3402 38.4702 29.3173C37.4985 29.2944 36.6804 28.4602 36.6758 27.4908C36.6712 26.4871 37.5421 25.63 38.5435 25.6529C39.5198 25.6758 40.3356 26.5077 40.3379 27.4794Z" fill="#02C0C2"/>
<path d="M47.6506 27.4839C47.6506 28.5152 46.8119 29.3471 45.799 29.3196C44.8204 29.2921 44.0161 28.4648 44.0161 27.4862C44.0161 26.4733 44.8777 25.6277 45.8838 25.6552C46.8761 25.6804 47.6506 26.4848 47.6506 27.4839Z" fill="#02C0C2"/>
</svg>
