<svg width="88" height="88" viewBox="0 0 88 88" fill="none" xmlns="http://www.w3.org/2000/svg">
<path d="M6.91138 55.9222C8.16538 55.9222 9.42954 55.9222 10.7529 55.9222C10.7529 56.8191 10.7529 57.6568 10.7529 58.5588C9.49046 58.5588 8.228 58.5588 6.89784 58.5588C6.89784 61.671 6.89784 64.7222 6.89784 67.831C7.74061 67.831 8.60877 67.831 9.54123 67.831C9.25692 64.8677 10.0422 62.248 12.122 60.0903C13.7195 58.4336 15.6978 57.5028 17.9842 57.3031C22.1506 56.9376 26.8417 59.4557 28.0652 65.0793C28.0652 59.8517 28.0652 54.6242 28.0652 49.3493C28.9588 49.3493 29.7778 49.3493 30.6883 49.3493C30.6883 55.4754 30.6883 61.6253 30.6883 67.831C36.9583 67.831 43.1369 67.831 49.3765 67.831C49.0922 64.7374 49.9417 62.0297 52.1992 59.8585C54.0151 58.1137 56.2151 57.2794 58.7349 57.2693C63.0114 57.2507 68.3929 60.8147 67.9038 67.8885C68.2897 67.8885 68.6705 67.897 69.0512 67.8868C70.0717 67.8597 70.5608 67.374 70.5642 66.3333C70.5743 63.6222 70.5675 60.9128 70.5675 58.2017C70.5675 57.9293 70.5675 57.6551 70.5675 57.3251C71.4526 57.3251 72.2903 57.3251 73.2228 57.3251C73.2228 58.376 73.2228 59.4185 73.2228 60.461C73.2228 62.424 73.2312 64.3888 73.2211 66.3519C73.2075 68.8345 71.5271 70.603 69.0614 70.5116C67.6771 70.4608 66.8766 70.8348 66.0254 72.0431C62.1991 77.4771 53.9846 77.0083 50.6406 71.246C50.3072 70.6707 49.9586 70.5302 49.3494 70.5319C42.2129 70.5505 35.0748 70.5505 27.9383 70.5302C27.3714 70.5285 27.0769 70.7045 26.7892 71.2003C23.1863 77.4145 14.3017 77.3857 10.7343 71.1428C10.45 70.6453 10.1538 70.5133 9.636 70.5336C8.72385 70.5674 7.81 70.5573 6.89784 70.5387C5.30877 70.5082 4.18169 69.3963 4.17661 67.8056C4.16138 63.5748 4.15292 59.3423 4.18169 55.1099C4.19354 53.4074 5.016 52.1467 6.57969 51.4494C7.86415 50.8757 9.19938 50.412 10.4805 49.8316C10.8325 49.6725 11.1997 49.3205 11.3435 48.9685C12.7938 45.4451 14.2002 41.9031 15.6166 38.3662C16.3985 36.4133 16.9755 36.0257 19.1129 36.024C22.0169 36.0223 24.9226 36.0173 27.8266 36.0122C27.8774 36.0122 27.9265 35.98 28.0737 35.9293C28.0737 33.9256 28.0652 31.888 28.0805 29.8522C28.0838 29.3597 28.1109 28.852 28.2294 28.3765C28.6271 26.7705 30.008 25.5385 31.6478 25.4403C33.0762 25.354 34.5129 25.4217 35.9937 25.4217C35.9937 26.2848 35.9937 27.1039 35.9937 28.0583C35.0392 28.0583 34.0577 28.0583 33.0745 28.0583C30.9625 28.0583 30.7306 28.2868 30.7306 30.3616C30.7306 35.4503 30.7306 40.5391 30.7306 45.6296C30.7306 45.9291 30.7306 46.2303 30.7306 46.5857C29.8388 46.5857 29.0011 46.5857 28.0957 46.5857C28.0957 43.9745 28.0957 41.3853 28.0957 38.7334C27.7978 38.7131 27.5592 38.6827 27.3223 38.6827C24.5842 38.6793 21.8443 38.703 19.1062 38.6623C18.4918 38.6539 18.2262 38.8705 18.0535 39.4137C17.8538 40.0365 17.5831 40.6373 17.3072 41.3345C19.0977 41.3345 20.7798 41.3294 22.462 41.3362C24.3269 41.343 25.4083 42.4108 25.4168 44.2571C25.4235 45.8885 25.4303 47.5216 25.4151 49.153C25.3998 50.847 24.2965 51.9453 22.5923 51.952C19.5225 51.9639 16.4509 51.9368 13.3811 51.9707C12.7668 51.9774 12.1288 52.1111 11.5466 52.3142C10.4009 52.7136 9.284 53.1993 8.15692 53.6528C6.908 54.1588 6.71846 54.4922 6.91138 55.9222ZM18.7762 59.9245C15.1072 59.9279 12.1305 62.9165 12.1406 66.5837C12.1508 70.2154 15.1191 73.1905 18.7389 73.199C22.4485 73.2091 25.4354 70.2103 25.4168 66.4957C25.3998 62.881 22.4078 59.9211 18.7762 59.9245ZM65.2537 66.6243C65.2892 62.991 62.3565 59.9736 58.7434 59.9245C55.0575 59.8754 52.0198 62.8082 51.9792 66.4534C51.9386 70.1376 54.8815 73.1685 58.5302 73.1973C62.2109 73.2294 65.2198 70.2882 65.2537 66.6243ZM22.7175 49.2647C22.7175 47.4657 22.7175 45.7633 22.7175 43.9931C20.6326 43.9931 18.5951 43.9897 16.5558 44.0016C16.4188 44.0033 16.2038 44.0997 16.1598 44.208C15.4745 45.875 14.8128 47.552 14.1308 49.263C17.0568 49.2647 19.8677 49.2647 22.7175 49.2647Z" fill="url(#paint0_linear_52_904)"/>
<path d="M62.5917 22.7174C61.6796 22.7174 60.8605 22.7174 59.9686 22.7174C59.9686 21.7054 59.9686 20.7222 59.9686 19.607C59.2968 19.9319 58.7316 20.1976 58.1714 20.4751C56.2929 21.4093 54.4094 22.335 52.5496 23.3047C52.2957 23.4367 52.0046 23.8056 52.0012 24.0679C51.964 27.219 51.9792 30.3717 51.9826 33.5245C51.9826 33.599 52.0165 33.6734 52.0571 33.8342C52.9963 33.3688 53.9051 32.9203 54.8122 32.4685C56.3437 31.7036 57.8871 30.9607 59.3949 30.15C59.6572 30.0096 59.9077 29.5899 59.9212 29.2887C59.9788 28.0262 59.9466 26.7587 59.9466 25.4488C60.8368 25.4488 61.6559 25.4488 62.5172 25.4488C62.5172 27.1343 62.5816 28.8351 62.4902 30.5274C62.4462 31.3347 61.8369 31.91 61.1059 32.2773C58.0462 33.8122 54.9814 35.3387 51.9217 36.8719C51.0383 37.3153 50.1736 37.2747 49.2986 36.8347C46.3117 35.3353 43.3214 33.8443 40.3311 32.3517C39.2345 31.8034 38.6946 30.9285 38.698 29.6931C38.7082 25.9328 38.7048 22.1725 38.6997 18.4122C38.698 17.2123 39.2345 16.3527 40.2989 15.8196C43.3129 14.3117 46.3303 12.8123 49.3426 11.3011C50.1905 10.8763 51.0332 10.8374 51.8879 11.2656C54.9746 12.809 58.0648 14.3456 61.1465 15.8991C62.0282 16.3442 62.5494 17.0939 62.5799 18.0771C62.6272 19.5934 62.5917 21.1131 62.5917 22.7174ZM41.4362 19.634C41.3956 19.7897 41.36 19.8642 41.36 19.9387C41.3566 23.0897 41.3414 26.2408 41.3786 29.3919C41.382 29.6559 41.668 30.0248 41.9219 30.1568C43.5329 31.0047 45.1728 31.8017 46.8025 32.614C47.608 33.0151 48.4152 33.4145 49.3206 33.8647C49.3206 30.4716 49.3257 27.2139 49.3088 23.9579C49.3071 23.7802 49.1734 23.5196 49.0228 23.4383C48.2832 23.0305 47.5183 22.67 46.6485 22.2351C46.6485 23.3673 46.6485 24.3505 46.6485 25.3523C45.7397 25.3523 44.902 25.3523 44.0102 25.3523C44.0102 24.0323 44.0237 22.7648 43.9983 21.4973C43.9932 21.257 43.9019 20.8999 43.7326 20.8017C43.0016 20.3753 42.2265 20.0267 41.4362 19.634ZM52.9845 14.7856C52.3583 14.4674 51.8912 14.2813 51.4817 14.0088C50.9029 13.623 50.4122 13.7008 49.8131 14.0139C47.7857 15.0783 45.7245 16.0768 43.6785 17.104C43.4991 17.1937 43.34 17.3207 43.1386 17.451C45.1965 18.6863 45.1965 18.6863 47.2137 17.676C49.0803 16.7402 50.9486 15.806 52.9845 14.7856ZM48.3476 20.091C48.9703 20.4125 49.4662 20.6342 49.9248 20.9151C50.4206 21.218 50.842 21.2163 51.37 20.9287C52.6037 20.2551 53.8814 19.6594 55.1388 19.0282C56.1389 18.5273 57.134 18.0179 58.2729 17.4425C57.6519 17.121 57.156 16.8993 56.6974 16.6183C56.2016 16.3137 55.7768 16.3137 55.2522 16.6048C54.1674 17.2056 53.0386 17.7268 51.9302 18.2836C50.7811 18.859 49.6354 19.4394 48.3476 20.091Z" fill="url(#paint1_linear_52_904)"/>
<path d="M73.2075 41.387C73.2075 42.2636 73.2075 43.0623 73.2075 43.9254C66.1625 43.9254 59.1309 43.9254 52.0385 43.9254C52.0385 43.1148 52.0385 42.2754 52.0385 41.387C59.07 41.387 66.1015 41.387 73.2075 41.387Z" fill="url(#paint2_linear_52_904)"/>
<path d="M65.296 49.246C65.296 48.366 65.296 47.547 65.296 46.689C71.4611 46.689 77.5889 46.689 83.7811 46.689C83.7811 47.5114 83.7811 48.3508 83.7811 49.246C77.6515 49.246 71.5068 49.246 65.296 49.246Z" fill="url(#paint3_linear_52_904)"/>
<path d="M78.4977 52.0146C78.4977 52.8913 78.4977 53.7086 78.4977 54.57C72.3326 54.57 66.2064 54.57 60.0126 54.57C60.0126 53.751 60.0126 52.9133 60.0126 52.0146C66.1371 52.0146 72.2835 52.0146 78.4977 52.0146Z" fill="url(#paint4_linear_52_904)"/>
<path d="M36.9989 47.5352C36.3812 46.9074 35.7906 46.3066 35.1797 45.6855C36.5048 44.3486 37.8045 42.9964 39.1515 41.695C39.7066 41.1586 40.3937 41.1924 40.9437 41.7255C42.2705 43.0117 43.5583 44.3367 44.8969 45.6804C44.2471 46.2643 43.6209 46.8278 42.8932 47.481C42.5446 47.036 42.1029 46.4707 41.6595 45.9055C41.5732 45.958 41.4852 46.0087 41.3989 46.0612C41.3989 47.9921 41.3989 49.9247 41.3989 51.9064C40.4597 51.9064 39.6237 51.9064 38.7217 51.9064C38.7217 49.962 38.7217 48.0395 38.7217 45.9055C38.0668 46.5249 37.5438 47.019 36.9989 47.5352Z" fill="url(#paint5_linear_52_904)"/>
<path d="M65.296 28.0601C65.296 27.1615 65.296 26.3424 65.296 25.5572C66.9646 25.5572 68.6535 25.3829 70.2883 25.6063C71.9417 25.8313 73.1669 27.4204 73.1974 29.089C73.2549 32.235 73.2143 35.381 73.2143 38.5947C72.3529 38.5947 71.5152 38.5947 70.5692 38.5947C70.5692 38.3019 70.5692 38.0092 70.5692 37.7164C70.5692 35.0663 70.5726 32.4161 70.5675 29.7643C70.5658 28.517 70.1157 28.0669 68.8752 28.0618C67.694 28.055 66.5145 28.0601 65.296 28.0601Z" fill="url(#paint6_linear_52_904)"/>
<path d="M75.922 43.9425C75.922 43.0963 75.922 42.2806 75.922 41.3989C76.7495 41.3989 77.5872 41.3989 78.4808 41.3989C78.4808 42.2197 78.4808 43.0557 78.4808 43.9425C77.6363 43.9425 76.8003 43.9425 75.922 43.9425Z" fill="url(#paint7_linear_52_904)"/>
<path d="M62.5612 46.6941C62.5612 47.547 62.5612 48.3627 62.5612 49.241C61.7269 49.241 60.8909 49.241 59.9991 49.241C59.9991 48.4135 59.9991 47.5775 59.9991 46.6941C60.8283 46.6941 61.6457 46.6941 62.5612 46.6941Z" fill="url(#paint8_linear_52_904)"/>
<path d="M51.9166 51.925C51.0501 51.925 50.2328 51.925 49.3697 51.925C49.3697 51.0551 49.3697 50.2191 49.3697 49.3425C50.2209 49.3425 51.0383 49.3425 51.9166 49.3425C51.9166 50.1751 51.9166 51.0111 51.9166 51.925Z" fill="url(#paint9_linear_52_904)"/>
<path d="M83.7862 59.8906C82.9197 59.8906 82.1023 59.8906 81.2392 59.8906C81.2392 59.0207 81.2392 58.1847 81.2392 57.3081C82.0905 57.3081 82.9078 57.3081 83.7862 57.3081C83.7862 58.1407 83.7862 58.9767 83.7862 59.8906Z" fill="url(#paint10_linear_52_904)"/>
<path d="M14.8026 66.5398C14.8128 64.3398 16.6286 62.5628 18.8438 62.5814C20.9998 62.6001 22.7801 64.4176 22.7598 66.5787C22.7395 68.7905 20.9237 70.5691 18.7186 70.5387C16.5558 70.5082 14.7908 68.7076 14.8026 66.5398ZM20.1012 66.5854C20.1165 65.8764 19.536 65.2638 18.8235 65.2384C18.1161 65.213 17.4934 65.785 17.4561 66.4958C17.4189 67.2387 18.0298 67.8834 18.7728 67.8834C19.4869 67.8851 20.086 67.2979 20.1012 66.5854Z" fill="url(#paint11_linear_52_904)"/>
<path d="M58.6571 62.5813C60.8148 62.5881 62.6052 64.3938 62.5968 66.5549C62.5883 68.7684 60.7826 70.5572 58.5792 70.5386C56.4131 70.5199 54.6395 68.7295 54.6378 66.5633C54.6378 64.3616 56.4435 62.5745 58.6571 62.5813ZM59.9382 66.5667C59.9432 65.8559 59.356 65.2535 58.6435 65.2365C57.9345 65.2196 57.3202 65.8001 57.2931 66.5109C57.266 67.2555 57.8854 67.8918 58.6283 67.8816C59.3408 67.8749 59.9331 67.2809 59.9382 66.5667Z" fill="url(#paint12_linear_52_904)"/>
<defs>
<linearGradient id="paint0_linear_52_904" x1="13.5627" y1="42.5321" x2="67.0074" y2="74.6333" gradientUnits="userSpaceOnUse">
<stop stop-color="#02C0C2"/>
<stop offset="1" stop-color="#164A9E"/>
</linearGradient>
<linearGradient id="paint1_linear_52_904" x1="41.9519" y1="19.8677" x2="63.6525" y2="28.5499" gradientUnits="userSpaceOnUse">
<stop stop-color="#02C0C2"/>
<stop offset="1" stop-color="#164A9E"/>
</linearGradient>
<linearGradient id="paint2_linear_52_904" x1="54.9197" y1="42.249" x2="56.4685" y2="47.9169" gradientUnits="userSpaceOnUse">
<stop stop-color="#02C0C2"/>
<stop offset="1" stop-color="#164A9E"/>
</linearGradient>
<linearGradient id="paint3_linear_52_904" x1="67.812" y1="47.5573" x2="69.5712" y2="53.1385" gradientUnits="userSpaceOnUse">
<stop stop-color="#02C0C2"/>
<stop offset="1" stop-color="#164A9E"/>
</linearGradient>
<linearGradient id="paint4_linear_52_904" x1="62.5286" y1="52.8824" x2="64.2857" y2="58.4606" gradientUnits="userSpaceOnUse">
<stop stop-color="#02C0C2"/>
<stop offset="1" stop-color="#164A9E"/>
</linearGradient>
<linearGradient id="paint5_linear_52_904" x1="36.5023" y1="44.9077" x2="45.3089" y2="48.4514" gradientUnits="userSpaceOnUse">
<stop stop-color="#02C0C2"/>
<stop offset="1" stop-color="#164A9E"/>
</linearGradient>
<linearGradient id="paint6_linear_52_904" x1="66.3756" y1="29.9418" x2="74.1778" y2="32.0147" gradientUnits="userSpaceOnUse">
<stop stop-color="#02C0C2"/>
<stop offset="1" stop-color="#164A9E"/>
</linearGradient>
<linearGradient id="paint7_linear_52_904" x1="76.2703" y1="42.2627" x2="78.5252" y2="43.2582" gradientUnits="userSpaceOnUse">
<stop stop-color="#02C0C2"/>
<stop offset="1" stop-color="#164A9E"/>
</linearGradient>
<linearGradient id="paint8_linear_52_904" x1="60.3478" y1="47.559" x2="62.6058" y2="48.5558" gradientUnits="userSpaceOnUse">
<stop stop-color="#02C0C2"/>
<stop offset="1" stop-color="#164A9E"/>
</linearGradient>
<linearGradient id="paint9_linear_52_904" x1="49.7163" y1="50.2195" x2="51.9752" y2="51.1972" gradientUnits="userSpaceOnUse">
<stop stop-color="#02C0C2"/>
<stop offset="1" stop-color="#164A9E"/>
</linearGradient>
<linearGradient id="paint10_linear_52_904" x1="81.5859" y1="58.1851" x2="83.8447" y2="59.1627" gradientUnits="userSpaceOnUse">
<stop stop-color="#02C0C2"/>
<stop offset="1" stop-color="#164A9E"/>
</linearGradient>
<linearGradient id="paint11_linear_52_904" x1="15.8856" y1="65.2837" x2="22.912" y2="68.3671" gradientUnits="userSpaceOnUse">
<stop stop-color="#02C0C2"/>
<stop offset="1" stop-color="#164A9E"/>
</linearGradient>
<linearGradient id="paint12_linear_52_904" x1="55.7211" y1="65.2835" x2="62.7483" y2="68.368" gradientUnits="userSpaceOnUse">
<stop stop-color="#02C0C2"/>
<stop offset="1" stop-color="#164A9E"/>
</linearGradient>
</defs>
</svg>
