<svg width="89" height="88" viewBox="0 0 89 88" fill="none" xmlns="http://www.w3.org/2000/svg">
<path d="M31.3609 49.3748C30.4437 47.009 29.5519 44.6871 28.6329 42.3754C28.5382 42.1368 28.2945 41.9388 28.0829 41.7679C26.6648 40.6188 25.2466 39.4681 23.8082 38.3461C22.0888 37.0057 21.2291 35.3101 21.7165 33.1236C22.1988 30.9574 23.6136 29.6916 25.7797 29.2533C25.8592 29.2364 25.9337 29.1941 26.0809 29.1348C25.9591 28.8607 25.8508 28.5899 25.7205 28.3276C24.7423 26.3713 23.7625 24.415 22.7776 22.4604C21.9382 20.7951 21.8299 19.091 22.4289 17.3208C23.1837 15.0853 22.2952 13.3101 20.058 12.5417C19.1306 12.2219 18.1576 12.0036 17.2759 11.5907C16.8342 11.3825 16.3112 10.8714 16.2571 10.4433C16.2046 10.0202 16.5786 9.3416 16.9696 9.09621C22.6591 5.51529 28.8462 3.1139 35.5409 2.60452C41.464 2.15267 47.4429 2.06636 53.3812 2.27452C62.3674 2.59098 68.5308 11.7261 65.7842 20.3128C64.9312 22.9816 63.8972 25.5928 62.9479 28.2294C62.8531 28.4917 62.7685 28.7574 62.6534 29.0959C62.9411 29.1687 63.1949 29.2381 63.4539 29.2973C65.4085 29.7441 66.7048 30.9354 67.2345 32.8511C67.776 34.8108 67.2497 36.5522 65.7199 37.8841C64.1528 39.2464 62.4876 40.497 60.8799 41.8119C60.6531 41.9964 60.4365 42.2485 60.3299 42.5142C59.4262 44.7734 58.5479 47.0428 57.6425 49.3596C57.8236 49.3681 58.1112 49.3918 58.3989 49.3918C61.7412 49.3951 65.0836 49.3884 68.4259 49.3951C72.6397 49.4019 75.5048 52.2704 75.5166 56.4876C75.5217 57.9768 75.4912 59.4661 75.5403 60.9536C75.5488 61.2311 75.7959 61.6305 76.0412 61.7507C81.5717 64.4567 84.9749 68.8127 86.0275 74.8728C86.3508 76.7361 86.2442 78.6754 86.2983 80.581C86.3339 81.8164 86.3186 83.0534 86.3 84.2888C86.2848 85.2839 85.7805 85.7713 84.7854 85.8034C84.5891 85.8102 84.3928 85.8051 84.1948 85.8051C57.7355 85.8051 31.2763 85.8051 4.81709 85.8051C3.02663 85.8051 2.67632 85.4785 2.69832 83.7134C2.73217 81.0193 2.5714 78.2998 2.88617 75.6378C3.62571 69.3779 6.97817 64.8341 12.5882 61.9859C13.2583 61.6458 13.5206 61.3158 13.5054 60.5491C13.4716 58.6994 13.3751 56.8227 13.634 55.0018C14.1045 51.6984 16.8832 49.4273 20.2205 49.4002C23.9283 49.3698 27.6345 49.3833 31.3423 49.3765C31.3711 49.3782 31.3982 49.3664 31.3609 49.3748ZM16.1809 83.0484C35.1246 83.0484 53.9516 83.0484 72.8208 83.0484C72.8208 82.6811 72.8208 82.3748 72.8208 82.0702C72.8208 73.6171 72.8208 65.1641 72.8208 56.7127C72.8208 53.6699 71.2452 52.0944 68.2059 52.0944C52.3963 52.0944 36.5851 52.0944 20.7756 52.0944C17.7852 52.0944 16.1826 53.6834 16.1826 56.6501C16.1809 65.1302 16.1826 73.6121 16.1826 82.0922C16.1809 82.3934 16.1809 82.6981 16.1809 83.0484ZM27.3214 25.5133C30.3963 23.4622 33.39 21.4771 36.3736 19.4751C38.67 17.9351 41.1865 17.067 43.9568 17.0416C46.7948 17.0162 49.2892 16.1176 51.474 14.317C52.4268 13.5317 53.3863 12.7499 54.3662 11.9985C55.1497 11.3977 55.9299 11.4993 56.4629 12.3285C58.6156 15.6877 61.3689 18.7424 61.9139 22.9579C62.3928 21.8461 62.8277 20.7562 63.1848 19.6427C65.532 12.3336 60.1877 4.94836 52.5046 4.8976C48.3754 4.87052 44.2445 4.83667 40.1169 4.91113C33.5914 5.03129 27.4077 6.60006 21.5828 9.55313C21.3814 9.65467 21.1969 9.79006 20.9532 9.94236C24.964 11.7988 26.0556 14.3051 24.9132 18.5308C24.722 19.2382 24.7643 20.1419 25.0368 20.8171C25.6748 22.3978 26.5176 23.8937 27.3214 25.5133ZM29.7008 31.8848C29.7008 32.2114 29.6906 32.4585 29.7025 32.7056C29.9834 38.407 31.4879 43.753 34.2988 48.7334C34.5899 49.2496 34.9148 49.407 35.4851 49.4053C41.4945 49.385 47.5056 49.385 53.5149 49.4053C54.0869 49.407 54.4136 49.2496 54.7029 48.7334C57.1297 44.4181 58.6003 39.8031 59.13 34.887C59.2366 33.8987 59.2637 32.9019 59.3263 31.9136C58.3549 31.9136 57.5257 31.9136 56.6339 31.9136C56.6339 33.2793 56.6525 34.5942 56.6305 35.9074C56.5915 38.1768 54.8823 39.8979 52.6248 39.9487C51.7262 39.969 50.8275 39.9656 49.9289 39.9504C47.6139 39.9131 45.8945 38.1988 45.8505 35.8939C45.842 35.459 45.8488 35.0241 45.8488 34.6061C44.8825 34.6061 44.0516 34.6061 43.1496 34.6061C43.1496 35.0647 43.1563 35.481 43.1479 35.8956C43.0988 38.2039 41.3828 39.9098 39.0677 39.9504C38.3654 39.9622 37.6631 39.9538 36.9608 39.9538C33.9383 39.9521 32.3628 38.363 32.3628 35.3168C32.3628 34.1779 32.3628 33.039 32.3628 31.8848C31.4303 31.8848 30.6214 31.8848 29.7008 31.8848ZM54.8654 15.0531C54.5185 15.329 54.1343 15.6099 53.7772 15.923C50.8699 18.4665 47.5174 19.7696 43.6268 19.7577C41.8329 19.7527 40.1203 20.2925 38.6091 21.2707C35.7339 23.1288 32.8976 25.0462 30.0545 26.9534C29.8768 27.0719 29.7059 27.3241 29.6856 27.5305C29.6331 28.0501 29.6686 28.5781 29.6686 29.1653C30.0663 29.1653 30.3692 29.1653 30.6739 29.1653C34.2971 29.1653 37.9203 29.1602 41.5419 29.1687C42.6486 29.1704 43.1292 29.6611 43.1529 30.7561C43.1597 31.1081 43.1546 31.4618 43.1546 31.8611C43.686 31.8611 44.104 31.8611 44.522 31.8611C44.9569 31.8611 45.3936 31.8611 45.8522 31.8611C45.8522 31.5599 45.8505 31.3924 45.8522 31.2248C45.8674 29.4902 46.1923 29.1636 47.9202 29.1636C51.2625 29.1636 54.6048 29.1636 57.9454 29.1636C58.3854 29.1636 58.8254 29.1636 59.1706 29.1636C60.0557 23.7296 58.5174 19.0944 54.8654 15.0531ZM5.38063 83.0433C8.15263 83.0433 10.8011 83.0433 13.4411 83.0433C13.4411 76.8714 13.4411 70.7639 13.4411 64.5616C13.128 64.7224 12.8792 64.8324 12.6474 64.9728C9.56232 66.8564 7.42325 69.4981 6.19971 72.9081C5.01678 76.2081 5.50925 79.6198 5.38063 83.0433ZM83.6042 83.1076C83.6042 81.1614 83.6312 79.3388 83.5974 77.5162C83.5365 74.1824 82.4771 71.1853 80.4226 68.5554C79.1145 66.8818 77.5254 65.5448 75.5674 64.5565C75.5674 70.7842 75.5674 76.9154 75.5674 83.1076C77.9722 83.1076 80.3262 83.1076 82.6802 83.1076C82.956 83.1076 83.2319 83.1076 83.6042 83.1076ZM35.0671 31.9017C35.0671 33.2945 35.0332 34.6331 35.0806 35.9701C35.1077 36.7468 35.6052 37.2071 36.382 37.241C37.3043 37.2816 38.2317 37.2816 39.154 37.2393C39.8919 37.2054 40.3945 36.7604 40.4266 36.0293C40.4859 34.6687 40.4436 33.303 40.4436 31.9001C38.6429 31.9017 36.9151 31.9017 35.0671 31.9017ZM48.548 31.8967C48.548 33.2759 48.5294 34.5637 48.5548 35.8499C48.57 36.6673 49.0523 37.2038 49.8308 37.2393C50.7802 37.2833 51.7363 37.2799 52.6857 37.2376C53.3457 37.2071 53.8568 36.7942 53.8906 36.1511C53.9651 34.7397 53.9143 33.3216 53.9143 31.8967C52.0951 31.8967 50.3672 31.8967 48.548 31.8967ZM27.4788 37.8316C27.2757 35.7348 27.0896 33.8107 26.9051 31.8916C25.6799 31.8628 24.8591 32.313 24.4699 33.2353C24.084 34.1525 24.2076 35.0376 24.92 35.7179C25.6816 36.4456 26.5429 37.0667 27.4788 37.8316ZM61.5229 37.8214C62.3725 37.1394 63.1442 36.5505 63.8803 35.921C64.7112 35.2119 64.9397 34.2084 64.5386 33.2641C64.1274 32.2994 63.2508 31.8188 62.0865 31.9288C61.9037 33.8394 61.7209 35.7501 61.5229 37.8214Z" fill="#164A9E"/>
<path d="M49.8917 73.6442C49.9036 76.6243 47.4751 79.0646 44.5034 79.0612C41.5216 79.0579 39.105 76.6328 39.1083 73.6493C39.1117 70.7097 41.5114 68.2965 44.456 68.2762C47.4379 68.2525 49.8799 70.6657 49.8917 73.6442ZM44.5406 76.3603C46.0096 76.34 47.2026 75.1182 47.1925 73.6476C47.1806 72.1448 45.9233 70.9348 44.4154 70.9754C42.9516 71.0143 41.772 72.2599 41.8076 73.7288C41.8431 75.2011 43.0683 76.3806 44.5406 76.3603Z" fill="#02C0C2"/>
<path d="M35.4597 53.9052C36.074 54.5212 36.6765 55.1253 37.3399 55.7904C35.8743 57.2441 34.4274 58.6775 32.9517 60.1413C34.4528 61.6356 35.8963 63.0724 37.3754 64.543C36.6663 65.2132 36.0453 65.7987 35.4208 66.3876C33.632 64.6242 31.7789 62.8355 29.9749 60.9976C29.4859 60.5001 29.5197 59.813 30.0122 59.3138C31.7993 57.4979 33.6236 55.721 35.4597 53.9052Z" fill="#02C0C2"/>
<path d="M53.542 66.4671C52.9463 65.8291 52.3625 65.2046 51.7177 64.5142C53.1274 63.118 54.576 61.6846 56.0652 60.2106C54.5557 58.7231 53.1037 57.2931 51.6179 55.8309C52.3506 55.1675 52.9836 54.5938 53.6029 54.0337C55.3562 55.7514 57.2143 57.5334 59.0234 59.3661C59.5142 59.8637 59.4803 60.5508 58.9896 61.05C57.2042 62.8642 55.3816 64.6445 53.542 66.4671Z" fill="#02C0C2"/>
<path d="M39.3774 64.7612C42.1105 61.1211 44.7691 57.5791 47.4666 53.9863C48.1943 54.5262 48.8645 55.0254 49.626 55.5906C46.9353 59.18 44.2665 62.7372 41.5351 66.3791C40.8108 65.8359 40.1271 65.3248 39.3774 64.7612Z" fill="#02C0C2"/>
</svg>
