<svg width="88" height="88" viewBox="0 0 88 88" fill="none" xmlns="http://www.w3.org/2000/svg">
<path d="M46.5368 73.5951C45.8852 75.9017 44.4992 77.4789 42.3263 78.386C43.0303 80.3965 42.6851 82.1328 40.9505 83.3901C39.5882 84.3785 38.0634 84.4394 36.6249 83.5594C34.8615 82.4814 34.3538 80.8348 34.8158 78.8226C31.1334 78.8226 27.4881 78.8226 23.7786 78.8226C24.2186 80.9752 23.6449 82.7217 21.6277 83.7337C20.152 84.4732 18.6661 84.2786 17.3986 83.2226C15.8705 81.9517 15.5641 80.3101 16.2258 78.4875C16.1818 78.4165 16.1632 78.3471 16.1226 78.3285C13.1814 76.9898 11.8665 74.6866 11.8749 71.4797C11.9037 60.2715 11.8851 49.0634 11.8868 37.8552C11.8868 33.3808 14.6605 30.6088 19.1366 30.6071C20.6952 30.6071 22.2555 30.6071 23.9343 30.6071C23.9343 30.2449 23.9343 29.9234 23.9343 29.6018C23.9343 22.7988 23.914 15.9957 23.9478 9.1926C23.9597 6.92153 25.0614 5.23768 27.1412 4.31537C29.1923 3.40491 31.1351 3.74507 32.8308 5.20045C34.1118 6.29876 34.6483 7.75414 34.6466 9.4363C34.6365 16.1277 34.6432 22.8191 34.6432 29.5105C34.6432 29.8405 34.6432 30.1705 34.6432 30.6071C36.3592 30.6071 38.0245 30.5563 39.6829 30.6274C40.5883 30.6663 41.5309 30.7797 42.3788 31.0809C44.9798 32.0066 46.6637 34.4605 46.6823 37.2646C46.7094 41.3075 46.6908 45.3505 46.6908 49.3934C46.6908 49.6591 46.6908 49.9248 46.8278 50.2277C46.9514 49.9975 47.0868 49.7725 47.2002 49.5372C49.3748 45.0221 51.546 40.5071 53.7223 35.992C54.9848 33.3706 57.0951 32.6345 59.7283 33.8969C67.4588 37.6065 75.1892 41.3194 82.9197 45.034C84.2583 45.6771 84.4529 46.2237 83.8149 47.5488C78.3488 58.9143 72.8809 70.2781 67.4114 81.642C66.8208 82.8689 66.2505 83.0635 65.0049 82.4645C59.1563 79.6552 53.3111 76.8426 47.4642 74.0317C47.1815 73.898 46.904 73.7694 46.5368 73.5951ZM23.9309 33.2843C22.2014 33.2843 20.5632 33.2809 18.9251 33.2843C16.2072 33.2911 14.564 34.9377 14.5623 37.6691C14.5589 42.6851 14.5606 47.7028 14.5606 52.7188C14.5606 59.1292 14.5538 65.538 14.564 71.9484C14.5674 74.2449 16.2005 76.076 18.3971 76.0878C25.6452 76.1284 32.8917 76.1166 40.1398 76.0946C41.8017 76.0895 43.2571 74.9235 43.8054 73.3785C44.0457 72.6981 44.0135 72.2345 43.23 71.9705C42.68 71.7843 42.1672 71.4865 41.6426 71.2309C39.1346 70.0074 38.39 67.8615 39.6017 65.3332C40.9725 62.4715 42.3534 59.6166 43.714 56.7515C43.8646 56.4351 43.9966 56.0712 43.9983 55.7294C44.0152 49.5711 44.0271 43.4111 44 37.2528C43.9898 35.0172 42.2349 33.3215 39.9825 33.2894C38.3934 33.2674 36.8043 33.2826 35.2152 33.2877C35.0325 33.2877 34.8497 33.3351 34.6128 33.3672C34.6128 35.5774 34.6128 37.7401 34.6128 39.9198C33.7057 39.9198 32.8595 39.9198 31.9254 39.9198C31.9254 37.6809 31.9254 35.4978 31.9254 33.33C30.1163 33.33 28.3986 33.33 26.5912 33.33C26.5912 35.5588 26.5912 37.7418 26.5912 39.9097C25.652 39.9097 24.8075 39.9097 23.9326 39.9097C23.9309 37.6995 23.9309 35.5571 23.9309 33.2843ZM54.6243 40.3361C54.6074 40.3666 54.5329 40.4783 54.4754 40.5968C50.3005 49.2732 46.1238 57.9497 41.954 66.6312C41.4412 67.6991 41.6832 68.2812 42.8154 68.8261C47.0275 70.8552 51.2431 72.8826 55.4569 74.9083C58.74 76.4872 62.0248 78.0628 65.3772 79.6721C69.8314 70.4152 74.2652 61.1989 78.7211 51.9386C70.6674 48.0615 62.6983 44.2234 54.6243 40.3361ZM31.8628 30.5885C31.9101 30.47 31.9474 30.4209 31.9474 30.3718C31.9525 23.2658 31.9694 16.1581 31.9423 9.05214C31.9372 7.92337 31.2806 7.11107 30.2246 6.69814C28.4138 5.99076 26.6149 7.3226 26.6115 9.37707C26.6014 16.2326 26.6082 23.0881 26.6098 29.9454C26.6098 30.1569 26.6488 30.3668 26.6708 30.5885C28.4342 30.5885 30.1315 30.5885 31.8628 30.5885ZM81.0294 47.1308C80.8077 47.0106 80.6892 46.9378 80.5657 46.8786C74.8998 44.1523 69.234 41.426 63.5665 38.7014C61.7861 37.8451 60.0211 36.9515 58.2103 36.1697C57.8025 35.9937 57.134 36.0597 56.7566 36.2915C56.4486 36.4811 56.1761 37.1563 56.2845 37.4863C56.4334 37.9415 56.8818 38.4221 57.3269 38.6405C63.2771 41.5445 69.2492 44.4061 75.2163 47.2763C76.7597 48.0192 78.3065 48.7571 79.8854 49.5135C80.2848 48.6826 80.6435 47.9363 81.0294 47.1308ZM19.9489 78.7921C19.2314 78.7718 18.6137 79.3489 18.5815 80.0681C18.5494 80.7823 19.1214 81.4135 19.8372 81.4558C20.5852 81.4998 21.2402 80.8889 21.2469 80.1392C21.2537 79.42 20.6698 78.8125 19.9489 78.7921ZM38.6845 81.4558C39.4037 81.4372 39.9909 80.8297 39.9875 80.1121C39.9825 79.3625 39.3292 78.7481 38.5812 78.7905C37.8654 78.8311 37.2917 79.4606 37.3221 80.1748C37.3509 80.894 37.9703 81.4744 38.6845 81.4558Z" fill="url(#paint0_linear_62_958)"/>
<path d="M68.6874 11.5416C70.6826 12.8667 72.5966 14.1529 74.536 15.4001C74.6934 15.5016 75.0606 15.4153 75.2552 15.2952C76.1302 14.7502 76.9729 14.1562 77.836 13.591C78.694 13.0309 79.2068 13.0664 79.9209 13.7585C80.7214 14.5353 81.51 15.3222 82.2868 16.1244C83.0263 16.8893 83.0382 17.5561 82.2952 18.3092C80.6114 20.015 78.9275 21.7242 77.2048 23.3895C75.8035 24.745 73.964 24.9532 72.2835 23.9327C64.9068 19.4464 57.5419 14.9415 50.1786 10.4315C49.2005 9.83239 49.104 8.96762 49.8706 8.13501C50.1346 7.84901 50.4172 7.57824 50.6965 7.30578C53.0945 4.95854 56.2269 4.56931 59.1225 6.25485C59.9145 6.71685 60.7014 7.50547 61.5103 7.53085C62.3209 7.55624 63.1586 6.81839 63.9811 6.41055C65.5262 5.64224 67.078 4.88408 68.6112 4.09039C69.3643 3.70116 69.9702 3.81624 70.5743 4.3967C72.5679 6.30901 72.5814 6.34624 70.9263 8.55978C70.2071 9.52101 69.4879 10.4772 68.6874 11.5416ZM68.4928 7.32778C68.4505 7.29054 68.4099 7.25331 68.3675 7.21608C66.4282 8.18408 64.4685 9.11654 62.5579 10.1387C61.6812 10.6092 60.9586 10.5601 60.1565 10.0185C59.3052 9.44316 58.41 8.92531 57.5097 8.42608C55.9477 7.55962 54.1979 7.76778 52.9235 8.95916C53.1622 9.10978 53.3889 9.2587 53.6225 9.40085C60.0092 13.305 66.3977 17.2075 72.7845 21.1099C74.5885 22.2116 74.6105 22.2082 76.1031 20.7173C76.2402 20.5802 76.3789 20.4415 76.516 20.3044C77.5365 19.2924 78.5569 18.2787 79.5672 17.2769C78.6974 16.2429 78.6974 16.2412 77.7311 16.8809C77.0812 17.3107 76.4212 17.7253 75.7883 18.1805C75.1063 18.6696 74.4802 18.6358 73.7914 18.1704C71.302 16.4865 68.7906 14.8332 66.2945 13.1578C65.2672 12.469 65.1674 11.8005 65.9171 10.7869C66.77 9.6327 67.6331 8.48024 68.4928 7.32778Z" fill="url(#paint1_linear_62_958)"/>
<path d="M79.5131 31.8222C78.848 30.2128 78.2354 28.7337 77.5906 27.1751C78.3437 26.7943 79.0985 26.4118 79.8448 26.0345C81.8637 29.1483 84.1585 37.5625 83.9723 41.2246C83.1499 41.2737 82.3122 41.3245 81.4965 41.3735C81.2054 39.5492 80.9583 37.818 80.6436 36.0986C80.3711 34.6043 80.3372 34.6246 78.8446 34.4791C72.666 33.8732 67.3251 31.416 62.8032 27.1768C61.8268 26.2612 60.9062 25.2898 59.9466 24.3557C59.1411 23.5722 58.4676 23.5569 57.5943 24.2694C55.6075 25.8923 53.4363 25.8043 51.5934 24.0274C48.6877 21.2283 44.9189 21.1623 41.9337 23.8802C40.6476 25.0512 39.1837 25.7417 37.3679 25.7603C37.3679 24.8786 37.3679 24.0291 37.3679 23.1203C38.5677 23.0678 39.4968 22.4823 40.3717 21.6954C44.0576 18.3734 49.3782 18.4038 53.0606 21.7292C53.2468 21.8968 53.4211 22.0778 53.6072 22.2454C54.3332 22.8935 55.0085 22.9071 55.7785 22.2962C57.9768 20.548 60.0549 20.6411 62.0146 22.6363C64.4228 25.0868 66.8699 27.4746 69.9634 29.084C72.6102 30.4615 75.4025 31.3534 78.3539 31.7545C78.6788 31.7951 79.0088 31.7917 79.5131 31.8222Z" fill="url(#paint2_linear_62_958)"/>
<path d="M10.3857 60.6101C9.60555 60.9993 8.8677 61.37 8.12816 61.7389C0.31478 47.669 2.53001 24.3287 20.4905 11.5061C20.988 12.1898 21.4872 12.8735 22.0237 13.6096C14.6892 19.0843 9.79847 26.1733 7.62555 35.0275C5.46109 43.8444 6.44601 52.372 10.3857 60.6101Z" fill="url(#paint3_linear_62_958)"/>
<path d="M55.7192 79.8584C55.9308 80.5218 56.1829 81.3053 56.4554 82.1582C52.8322 83.3479 49.1988 83.9758 45.3995 84.1027C45.3995 83.2041 45.3995 82.3816 45.3995 81.6759C48.8062 81.0769 52.2077 80.4778 55.7192 79.8584Z" fill="url(#paint4_linear_62_958)"/>
<path d="M37.5083 6.842C37.3865 6.12785 37.2511 5.34093 37.0988 4.45585C40.7829 3.79754 44.4112 3.66385 48.1512 4.06831C48.0599 4.95508 47.9719 5.79446 47.9025 6.47646C44.4028 6.6 41.0029 6.72016 37.5083 6.842Z" fill="url(#paint5_linear_62_958)"/>
<path d="M22.5331 73.3954C21.6531 73.3954 20.8289 73.3954 19.9591 73.3954C19.9591 63.1485 19.9591 52.9405 19.9591 42.6919C20.8222 42.6919 21.648 42.6919 22.5331 42.6919C22.5331 52.905 22.5331 63.1147 22.5331 73.3954Z" fill="url(#paint6_linear_62_958)"/>
<path d="M28.0043 42.6902C28.8894 42.6902 29.7153 42.6902 30.5817 42.6902C30.5817 52.9185 30.5817 63.1079 30.5817 73.365C29.7542 73.365 28.908 73.365 28.0043 73.365C28.0043 63.1756 28.0043 52.9659 28.0043 42.6902Z" fill="url(#paint7_linear_62_958)"/>
<path d="M38.5965 73.3954C37.7182 73.3954 36.8923 73.3954 36.0225 73.3954C36.0225 63.1502 36.0225 52.9405 36.0225 42.6919C36.8855 42.6919 37.7114 42.6919 38.5965 42.6919C38.5965 52.905 38.5965 63.1147 38.5965 73.3954Z" fill="url(#paint8_linear_62_958)"/>
<path d="M61.4697 47.6402C66.6516 47.652 70.7926 51.8219 70.7892 57.0257C70.7859 62.1822 66.5703 66.374 61.4003 66.3639C56.2642 66.3537 52.0436 62.1026 52.0605 56.9546C52.0774 51.7931 56.2845 47.6283 61.4697 47.6402ZM61.1955 63.5935C63.0368 63.9168 65.7631 62.6459 66.6532 60.9874C65.9069 60.6303 65.164 60.2732 64.5108 59.9602C63.3668 61.2142 62.2752 62.4106 61.1955 63.5935ZM54.9374 55.3605C54.4568 57.7179 54.9459 59.6742 56.4943 61.4748C56.5789 60.5389 56.6128 59.7351 56.7363 58.9465C56.8649 58.1325 57.0832 57.332 57.2711 56.4791C56.5079 56.1119 55.7649 55.7548 54.9374 55.3605ZM67.8497 58.5877C68.6146 56.7414 67.6212 53.3906 66.4349 52.7086C66.1896 54.2825 65.9391 55.8817 65.6819 57.5385C66.3435 57.8583 67.0645 58.2069 67.8497 58.5877ZM58.4439 54.0625C58.9752 53.3974 59.4745 52.7695 59.9754 52.1434C60.4916 51.5003 61.0111 50.8572 61.4122 50.358C59.7723 50.0974 57.2254 51.2719 56.2032 52.9828C56.9529 53.3449 57.6976 53.7037 58.4439 54.0625ZM62.0417 58.7705C61.1939 58.366 60.5119 58.0394 59.6708 57.6383C59.4897 58.9515 59.3256 60.1328 59.1614 61.314C59.2663 61.3631 59.3712 61.4122 59.4762 61.4612C60.3003 60.5965 61.1245 59.7317 62.0417 58.7705ZM60.83 55.22C61.7083 55.6329 62.37 55.9426 63.2212 56.342C63.3905 55.0034 63.5377 53.8323 63.6849 52.6612C63.5783 52.6172 63.4717 52.5749 63.3668 52.5326C62.5629 53.3855 61.7574 54.2385 60.83 55.22Z" fill="url(#paint9_linear_62_958)"/>
<path d="M61.6288 71.9214C61.2125 72.7828 60.852 73.5257 60.4645 74.3279C56.43 72.3902 52.4598 70.4813 48.4152 68.5385C48.8095 67.716 49.1751 66.9545 49.5694 66.1287C53.6208 68.0748 57.5909 69.982 61.6288 71.9214Z" fill="url(#paint10_linear_62_958)"/>
<defs>
<linearGradient id="paint0_linear_62_958" x1="19.2072" y1="21" x2="78.9957" y2="67.7594" gradientUnits="userSpaceOnUse">
<stop stop-color="#02C0C2"/>
<stop offset="1" stop-color="#164A9E"/>
</linearGradient>
<linearGradient id="paint1_linear_62_958" x1="52.7579" y1="8.29249" x2="67.756" y2="29.3751" gradientUnits="userSpaceOnUse">
<stop stop-color="#02C0C2"/>
<stop offset="1" stop-color="#164A9E"/>
</linearGradient>
<linearGradient id="paint2_linear_62_958" x1="42.0959" y1="23.9577" x2="56.3901" y2="50.108" gradientUnits="userSpaceOnUse">
<stop stop-color="#02C0C2"/>
<stop offset="1" stop-color="#164A9E"/>
</linearGradient>
<linearGradient id="paint3_linear_62_958" x1="5.69708" y1="22.2497" x2="27.736" y2="29.1806" gradientUnits="userSpaceOnUse">
<stop stop-color="#02C0C2"/>
<stop offset="1" stop-color="#164A9E"/>
</linearGradient>
<linearGradient id="paint4_linear_62_958" x1="46.5209" y1="80.7662" x2="48.9252" y2="86.2114" gradientUnits="userSpaceOnUse">
<stop stop-color="#02C0C2"/>
<stop offset="1" stop-color="#164A9E"/>
</linearGradient>
<linearGradient id="paint5_linear_62_958" x1="38.2198" y1="4.48174" x2="39.53" y2="8.67527" gradientUnits="userSpaceOnUse">
<stop stop-color="#02C0C2"/>
<stop offset="1" stop-color="#164A9E"/>
</linearGradient>
<linearGradient id="paint6_linear_62_958" x1="20.2202" y1="49.2586" x2="23.633" y2="49.5074" gradientUnits="userSpaceOnUse">
<stop stop-color="#02C0C2"/>
<stop offset="1" stop-color="#164A9E"/>
</linearGradient>
<linearGradient id="paint7_linear_62_958" x1="28.2658" y1="49.2508" x2="31.683" y2="49.5004" gradientUnits="userSpaceOnUse">
<stop stop-color="#02C0C2"/>
<stop offset="1" stop-color="#164A9E"/>
</linearGradient>
<linearGradient id="paint8_linear_62_958" x1="36.2835" y1="49.2586" x2="39.6964" y2="49.5074" gradientUnits="userSpaceOnUse">
<stop stop-color="#02C0C2"/>
<stop offset="1" stop-color="#164A9E"/>
</linearGradient>
<linearGradient id="paint9_linear_62_958" x1="53.96" y1="51.6447" x2="68.1737" y2="64.0061" gradientUnits="userSpaceOnUse">
<stop stop-color="#02C0C2"/>
<stop offset="1" stop-color="#164A9E"/>
</linearGradient>
<linearGradient id="paint10_linear_62_958" x1="49.7554" y1="67.8823" x2="55.6991" y2="76.2103" gradientUnits="userSpaceOnUse">
<stop stop-color="#02C0C2"/>
<stop offset="1" stop-color="#164A9E"/>
</linearGradient>
</defs>
</svg>
