<svg width="88" height="88" viewBox="0 0 88 88" fill="none" xmlns="http://www.w3.org/2000/svg">
<g clip-path="url(#clip0_59_937)">
<path d="M66.224 54.9858C69.2393 55.4283 70.2047 56.7086 70.4483 60.6311C71.0059 60.6311 71.5761 60.6311 72.1445 60.6311C73.3391 60.6311 74.5337 60.6257 75.73 60.6329C78.4494 60.6455 80.1853 62.3991 80.198 65.1422C80.2016 65.9278 80.198 66.7134 80.198 67.6326C81.2374 67.6326 82.2497 67.7066 83.2494 67.6199C86.7266 67.3184 88.7693 69.4078 88.634 73.0214C88.4625 77.594 88.5943 82.1774 88.5925 86.7553C88.5925 88.1802 88.1377 88.6281 86.705 88.6299C84.3158 88.6335 81.9249 88.6317 79.5357 88.6299C77.7529 88.6299 77.4191 88.2922 77.401 86.4772C77.3992 86.3039 77.401 86.1305 77.401 85.8939C56.8948 85.8939 36.4228 85.8939 15.839 85.8939C15.839 86.3147 15.857 86.7409 15.8354 87.1653C15.7903 88.0502 15.285 88.61 14.417 88.6172C11.6489 88.6425 8.87905 88.6407 6.11096 88.619C5.19248 88.6118 4.65835 88.0556 4.65654 87.1165C4.64572 81.9552 4.62045 76.7922 4.66917 71.6309C4.69083 69.4385 6.53863 67.694 8.75274 67.6398C10.1458 67.6073 11.5407 67.6344 13.0438 67.6344C13.0438 66.708 13.0366 65.8447 13.0456 64.9815C13.0709 62.4298 14.8519 60.6546 17.4107 60.6347C19.1304 60.6221 20.85 60.6257 22.5697 60.6202C22.6239 60.6202 22.6762 60.5895 22.826 60.5426C22.6094 57.5339 23.7084 55.4174 26.9727 54.9804C26.4115 54.1298 25.9062 53.2846 25.3089 52.5099C25.152 52.3058 24.7117 52.2444 24.4013 52.2426C19.3884 52.2264 14.3755 52.2336 9.36266 52.2318C6.32931 52.23 4.65113 50.5559 4.65113 47.5274C4.64933 34.7831 4.64933 22.0388 4.65113 9.29453C4.65113 6.32923 6.34735 4.6371 9.31935 4.6371C34.1816 4.63529 59.0421 4.63529 83.9044 4.6371C86.9251 4.6371 88.5943 6.3202 88.5943 9.36316C88.5961 22.0786 88.5961 34.7921 88.5943 47.5075C88.5943 50.5415 86.9161 52.23 83.9008 52.2318C78.8879 52.2336 73.875 52.2426 68.8622 52.2174C68.2613 52.2137 67.9401 52.3943 67.6495 52.9253C67.2616 53.6314 66.7347 54.2598 66.224 54.9858ZM49.4422 49.3875C48.8846 42.4943 53.9841 38.469 58.6704 38.2541C61.3212 38.1313 63.6814 38.9168 65.6664 40.683C68.2631 42.9946 69.2537 45.9545 68.9488 49.4344C69.2844 49.4344 69.5424 49.4344 69.8005 49.4344C74.4922 49.4344 79.1856 49.4363 83.8773 49.4344C85.357 49.4344 85.7937 48.9938 85.7937 47.5003C85.7955 34.7867 85.7955 22.0713 85.7937 9.35774C85.7937 7.87328 85.3552 7.43806 83.8647 7.43806C59.0331 7.43806 34.2033 7.43806 9.37168 7.43806C7.88117 7.43806 7.44629 7.87148 7.44629 9.35955C7.44448 22.0731 7.44448 34.7885 7.44629 47.5021C7.44629 48.9938 7.88117 49.4326 9.36446 49.4326C14.0561 49.4345 18.7496 49.4326 23.4413 49.4326C23.721 49.4326 24.0025 49.4326 24.293 49.4326C23.6651 42.7869 28.5733 38.4238 33.698 38.236C38.9238 38.0446 44.3914 42.3517 43.7996 49.3875C45.6817 49.3875 47.5601 49.3875 49.4422 49.3875ZM77.3992 83.0009C77.3992 82.6505 77.3992 82.3923 77.3992 82.134C77.3992 76.5375 77.401 70.9392 77.3992 65.3427C77.3992 63.8673 76.9589 63.4339 75.4612 63.4339C56.2325 63.4339 37.002 63.4339 17.7734 63.4339C16.2775 63.4339 15.8426 63.8655 15.8408 65.3481C15.839 70.9446 15.839 76.5429 15.8426 82.1394C15.8426 82.4194 15.8678 82.7011 15.8823 83.0027C36.3993 83.0009 56.8442 83.0009 77.3992 83.0009ZM34.0246 41.0352C30.1991 41.0334 27.0485 44.1576 27.034 47.9699C27.0196 51.8887 30.1648 55.0436 34.0752 55.0328C37.8881 55.0219 41.0116 51.8796 41.0207 48.0529C41.0279 44.1811 37.8935 41.037 34.0246 41.0352ZM59.2063 55.031C63.0751 55.0237 66.2041 51.8887 66.2041 48.0132C66.2059 44.1576 63.0372 41.0153 59.1702 41.0352C55.3447 41.055 52.2247 44.1829 52.2175 48.006C52.2085 51.8778 55.3519 55.0382 59.2063 55.031ZM12.9861 85.8091C12.9861 80.655 12.9861 75.5732 12.9861 70.4299C11.7121 70.4299 10.4923 70.4263 9.27424 70.4317C7.90824 70.4372 7.44809 70.8977 7.44809 72.2756C7.44448 76.5321 7.44629 80.7904 7.4499 85.047C7.4499 85.2962 7.48238 85.5454 7.50042 85.8091C9.35183 85.8091 11.1256 85.8091 12.9861 85.8091ZM85.7865 85.8109C85.7865 81.0704 85.7955 76.4129 85.7756 71.7537C85.772 71.0656 85.3299 70.522 84.6641 70.4859C83.1952 70.4065 81.7191 70.4606 80.2701 70.4606C80.2701 75.6364 80.2701 80.7182 80.2701 85.8109C82.1125 85.8109 83.8881 85.8109 85.7865 85.8109ZM41.064 55.0075C42.4877 55.1176 43.7743 55.607 44.4041 56.8405C44.9743 57.9583 45.162 59.2694 45.5409 60.5751C46.1995 60.5751 47.0837 60.5751 47.9607 60.5751C48.3306 56.5479 49.0362 55.6107 52.1417 54.9569C51.604 54.1443 51.0825 53.3153 50.5087 52.5226C50.3896 52.3582 50.0864 52.2481 49.8681 52.2463C47.7135 52.2264 45.5589 52.2246 43.4044 52.2481C43.1644 52.2517 42.8396 52.3889 42.7042 52.5731C42.1412 53.3388 41.636 54.1479 41.064 55.0075ZM42.4227 60.5968C42.4227 60.1272 42.4336 59.7498 42.4209 59.3742C42.3848 58.3899 41.8796 57.8428 40.907 57.8391C36.3091 57.8247 31.7113 57.8301 27.1134 57.8373C26.305 57.8391 25.7799 58.2635 25.6626 59.0636C25.5904 59.5638 25.65 60.0821 25.65 60.5986C31.2818 60.5968 36.8018 60.5968 42.4227 60.5968ZM50.8172 60.5805C56.4599 60.5805 62.0033 60.5805 67.6062 60.5805C67.6062 60.2446 67.608 59.9575 67.6062 59.6721C67.6008 58.3033 67.1389 57.8355 65.7765 57.8337C61.3825 57.8301 56.9886 57.8301 52.5947 57.8337C51.2936 57.8355 50.8281 58.3195 50.819 59.6378C50.8154 59.9268 50.8172 60.2157 50.8172 60.5805Z" fill="url(#paint0_linear_59_937)"/>
<path d="M39.624 25.5947C39.624 22.9418 39.6186 20.2889 39.6258 17.6379C39.6294 16.0577 40.5623 15.4581 41.9662 16.1552C47.3562 18.8388 52.7481 21.5206 58.1128 24.2583C58.5802 24.4967 59.0313 25.0908 59.1558 25.6019C59.3254 26.2954 58.7462 26.7342 58.129 27.043C52.739 29.7302 47.358 32.43 41.9662 35.1136C40.5533 35.8161 39.6312 35.2274 39.6276 33.6382C39.6204 30.9582 39.624 28.2765 39.624 25.5947ZM42.4462 31.7637C46.5605 29.7013 50.5412 27.7058 54.6789 25.6326C50.4997 23.5414 46.5099 21.5458 42.4462 19.5124C42.4462 23.6407 42.4462 27.6281 42.4462 31.7637Z" fill="url(#paint1_linear_59_937)"/>
<path d="M82.957 43.8938C82.957 44.8184 82.957 45.6798 82.957 46.5864C80.1925 46.5864 77.4678 46.5864 74.6726 46.5864C74.6726 45.7232 74.6726 44.8383 74.6726 43.8938C77.3956 43.8938 80.1402 43.8938 82.957 43.8938Z" fill="url(#paint2_linear_59_937)"/>
<path d="M12.0026 17.0527C11.3945 16.4333 10.7864 15.8139 10.1891 15.2035C11.8583 13.5601 13.5545 11.8915 15.2489 10.2246C15.8083 10.7989 16.4272 11.4364 17.0029 12.0287C15.3626 13.6757 13.7043 15.3426 12.0026 17.0527Z" fill="url(#paint3_linear_59_937)"/>
<path d="M19.54 14.481C20.0164 14.9758 20.6191 15.6024 21.1424 16.1478C19.5003 17.8038 17.8311 19.4851 16.1259 21.2044C15.6333 20.659 15.0504 20.0161 14.4946 19.4021C16.1187 17.8183 17.8311 16.1478 19.54 14.481Z" fill="url(#paint4_linear_59_937)"/>
<path d="M82.957 39.6951C82.957 40.6197 82.957 41.4811 82.957 42.3877C81.1255 42.3877 79.3336 42.3877 77.4696 42.3877C77.4696 41.5226 77.4696 40.6396 77.4696 39.6951C79.2596 39.6951 81.0731 39.6951 82.957 39.6951Z" fill="url(#paint5_linear_59_937)"/>
<path d="M82.9552 35.4836C82.9552 36.383 82.9552 37.2444 82.9552 38.169C82.0764 38.169 81.194 38.169 80.2557 38.169C80.2557 37.2968 80.2557 36.4155 80.2557 35.4836C81.1291 35.4836 81.9898 35.4836 82.9552 35.4836Z" fill="url(#paint6_linear_59_937)"/>
</g>
<defs>
<linearGradient id="paint0_linear_59_937" x1="10" y1="13" x2="91" y2="87" gradientUnits="userSpaceOnUse">
<stop stop-color="#02C0C2"/>
<stop offset="1" stop-color="#164A9E"/>
</linearGradient>
<linearGradient id="paint1_linear_59_937" x1="40.8703" y1="17.8132" x2="59.7134" y2="35.0499" gradientUnits="userSpaceOnUse">
<stop stop-color="#02C0C2"/>
<stop offset="1" stop-color="#164A9E"/>
</linearGradient>
<linearGradient id="paint2_linear_59_937" x1="75.2012" y1="44.1619" x2="76.8478" y2="48.7902" gradientUnits="userSpaceOnUse">
<stop stop-color="#02C0C2"/>
<stop offset="1" stop-color="#164A9E"/>
</linearGradient>
<linearGradient id="paint3_linear_59_937" x1="10.6239" y1="10.9045" x2="17.2069" y2="16.906" gradientUnits="userSpaceOnUse">
<stop stop-color="#02C0C2"/>
<stop offset="1" stop-color="#164A9E"/>
</linearGradient>
<linearGradient id="paint4_linear_59_937" x1="14.9188" y1="15.1504" x2="21.395" y2="21.0004" gradientUnits="userSpaceOnUse">
<stop stop-color="#02C0C2"/>
<stop offset="1" stop-color="#164A9E"/>
</linearGradient>
<linearGradient id="paint5_linear_59_937" x1="77.8197" y1="39.9632" x2="79.9932" y2="44.0099" gradientUnits="userSpaceOnUse">
<stop stop-color="#02C0C2"/>
<stop offset="1" stop-color="#164A9E"/>
</linearGradient>
<linearGradient id="paint6_linear_59_937" x1="80.428" y1="35.751" x2="83.0186" y2="38.1303" gradientUnits="userSpaceOnUse">
<stop stop-color="#02C0C2"/>
<stop offset="1" stop-color="#164A9E"/>
</linearGradient>
<clipPath id="clip0_59_937">
<rect width="88" height="88" fill="white"/>
</clipPath>
</defs>
</svg>
