<svg width="88" height="88" viewBox="0 0 88 88" fill="none" xmlns="http://www.w3.org/2000/svg">
<path d="M70.4073 57.0644C73.6523 58.4944 76.3987 60.6394 78.4887 63.5837C81.928 68.4347 82.3387 73.9201 81.499 79.5191C81.1213 82.0344 79.2257 83.6367 76.6553 84.1537C75.768 84.3334 74.833 84.326 73.92 84.326C59.6273 84.3371 45.331 84.3334 31.0383 84.3334C26.2387 84.3334 24.4127 82.5037 24.409 77.7114C24.409 75.6507 24.409 73.5864 24.409 71.3277C20.2803 71.3277 16.3313 71.3277 12.3787 71.3277C10.791 71.3277 9.20333 71.3534 7.61566 71.3204C5.313 71.2727 3.861 69.9271 3.61166 67.6427C3.553 67.1001 3.58233 66.5427 3.58233 65.9964C3.58233 46.9371 3.58233 27.8814 3.58233 8.82205C3.58233 4.88039 4.88766 3.58972 8.866 3.58972C29.634 3.58972 50.402 3.58972 71.17 3.58972C75.3793 3.58972 76.4793 4.69706 76.483 8.90639C76.483 9.82305 76.538 10.7434 76.472 11.6527C76.2007 15.5981 76.692 18.9091 79.8893 22.0991C84.326 26.5211 84.8577 32.6517 84.2967 38.7164C83.4863 47.4357 78.8847 53.3647 70.7923 56.6317C70.6787 56.6757 70.565 56.7197 70.4623 56.7821C70.4403 56.7931 70.4477 56.8664 70.4073 57.0644ZM54.2887 58.1314C47.4687 55.2641 45.287 51.9531 45.287 44.7077C45.287 41.7121 45.2613 38.7201 45.298 35.7244C45.3163 34.3714 45.3273 33.1981 43.9267 32.2924C43.2593 31.8597 42.8157 30.6424 42.7863 29.7661C42.735 28.3324 42.977 26.8474 43.3253 25.4467C44.209 21.9157 46.3687 19.1804 49.3607 16.8081C34.7783 16.8081 20.482 16.8081 6.21866 16.8081C6.15633 17.0757 6.10866 17.1931 6.10866 17.3104C6.10133 33.8067 6.10133 50.3067 6.07933 66.8031C6.07566 68.3247 6.80166 68.8014 8.24266 68.7867C13.1927 68.7354 18.1427 68.7647 23.089 68.7537C23.4923 68.7537 23.8957 68.6621 24.3907 68.6034C24.3907 66.6747 24.3833 64.8487 24.3907 63.0227C24.4053 59.8804 25.817 58.4211 28.9483 58.4064C34.2027 58.3807 39.457 58.4357 44.7113 58.3807C47.113 58.3551 49.412 58.3661 50.3287 61.1784C51.7403 60.0931 52.9393 59.1691 54.2887 58.1314ZM68.871 54.4611C69.377 54.3071 69.6593 54.2337 69.9343 54.1311C78.243 51.0217 82.654 43.3401 81.7227 33.6051C80.8793 24.7867 75.306 18.4214 66.605 16.9841C63.2793 16.4341 59.752 16.5111 56.3897 16.8997C50.5523 17.5781 46.134 22.3044 45.3897 28.0317C45.0853 30.3601 45.5437 30.9064 47.8427 30.9064C52.9723 30.9101 58.1057 31.0274 63.228 30.8697C67.4667 30.7414 68.7757 32.4317 68.9847 36.0067C71.7713 36.6191 73.8503 38.0307 73.9713 41.1731C74.1033 44.6161 71.9107 46.1414 68.8783 46.8344C68.871 49.3461 68.871 51.7807 68.871 54.4611ZM6.12333 14.0727C7.03266 14.0727 7.744 14.0727 8.459 14.0727C26.7813 14.0727 45.1037 14.0947 63.426 14.0544C66.6637 14.0471 69.7033 14.7071 72.633 16.0124C73.0437 16.1957 73.458 16.3681 74.041 16.6174C74.041 13.9847 74.0447 11.5464 74.041 9.11172C74.0373 6.29205 73.8577 6.11606 71.0197 6.11606C50.3763 6.11606 29.733 6.11606 9.08966 6.11606C8.66066 6.11606 8.129 5.95839 7.82833 6.15639C7.194 6.56706 6.25533 7.12439 6.20033 7.69272C6.00233 9.73139 6.12333 11.7994 6.12333 14.0727ZM56.4813 59.9061C55.165 60.8704 53.9477 61.5671 52.987 62.5241C52.019 63.4847 50.7027 64.6507 50.5963 65.8241C50.281 69.3221 50.4827 72.8714 50.4827 76.494C51.656 76.4061 52.822 77.2567 53.295 75.4967C54.0467 72.7101 55.8617 71.3607 58.7657 71.3351C63.2243 71.2984 67.683 71.3094 72.1417 71.3461C72.633 71.3497 73.3187 71.4781 73.5717 71.8081C74.558 73.0877 75.4087 74.4737 76.351 75.8817C75.5187 76.4354 74.8843 76.8607 74.1877 77.3264C73.5423 76.3547 73.073 75.4894 72.4423 74.7634C72.1013 74.3674 71.4927 74.0044 70.9903 73.9824C69.102 73.8907 67.2063 73.9567 65.3107 73.9457C64.086 73.9384 63.5323 74.5471 63.5433 75.7534C63.558 77.1577 63.5763 78.5657 63.536 79.9664C63.4993 81.2827 64.119 81.8767 65.4023 81.873C68.64 81.8657 71.8777 81.9207 75.1153 81.8511C77.3117 81.8034 79.046 80.4064 79.0717 78.3127C79.1083 75.4051 79.1193 72.4021 78.4593 69.6044C77.4547 65.3584 74.701 62.2344 70.5907 60.0821C70.3047 62.5314 70.0443 64.7351 69.7547 67.1917C67.551 65.5601 65.56 64.0861 63.547 62.5937C61.5047 64.0934 59.532 65.5454 57.3063 67.1844C57.0203 64.6324 56.7747 62.4727 56.4813 59.9061ZM47.993 33.5537C47.993 38.0124 47.993 42.2511 47.993 46.7281C51.4873 46.7281 54.868 46.7281 58.2633 46.7281C58.564 50.4131 57.134 53.0677 54.109 55.3337C58.3587 56.1441 62.1793 55.9314 66.209 55.3521C66.209 51.5571 66.209 47.8647 66.209 44.1981C70.4953 43.7617 71.3057 43.3144 71.335 41.4517C71.3643 39.5597 70.6163 39.1271 66.1833 38.5514C66.1833 37.4991 66.1613 36.4174 66.1907 35.3357C66.2237 34.1184 65.681 33.5427 64.4453 33.5464C59.0113 33.5647 53.581 33.5537 47.993 33.5537ZM47.927 76.5307C47.927 71.7237 47.971 67.0341 47.8573 62.3444C47.8463 61.8824 46.8747 61.0611 46.3393 61.0537C40.4213 60.9621 34.496 60.9621 28.578 61.0611C28.0427 61.0684 27.0747 61.9264 27.0637 62.4067C26.95 67.0854 26.994 71.7641 26.994 76.5344C34.0523 76.5307 40.9163 76.5307 47.927 76.5307ZM26.9903 79.2991C27.5367 81.4514 28.8677 81.9354 30.6423 81.9317C40.2197 81.9024 49.8007 81.9207 59.378 81.9134C59.9097 81.9134 60.4413 81.8547 60.907 81.8291C60.907 80.9087 60.907 80.1424 60.907 79.2991C49.588 79.2991 38.3937 79.2991 26.9903 79.2991ZM48.3047 49.3791C49.236 51.1281 49.6357 53.0054 51.5643 53.2914C53.064 53.5151 54.813 51.5021 55.341 49.3791C53.097 49.3791 50.8677 49.3791 48.3047 49.3791ZM67.8957 59.0627C64.9697 58.2817 62.1317 58.2267 59.1983 59.0774C59.2643 60.1591 59.323 61.0904 59.4257 62.7991C62.1207 59.0444 64.636 59.1727 67.1843 61.9191C67.243 61.9851 67.4117 61.9484 67.606 61.9667C67.7013 61.4387 67.8297 60.9071 67.8883 60.3717C67.9323 59.9611 67.8957 59.5431 67.8957 59.0627ZM60.907 74.1767C57.618 73.5681 56.199 74.2317 55.935 76.5821C57.5593 76.5821 59.1727 76.5821 60.907 76.5821C60.907 75.7021 60.907 74.9394 60.907 74.1767Z" fill="#164A9E"/>
<path d="M13.4603 24.7794C16.852 23.551 20.207 22.319 23.584 21.1494C23.9947 21.0064 24.5557 21.1237 24.9957 21.2777C27.863 22.2787 30.6973 23.375 33.583 24.3174C34.584 24.6437 34.7673 25.1754 34.6573 26.07C34.1733 29.997 33.737 33.935 33.198 37.8547C33.132 38.3387 32.6627 38.918 32.2227 39.1784C29.9163 40.5387 27.588 41.866 25.1973 43.0687C24.6217 43.3584 23.661 43.373 23.089 43.087C20.6983 41.8917 18.3517 40.59 16.071 39.193C15.51 38.852 15.004 38.0344 14.916 37.378C14.366 33.275 13.948 29.1574 13.4603 24.7794ZM33.0807 25.9197C30.1987 24.8894 27.467 23.8847 24.706 22.9497C24.2843 22.8067 23.7233 22.8727 23.287 23.0194C20.9293 23.8224 18.568 24.629 16.258 25.5604C15.8327 25.7327 15.3487 26.51 15.3853 26.9647C15.6347 29.9384 16.0343 32.8974 16.357 35.8674C16.4817 37.015 16.8117 37.8804 18.018 38.4304C19.7853 39.237 21.4023 40.3664 23.155 41.2097C23.6977 41.4737 24.5777 41.4847 25.1203 41.228C26.9867 40.337 28.809 39.3434 30.558 38.2434C31.1153 37.8914 31.647 37.1214 31.7423 36.476C32.2593 33.0477 32.6297 29.5974 33.0807 25.9197Z" fill="#02C0C2"/>
<path d="M24.4677 50.3178C24.4677 49.5148 24.4677 48.8511 24.4677 48.0481C30.514 48.0481 36.5127 48.0481 42.6103 48.0481C42.6103 48.7814 42.6103 49.4854 42.6103 50.3178C36.6227 50.3178 30.624 50.3178 24.4677 50.3178Z" fill="#02C0C2"/>
<path d="M42.6433 53.3243C42.6433 54.0943 42.6433 54.747 42.6433 55.5097C36.5787 55.5097 30.58 55.5097 24.497 55.5097C24.497 54.78 24.497 54.131 24.497 53.3243C30.4993 53.3243 36.4907 53.3243 42.6433 53.3243Z" fill="#02C0C2"/>
<path d="M8.94667 47.993C13.2477 47.993 17.4277 47.993 21.7067 47.993C21.7067 48.7777 21.7067 49.4817 21.7067 50.3177C17.4973 50.3177 13.2733 50.3177 8.94667 50.3177C8.94667 49.6027 8.94667 48.9024 8.94667 47.993Z" fill="#02C0C2"/>
<path d="M8.93933 60.8704C8.93933 60.0858 8.93933 59.3744 8.93933 58.5531C13.1817 58.5531 17.4093 58.5531 21.725 58.5531C21.725 59.3378 21.725 60.0454 21.725 60.8704C17.479 60.8704 13.255 60.8704 8.93933 60.8704Z" fill="#02C0C2"/>
<path d="M21.7397 63.7303C21.7397 64.5553 21.7397 65.2667 21.7397 66.077C17.4497 66.077 13.2257 66.077 8.92467 66.077C8.92467 65.296 8.92467 64.5773 8.92467 63.7303C13.134 63.7303 17.3507 63.7303 21.7397 63.7303Z" fill="#02C0C2"/>
<path d="M21.7433 53.2694C21.7433 54.1017 21.7433 54.7544 21.7433 55.5097C19.2207 55.5097 16.7677 55.5097 14.201 55.5097C14.201 54.7654 14.201 54.0687 14.201 53.2694C16.687 53.2694 19.1473 53.2694 21.7433 53.2694Z" fill="#02C0C2"/>
<path d="M11.253 53.1448C11.253 54.0944 11.253 54.7361 11.253 55.4988C10.538 55.4988 9.84867 55.4988 8.987 55.4988C8.95767 54.8864 8.92467 54.2521 8.877 53.3428C9.63967 53.2804 10.3437 53.2181 11.253 53.1448Z" fill="#02C0C2"/>
<path d="M19.3343 8.89172C20.1813 8.89172 20.9403 8.89172 21.7617 8.89172C21.7617 9.72039 21.7617 10.4354 21.7617 11.2714C20.955 11.2714 20.196 11.2714 19.3343 11.2714C19.3343 10.4611 19.3343 9.71306 19.3343 8.89172Z" fill="#02C0C2"/>
<path d="M14.1717 8.86975C14.9857 8.86975 15.6823 8.86975 16.522 8.86975C16.522 9.66542 16.522 10.4024 16.522 11.2678C15.7703 11.2678 15.0187 11.2678 14.1717 11.2678C14.1717 10.4941 14.1717 9.79375 14.1717 8.86975Z" fill="#02C0C2"/>
<path d="M8.976 8.90271C9.812 8.90271 10.461 8.90271 11.2493 8.90271C11.2493 9.67271 11.2493 10.3657 11.2493 11.2237C10.5417 11.2237 9.812 11.2237 8.976 11.2237C8.976 10.472 8.976 9.77538 8.976 8.90271Z" fill="#02C0C2"/>
<path d="M60.7787 41.1804C59.521 41.4811 58.5897 41.5104 57.8673 39.9924C57.0533 38.2801 54.7617 38.3754 53.6213 39.9631C52.5653 41.4334 52.5653 41.4334 50.7503 41.1401C50.8383 38.4047 52.8953 36.2891 55.5463 36.2047C58.3623 36.1131 60.555 38.1774 60.7787 41.1804Z" fill="#02C0C2"/>
<path d="M37.3927 63.6057C39.556 63.5727 41.239 65.1787 41.2977 67.3384C41.36 69.5714 39.6623 71.3314 37.4513 71.3204C35.3833 71.3094 33.583 69.5384 33.561 67.4887C33.539 65.4574 35.332 63.6387 37.3927 63.6057ZM37.4147 69.2927C38.027 68.4897 38.665 68.0241 38.654 67.5731C38.643 67.1074 38.0013 66.6564 37.6347 66.1981C37.1397 66.6124 36.4027 66.9461 36.234 67.4631C36.1167 67.8077 36.817 68.4201 37.4147 69.2927Z" fill="#02C0C2"/>
<path d="M18.788 37.0151C20.5517 33.0551 22.275 29.1831 24.1523 24.9664C26.0333 29.1721 27.7823 33.0808 29.535 37.0041C28.083 37.6164 27.335 37.0518 27.038 35.7648C26.5723 33.7444 24.9663 34.5731 23.7673 34.4374C22.6453 34.3091 21.5527 34.2944 21.2447 35.7941C20.999 37.0004 20.306 37.5834 18.788 37.0151ZM22.5427 32.7434C23.6573 32.7434 24.6033 32.7434 25.751 32.7434C25.234 31.4858 24.7647 30.3418 24.167 28.8898C23.562 30.3308 23.078 31.4748 22.5427 32.7434Z" fill="#02C0C2"/>
</svg>
