<svg width="88" height="88" viewBox="0 0 88 88" fill="none" xmlns="http://www.w3.org/2000/svg">
<path d="M86.2062 86.372C58.0563 86.372 29.9065 86.372 1.75492 86.372C1.75492 83.3479 1.75492 80.3237 1.75492 77.2996C1.84123 77.0728 1.94108 76.8494 2.01385 76.6192C2.56385 74.8745 3.70277 73.6492 5.42216 73.0925C6.21585 72.8352 6.776 72.4595 7.326 71.8368C7.84893 71.2428 8.60708 70.8214 9.32462 70.4457C9.74262 70.2274 9.95077 70.0599 9.94908 69.5556C9.93046 63.5089 9.93216 57.4623 9.94739 51.4157C9.94908 50.9199 9.77308 50.7269 9.32293 50.5357C7.14831 49.6151 5.95016 47.9651 5.86893 45.5806C5.82662 44.3452 5.83846 43.1065 5.86554 41.8711C5.87569 41.4125 5.93492 40.9352 6.07877 40.5037C8.756 32.4297 11.4552 24.3642 14.1274 16.2868C14.3135 15.7216 14.564 15.5269 15.1631 15.532C18.6797 15.5608 22.198 15.5236 25.7163 15.5625C26.4897 15.5709 26.8028 15.3662 27.06 14.5826C29.3294 7.69494 34.0205 3.35587 41.184 2.18987C48.2155 1.04587 53.9626 3.60633 58.2949 9.26033C59.7131 11.1117 60.6083 13.2339 61.204 15.5456C61.5357 15.5456 61.8335 15.5456 62.1331 15.5456C65.6514 15.5456 69.168 15.5676 72.6863 15.5269C73.3971 15.5185 73.6611 15.7672 73.8743 16.4137C76.5262 24.4386 79.2102 32.4517 81.8806 40.4699C81.9923 40.8032 82.0922 41.1603 82.0989 41.5072C82.1209 42.8814 82.1429 44.2572 82.0922 45.6297C82.0042 47.9786 80.8077 49.6117 78.6703 50.5205C78.1779 50.7303 78.0154 50.9469 78.0171 51.4648C78.034 57.4843 78.0323 63.5039 78.0188 69.5234C78.0171 69.9972 78.1914 70.1868 78.6043 70.4406C79.4742 70.9737 80.2425 71.6743 81.0548 72.3039C81.3019 72.4951 81.5286 72.7743 81.8078 72.8522C84.6915 73.6476 86.2028 75.6022 86.2079 78.6229C86.2112 81.2037 86.2062 83.7879 86.2062 86.372ZM31.746 83.5899C31.746 73.6103 31.746 63.6799 31.746 53.7359C39.952 53.7359 48.0463 53.7359 56.2523 53.7359C56.2523 63.7103 56.2523 73.6391 56.2523 83.5882C57.2051 83.5882 58.0445 83.5882 58.9786 83.5882C58.9786 81.7588 58.9532 79.9785 58.9854 78.1999C59.0328 75.5632 60.6794 73.5426 63.2128 72.8809C63.5411 72.7946 63.8254 72.5052 64.108 72.2819C64.8763 71.6794 65.5448 70.7791 66.4112 70.51C68.0612 70.0006 69.7112 69.5251 71.3308 68.904C72.6389 68.4014 73.9775 68.8126 75.2214 69.3457C75.262 69.2814 75.2857 69.2611 75.2857 69.2408C75.2958 63.2212 75.3077 57.2017 75.2975 51.1822C75.2975 51.0011 75.1114 50.754 74.9422 50.6525C74.1535 50.1736 73.3395 49.7352 72.4832 49.2546C69.344 51.5596 67.9495 51.5646 64.3534 49.1734C63.25 50.2632 61.9368 50.9199 60.3375 50.9266C58.7129 50.9334 57.3845 50.2497 56.2354 49.1176C55.0711 50.2768 53.7494 50.9199 52.1502 50.9266C50.5238 50.9334 49.1988 50.2277 48.0717 49.1446C45.1372 51.5392 43.1708 51.5392 39.8995 49.192C37.2748 51.5748 34.1525 51.4682 31.6682 49.1463C30.5732 50.2785 29.2482 50.9131 27.6472 50.9249C26.0226 50.9368 24.6975 50.2412 23.5298 49.1176C22.3706 50.2937 21.0405 50.9216 19.4429 50.9266C17.82 50.9317 16.5034 50.2209 15.4745 49.2343C14.4929 49.8216 13.6078 50.3529 12.7008 50.8945C12.7008 56.9834 12.7008 63.1468 12.7008 69.3711C14.8889 68.3828 16.9129 68.5012 18.8252 69.9008C18.9995 70.0277 19.2906 70.026 19.5292 70.0311C21.3298 70.0666 22.7328 70.8434 23.8429 72.2429C24.0731 72.5323 24.4403 72.7963 24.7923 72.8894C27.2394 73.5359 28.8945 75.5463 28.9723 78.078C29.0028 79.0392 28.9825 80.0022 28.9842 80.9634C28.9858 81.8332 28.9842 82.7014 28.9842 83.5848C29.9522 83.5899 30.7932 83.5899 31.746 83.5899ZM53.4719 83.5814C53.4719 74.5174 53.4719 65.4906 53.4719 56.4452C47.1105 56.4452 40.8066 56.4452 34.4757 56.4452C34.4757 65.5109 34.4757 74.5174 34.4757 83.5814C40.8235 83.5814 47.1274 83.5814 53.4719 83.5814ZM52.1671 32.0422C57.0866 29.0417 60.2089 22.3994 58.4591 15.7791C56.7329 9.2451 50.6762 4.59463 43.9289 4.65217C36.872 4.7131 30.8575 9.54294 29.3429 16.4391C27.918 22.924 31.1232 29.2448 35.7314 31.9863C35.7551 31.8408 35.7923 31.7156 35.7923 31.592C35.7957 29.0908 35.7839 26.5896 35.8059 24.0883C35.8109 23.6009 35.5808 23.4503 35.1814 23.2845C33.2538 22.4857 31.9965 21.0439 31.8103 18.9674C31.5598 16.1886 32.4889 13.6925 34.3234 11.6126C36.1646 9.52602 38.1192 9.56156 40.0299 11.6008C41.2229 12.8751 41.8982 14.4456 42.2992 16.1142C43.164 19.712 42.2349 21.6192 38.8605 23.4097C38.7082 23.4909 38.5508 23.7296 38.5491 23.8971C38.5305 27.1091 38.5355 30.3228 38.5355 33.55C42.0268 34.8869 45.4842 34.9276 48.9737 33.7345C49.4323 33.5771 49.4306 33.2877 49.4306 32.9154C49.4239 30.0012 49.4154 27.0871 49.4374 24.1746C49.4408 23.6906 49.2952 23.4791 48.8299 23.2896C46.8363 22.4772 45.6094 20.9931 45.4215 18.8303C45.2862 17.2751 45.3471 15.7012 45.3302 14.1359C45.32 13.266 45.3285 12.3945 45.3285 11.5229C46.3015 11.5229 47.1612 11.5229 48.0835 11.5229C48.0835 11.8834 48.0835 12.1812 48.0835 12.4791C48.0852 14.4032 48.0751 16.3274 48.0937 18.2516C48.1039 19.2026 48.4795 19.9642 49.4425 20.5345C49.4425 17.4511 49.4425 14.4963 49.4425 11.5179C50.3732 11.5179 51.2312 11.5179 52.1992 11.5179C52.1992 14.5166 52.1992 17.4596 52.1992 20.5176C53.24 19.8542 53.5175 18.9725 53.526 17.974C53.5395 16.1057 53.5311 14.2357 53.5311 12.3657C53.5311 12.0763 53.5311 11.7886 53.5311 11.5179C54.4991 11.5179 55.3368 11.5179 56.2252 11.5179C56.2252 13.7737 56.2472 15.9686 56.2185 18.1652C56.1863 20.6529 54.9645 22.352 52.6968 23.3454C52.4768 23.4419 52.1942 23.7363 52.1908 23.9411C52.1552 26.6031 52.1671 29.2668 52.1671 32.0422ZM21.9154 18.2803C20.2992 25.5522 18.7 32.7512 17.0889 40.0011C18.8946 40.0011 20.6191 40.0011 22.4028 40.0011C23.6094 32.7597 24.8126 25.542 26.0243 18.2803C24.6078 18.2803 23.2963 18.2803 21.9154 18.2803ZM70.8772 40.0062C69.2543 32.7056 67.6534 25.5048 66.0508 18.3006C64.6614 18.3006 63.3295 18.3006 61.9402 18.3006C63.1552 25.5776 64.3585 32.7936 65.5617 40.0062C67.3809 40.0062 69.08 40.0062 70.8772 40.0062ZM83.3902 78.1339C83.3969 76.4991 82.2022 75.4228 80.4489 75.5091C79.8143 75.5396 79.4894 75.4177 79.2575 74.7543C78.6974 73.1432 77.4891 72.5069 75.8205 72.8996C75.3246 73.0163 75.0843 72.8843 74.7814 72.5425C73.4512 71.0414 71.7082 71.0448 70.3814 72.5526C70.0734 72.9012 69.8229 73.0112 69.3372 72.8979C67.7431 72.5222 66.4857 73.1162 65.9712 74.6122C65.6903 75.4279 65.2791 75.5328 64.5395 75.504C62.9268 75.4397 61.798 76.5346 61.7726 78.1356C68.9565 78.1339 76.1403 78.1339 83.3902 78.1339ZM26.1952 78.1542C26.1495 76.4619 24.9937 75.4194 23.2438 75.5091C22.6042 75.5412 22.2775 75.4076 22.0457 74.756C21.472 73.1382 20.284 72.5052 18.6137 72.8996C18.1195 73.0163 17.8775 72.8877 17.5729 72.5442C16.2478 71.0431 14.5048 71.0448 13.1729 72.5509C12.8649 72.8979 12.6178 73.0112 12.1288 72.8962C10.5278 72.5188 9.284 73.1111 8.76277 74.6122C8.48354 75.4177 8.07569 75.6174 7.33616 75.4905C7.17708 75.4634 7.00616 75.482 6.84369 75.5023C5.47462 75.6682 4.43216 76.912 4.64877 78.1559C11.8055 78.1542 18.9674 78.1542 26.1952 78.1542ZM14.2966 40.0112C15.9077 32.7512 17.5086 25.5403 19.1265 18.2482C18.3683 18.2482 17.7354 18.2871 17.1109 18.2363C16.5525 18.1906 16.2986 18.3785 16.1175 18.9234C13.8769 25.7197 11.6075 32.5076 9.35 39.2971C9.27723 39.5137 9.23492 39.7422 9.16723 40.0112C10.9035 40.0112 12.5468 40.0112 14.2966 40.0112ZM78.8514 40.0045C77.8732 37.0734 76.934 34.2692 75.9999 31.4634C74.6138 27.302 73.238 23.1356 71.8317 18.9809C71.7369 18.7017 71.4577 18.3108 71.2275 18.2837C70.4728 18.1957 69.7011 18.2499 68.8363 18.2499C70.4575 25.5522 72.0602 32.7699 73.6662 40.0045C75.3957 40.0045 77.0643 40.0045 78.8514 40.0045ZM26.2375 80.9956C18.9471 80.9956 11.7412 80.9956 4.55739 80.9956C4.55739 81.9026 4.55739 82.7403 4.55739 83.5899C11.814 83.5899 18.9995 83.5899 26.2375 83.5899C26.2375 82.7031 26.2375 81.8654 26.2375 80.9956ZM61.6745 80.9617C61.6745 81.6352 61.7185 82.2123 61.6626 82.7809C61.5949 83.4782 61.8623 83.6559 62.5392 83.6525C69.2425 83.6288 75.9457 83.6389 82.6472 83.6372C82.9078 83.6372 83.1685 83.6068 83.4071 83.5916C83.4071 82.6506 83.4071 81.8163 83.4071 80.9617C76.1539 80.9617 68.9666 80.9617 61.6745 80.9617ZM30.5005 39.9926C30.7577 37.7385 30.9726 35.5266 31.2772 33.3283C31.4059 32.406 31.1994 31.7359 30.5411 31.0572C29.8811 30.3769 29.3598 29.5443 28.8538 28.732C28.3715 27.9586 27.9874 27.1226 27.4746 26.1512C26.6894 30.8626 25.9329 35.3997 25.168 39.9926C26.9432 39.9926 28.6643 39.9926 30.5005 39.9926ZM62.7982 40.0028C62.0248 35.3692 61.2683 30.8356 60.5119 26.3052C59.6792 27.6642 59.0565 29.1331 58.036 30.2297C56.7752 31.5836 56.5011 32.9492 56.8277 34.6822C57.156 36.4252 57.2592 38.2106 57.4623 40.0028C59.2629 40.0028 60.984 40.0028 62.7982 40.0028ZM39.864 17.8116C39.71 16.3849 39.1312 14.8365 38.0955 13.4792C37.444 12.628 36.9245 12.6263 36.2611 13.4691C35.2745 14.7248 34.7177 16.1717 34.4943 17.7456C34.2523 19.4548 35.4183 20.9 37.0818 20.9711C38.6591 21.0405 39.9046 19.7509 39.864 17.8116ZM41.36 42.8289C41.36 43.978 41.2449 45.1102 41.3922 46.2068C41.5478 47.3728 42.7832 48.2274 43.9797 48.2291C45.1745 48.2308 46.4149 47.3779 46.5706 46.2119C46.7178 45.1152 46.6028 43.9814 46.6028 42.8289C44.858 42.8289 43.1082 42.8289 41.36 42.8289ZM65.7834 42.8256C65.7834 43.8477 65.7275 44.7785 65.7969 45.7008C65.9019 47.1071 67.0069 48.1428 68.3777 48.2257C69.6351 48.3019 70.9534 47.3796 71.1226 46.1036C71.2648 45.0391 71.1514 43.9408 71.1514 42.8272C69.3609 42.8256 67.6178 42.8256 65.7834 42.8256ZM16.7555 42.8289C16.7555 43.7817 16.7352 44.6549 16.7606 45.5265C16.8046 47.0123 17.8826 48.1292 19.3312 48.224C20.6546 48.3103 21.9475 47.3356 22.1185 45.9512C22.2437 44.9376 22.1438 43.8951 22.1438 42.8289C20.3517 42.8289 18.6086 42.8289 16.7555 42.8289ZM38.5203 42.8509C36.6723 42.8509 34.9089 42.8509 33.0965 42.8509C33.0965 43.8071 33.066 44.7091 33.1032 45.6077C33.1642 47.0631 34.3318 48.1936 35.7568 48.2308C37.158 48.2663 38.4086 47.1562 38.5068 45.7092C38.5728 44.7836 38.5203 43.8528 38.5203 42.8509ZM54.8646 42.8476C53.0183 42.8476 51.2566 42.8476 49.4459 42.8476C49.4459 43.8528 49.3866 44.8106 49.4594 45.76C49.5677 47.1663 50.8014 48.246 52.1722 48.2325C53.5886 48.2189 54.7885 47.0868 54.8562 45.6399C54.8985 44.7396 54.8646 43.8342 54.8646 42.8476ZM57.6468 42.834C57.6468 43.8849 57.596 44.8479 57.6586 45.8023C57.7449 47.1139 58.8212 48.1123 60.1582 48.2206C61.3885 48.3205 62.7152 47.4456 62.9166 46.2152C63.096 45.122 63.052 43.9916 63.1079 42.834C61.2159 42.834 59.4711 42.834 57.6468 42.834ZM24.9006 42.8357C24.9006 43.7292 24.8939 44.5212 24.904 45.3149C24.9074 45.5603 24.9429 45.8091 24.9903 46.0494C25.2374 47.3017 26.3628 48.2257 27.6337 48.2308C28.8555 48.2342 30.1078 47.3254 30.25 46.1374C30.3786 45.0645 30.2771 43.9645 30.2771 42.8357C28.4985 42.8357 26.752 42.8357 24.9006 42.8357ZM79.3828 42.8662C77.5297 42.8662 75.7646 42.8662 73.9691 42.8662C73.9691 43.7902 73.9488 44.6414 73.9742 45.4926C74.0198 47.0394 75.1266 48.1766 76.604 48.2291C78.0069 48.2782 79.2305 47.212 79.3675 45.7126C79.4505 44.7903 79.3828 43.8545 79.3828 42.8662ZM8.55462 42.8222C8.55462 43.7292 8.54785 44.5483 8.55969 45.3674C8.56308 45.6128 8.60369 45.8599 8.65785 46.1002C8.92693 47.3 9.94908 48.158 11.1794 48.2257C12.3572 48.2917 13.6231 47.5031 13.8431 46.3151C14.0529 45.1829 13.9852 44 14.0394 42.8205C12.1322 42.8222 10.406 42.8222 8.55462 42.8222ZM54.7157 39.9892C54.4957 38.0499 54.2808 36.1663 54.076 34.3674C52.4988 35.0782 51.0028 35.7449 49.5169 36.4337C49.3748 36.4997 49.1954 36.7011 49.2005 36.8348C49.2326 37.8891 49.3054 38.9434 49.3646 39.9892C51.2126 39.9892 52.932 39.9892 54.7157 39.9892ZM33.88 34.3606C33.6769 36.1917 33.4688 38.0803 33.2555 39.996C35.09 39.996 36.8094 39.996 38.6049 39.996C38.6642 38.9214 38.7369 37.884 38.7589 36.8466C38.7623 36.7011 38.544 36.4879 38.3798 36.41C36.9211 35.7297 35.4505 35.0731 33.88 34.3606ZM41.3295 39.9774C43.1606 39.9774 44.8682 39.9774 46.6349 39.9774C46.5706 39.0229 46.5097 38.1311 46.4505 37.2629C44.7785 37.2629 43.1792 37.2629 41.5106 37.2629C41.4531 38.1379 41.3938 39.028 41.3295 39.9774Z" fill="url(#paint0_linear_57_931)"/>
<path d="M16.808 55.0762C20.4397 55.0762 23.9986 55.0762 27.5998 55.0762C27.5998 58.6774 27.5998 62.238 27.5998 65.8629C24.0223 65.8629 20.4431 65.8629 16.808 65.8629C16.808 62.2939 16.808 58.7129 16.808 55.0762ZM19.4514 57.8312C19.4514 59.5202 19.4412 61.1583 19.4683 62.7948C19.47 62.9386 19.7002 63.1992 19.8288 63.2009C21.4906 63.228 23.1542 63.2196 24.8295 63.2196C24.8295 61.3563 24.8295 59.5946 24.8295 57.8312C23.0222 57.8312 21.2808 57.8312 19.4514 57.8312Z" fill="url(#paint1_linear_57_931)"/>
<path d="M71.148 65.8917C67.5383 65.8917 63.9777 65.8917 60.368 65.8917C60.368 62.2769 60.368 58.6977 60.368 55.0745C63.9642 55.0745 67.5231 55.0745 71.148 55.0745C71.148 58.6554 71.148 62.2346 71.148 65.8917ZM63.1079 63.2195C64.8103 63.2195 66.4738 63.228 68.1357 63.2009C68.2626 63.1992 68.4911 62.9369 68.4945 62.7931C68.5198 61.1566 68.5114 59.5202 68.5114 57.8363C66.6617 57.8363 64.9017 57.8363 63.1079 57.8363C63.1079 59.6352 63.1079 61.3783 63.1079 63.2195Z" fill="url(#paint2_linear_57_931)"/>
<path d="M39.8522 68.7297C39.8522 69.6165 39.8522 70.4322 39.8522 71.3105C38.984 71.3105 38.1294 71.3105 37.2308 71.3105C37.2308 70.4508 37.2308 69.6165 37.2308 68.7297C38.0989 68.7297 38.9315 68.7297 39.8522 68.7297Z" fill="url(#paint3_linear_57_931)"/>
<defs>
<linearGradient id="paint0_linear_57_931" x1="13" y1="20" x2="83" y2="81" gradientUnits="userSpaceOnUse">
<stop stop-color="#02C0C2"/>
<stop offset="1" stop-color="#164A9E"/>
</linearGradient>
<linearGradient id="paint1_linear_57_931" x1="18.2449" y1="57.3852" x2="27.1866" y2="65.1804" gradientUnits="userSpaceOnUse">
<stop stop-color="#02C0C2"/>
<stop offset="1" stop-color="#164A9E"/>
</linearGradient>
<linearGradient id="paint2_linear_57_931" x1="61.8034" y1="57.39" x2="70.7654" y2="65.1725" gradientUnits="userSpaceOnUse">
<stop stop-color="#02C0C2"/>
<stop offset="1" stop-color="#164A9E"/>
</linearGradient>
<linearGradient id="paint3_linear_57_931" x1="37.5798" y1="69.2822" x2="39.7233" y2="71.1794" gradientUnits="userSpaceOnUse">
<stop stop-color="#02C0C2"/>
<stop offset="1" stop-color="#164A9E"/>
</linearGradient>
</defs>
</svg>
