<svg width="88" height="88" viewBox="0 0 88 88" fill="none" xmlns="http://www.w3.org/2000/svg">
<path d="M58.5488 52.8746C61.6491 52.6749 64.6224 52.4837 67.5941 52.2924C69.7231 52.1553 71.8503 52.0233 73.9792 51.8761C75.3534 51.7813 76.5617 52.1773 77.6498 53.01C78.6703 53.7901 79.7212 54.5296 80.7417 55.3098C81.9111 56.2033 81.8704 57.454 80.6317 58.268C79.1492 59.241 77.6448 60.1769 76.2604 61.0586C77.3858 62.2652 78.4994 63.4617 79.6163 64.653C79.8211 64.873 80.0495 65.071 80.2594 65.286C81.3204 66.3657 81.0954 67.64 79.7111 68.2373C77.8089 69.0598 75.8932 69.8518 73.8828 70.6996C74.0554 70.9687 74.1874 71.1938 74.3363 71.4053C75.2315 72.6813 76.1504 73.9387 77.0203 75.2317C77.77 76.3469 77.3621 77.501 76.0794 77.8818C74.6138 78.315 73.1381 78.7263 71.6489 79.0647C70.532 79.3203 69.4184 79.1933 68.3777 78.6535C67.9901 78.4521 67.6026 78.2524 67.408 78.1509C65.9086 79.234 64.5344 80.3018 63.0841 81.2512C61.5035 82.2869 59.8248 82.2767 58.2018 81.3138C56.1694 80.1089 55.9324 78.5858 57.4623 76.709C56.0746 74.6952 54.7478 72.6204 53.2535 70.6743C52.5766 69.7926 51.4664 69.383 50.0415 69.2189C51.92 70.6303 53.0674 72.2498 53.3991 74.3669C53.7308 76.4789 53.2298 78.3895 51.9301 80.07C49.9011 82.6913 46.3421 83.612 43.2943 82.341C39.8911 80.9229 38.4357 77.9021 39.006 73.3058C34.5484 77.6483 29.3006 79.8466 23.1271 79.6587C18.7948 79.5267 14.8703 78.1475 11.396 75.5684C4.28152 70.2884 1.21167 61.1381 3.71798 52.8136C5.2546 47.7096 8.26183 43.7073 12.7769 40.8761C17.2903 38.0466 22.2251 37.192 27.6066 37.9941C27.3646 37.615 27.214 37.3646 27.0481 37.1243C23.0746 31.3653 19.0909 25.6132 15.1292 19.8475C13.4251 17.3666 13.5164 14.3543 15.312 12.156C17.996 8.8695 22.9392 9.09288 25.4523 12.6569C27.8774 16.0957 30.2432 19.5784 32.6327 23.0426C37.3052 29.8118 41.9641 36.5929 46.6637 43.3452C47.7095 44.848 48.2815 46.4286 48.0683 48.2613C47.9075 49.6423 48.4846 50.766 49.302 51.7983C49.434 51.9658 49.6963 52.0657 49.918 52.1164C50.3428 52.2146 50.7794 52.2535 51.2735 52.3263C51.3632 52.1689 51.4817 51.9929 51.5697 51.8017C52.6968 49.3749 53.8188 46.9464 54.9458 44.5197C55.1134 44.1609 55.242 43.8833 54.8375 43.5297C51.5697 40.6612 49.8266 36.9263 49.4594 32.704C48.5574 22.3386 52.4243 14.0412 60.9891 8.10627C64.5801 5.61857 68.6789 4.50842 73.0704 5.36304C78.6601 6.45288 82.192 9.99827 84.0044 15.2512C86.2468 21.7513 85.2618 28.0433 82.236 34.0561C79.5029 39.4867 75.4617 43.6177 69.6892 45.8464C67.2574 46.7857 64.7358 47.1935 62.1297 46.806C61.5898 46.7264 61.2937 46.8483 61.0618 47.378C60.2749 49.1752 59.4355 50.9487 58.5488 52.8746ZM47.1511 52.157C46.1103 50.7118 46.0781 49.05 46.09 47.3289C46.0951 46.5386 45.7904 45.6298 45.3386 44.9698C38.2038 34.557 31.0301 24.1713 23.848 13.7924C22.3824 11.6753 19.7272 11.1778 17.7252 12.5773C15.7148 13.9837 15.2866 16.6 16.7572 18.739C21.2486 25.2663 25.7535 31.785 30.2652 38.297C30.4395 38.5492 30.7086 38.7878 30.9878 38.9046C31.636 39.1737 32.0404 39.5798 31.7629 40.2821C31.482 40.9912 30.8981 40.9607 30.2466 40.7543C29.194 40.4226 28.1194 40.1603 26.9838 39.8489C26.3137 44.1575 27.3426 47.8196 29.9572 50.9741C32.1589 48.764 34.3064 46.608 36.4574 44.4486C35.7432 43.6752 35.64 43.181 36.1375 42.7004C36.6317 42.2215 37.1004 42.3197 37.9686 43.1083C40.6966 45.5824 42.6597 48.5592 43.824 52.0572C43.9949 52.5716 44.1506 53.0912 44.2995 53.5684C45.2303 53.1098 46.1255 52.6664 47.1511 52.157ZM83.3004 22.3132C83.1566 21.0372 83.0906 19.7764 82.8605 18.5461C82.2055 15.038 80.7755 11.9021 77.8901 9.66827C73.6069 6.35473 68.9463 6.34457 64.2197 8.54796C58.7671 11.0915 55.2335 15.4695 53.0064 20.9458C51.1026 25.6284 50.5475 30.4515 52.0148 35.3693C53.3161 39.7338 55.8986 43.0084 60.3714 44.4266C64.2281 45.6484 67.9411 44.9309 71.3325 42.9272C79.1509 38.3106 82.6608 31.1369 83.3004 22.3132ZM4.85352 59.808C9.65967 59.1446 13.9175 60.3546 17.534 63.3449C19.1451 61.7203 20.7088 60.143 22.1354 58.7046C17.9977 54.5432 13.7872 50.3107 9.57675 46.0783C6.3969 49.275 4.23752 55.435 4.85352 59.808ZM36.5724 72.8793C32.3281 68.564 28.1397 64.3061 24.0358 60.1329C22.3401 61.8218 20.7612 63.394 19.162 64.9881C20.6055 66.6838 21.6768 68.6604 22.3097 70.8706C22.9409 73.0773 23.0103 75.323 22.7057 77.6804C28.0381 77.9258 32.6175 76.3063 36.5724 72.8793ZM38.0498 71.4206C41.5072 67.4487 43.1369 62.8744 42.8864 57.525C40.5071 57.8821 38.2631 57.7772 36.0478 57.151C33.8123 56.5181 31.8391 55.4012 30.1738 53.9983C28.534 55.6415 26.9618 57.217 25.4303 58.752C29.5748 62.9133 33.7801 67.1357 38.0498 71.4206ZM23.8175 57.1003C25.3592 55.5501 26.9348 53.9678 28.5323 52.3635C25.5031 48.7623 24.3049 44.5366 24.9869 39.6949C19.6443 39.4427 15.07 41.0589 11.1946 44.4181C15.4744 48.7166 19.69 52.9524 23.8175 57.1003ZM53.9592 62.58C54.2808 62.7052 54.5312 62.8067 54.7834 62.8998C59.3949 64.5836 64.0064 66.2692 68.6214 67.948C69.8246 68.3863 71.0448 69.163 72.2395 69.1309C73.436 69.0987 74.6121 68.256 75.7934 67.7601C76.7326 67.3658 77.6668 66.958 78.4232 66.633C77.0423 65.1573 75.6901 63.6969 74.3109 62.2601C74.1688 62.1112 73.8811 62.057 73.6543 62.0401C68.8058 61.678 63.9557 61.326 59.1055 60.9757C57.5351 60.8623 55.9646 60.7607 54.3789 60.6541C54.2351 61.326 54.1064 61.9064 53.9592 62.58ZM54.8071 58.6487C55.0474 58.6893 55.2048 58.73 55.3638 58.7418C61.2801 59.1784 67.1964 59.6184 73.1144 60.0381C73.5121 60.0669 73.9911 60.0703 74.3126 59.8807C75.9964 58.8907 77.6431 57.8347 79.3828 56.7517C78.4351 56.051 77.572 55.4689 76.7749 54.8089C75.8306 54.0237 74.7864 53.7732 73.5764 53.8578C67.7668 54.2606 61.9537 54.6176 56.144 55.0204C55.9088 55.0373 55.5534 55.3081 55.4941 55.5247C55.2268 56.5215 55.0423 57.542 54.8071 58.6487ZM53.548 64.5549C53.3144 65.6126 53.0691 66.5637 52.9168 67.53C52.8812 67.75 53.1063 68.1375 53.3178 68.2526C58.564 71.121 63.8152 73.976 69.0935 76.7852C69.6368 77.0746 70.378 77.2404 70.972 77.1423C72.3766 76.907 73.7491 76.4772 75.2366 76.0998C74.2415 74.6918 73.3835 73.36 72.3969 72.1297C71.9451 71.5661 71.3054 71.0347 70.6403 70.7775C67.5366 69.576 64.3957 68.4743 61.2649 67.3404C58.7264 66.4198 56.1863 65.506 53.548 64.5549ZM46.1746 80.9263C49.1294 80.9127 51.5375 78.4826 51.5274 75.5244C51.5172 72.529 49.0668 70.0972 46.0798 70.1175C43.1437 70.1378 40.7169 72.59 40.7169 75.5346C40.7152 78.5181 43.1691 80.9398 46.1746 80.9263ZM9.57675 71.3444C11.7734 69.141 13.926 66.98 16.0854 64.8121C14.0377 62.4344 8.26521 60.8521 5.0346 61.8963C5.63706 65.5043 7.19229 68.6418 9.57675 71.3444ZM20.6411 77.4486C21.6564 74.1655 19.9844 68.1917 17.7032 66.4503C15.5421 68.6215 13.3963 70.7809 11.2234 72.964C13.8684 75.3095 17.0128 76.8173 20.6411 77.4486ZM31.5767 52.5175C34.4147 55.3081 39.8318 56.4183 42.6427 55.4097C41.9946 51.8355 40.4851 48.6878 38.0617 46.0038C35.8904 48.1835 33.7531 50.331 31.5767 52.5175ZM49.5744 54.0744C48.378 53.9746 47.3169 54.1692 46.3388 54.7006C45.2794 55.2743 44.6684 56.0578 44.8191 57.4066C45.0712 59.6523 44.7751 61.8777 44.1963 64.0607C43.8544 65.3537 44.0118 65.6887 45.3047 66.1812C45.7955 66.3673 46.3286 66.4435 46.8938 66.5806C47.8009 62.3447 48.6809 58.2426 49.5744 54.0744ZM51.5138 54.4281C50.6084 58.6538 49.7335 62.7441 48.8468 66.8852C49.5829 67.0426 50.2124 67.1763 50.9249 67.3303C51.8184 63.1587 52.7001 59.0481 53.5937 54.8732C52.8677 54.7175 52.2398 54.5821 51.5138 54.4281ZM59.4271 46.2577C58.5403 45.8566 57.7128 45.4809 56.8463 45.09C55.6498 47.686 54.4872 50.2126 53.2434 52.9135C54.2486 52.9626 55.0558 53.0235 55.8631 53.0252C56.0577 53.0252 56.3538 52.8712 56.4334 52.707C57.4454 50.5697 58.4286 48.4204 59.4271 46.2577ZM65.4161 77.0644C64.5683 76.6041 63.8135 76.1709 63.0334 75.7918C62.8641 75.7106 62.5511 75.7563 62.3852 75.8663C61.1803 76.6633 60.0075 77.5061 58.8026 78.3015C58.3017 78.6315 58.3863 78.9006 58.7468 79.261C59.5591 80.075 60.8909 80.295 61.9097 79.6689C62.9064 79.0563 63.8541 78.3641 64.8103 77.6872C65.0235 77.5383 65.1809 77.3132 65.4161 77.0644ZM57.2423 72.639C57.2084 72.6796 57.1729 72.7186 57.1391 72.7592C57.8041 73.7238 58.4675 74.6884 59.1529 75.6818C59.7114 75.2993 60.2004 74.9643 60.7911 74.5581C59.5489 73.8863 58.3948 73.2635 57.2423 72.639ZM42.0708 69.2443C43.0387 68.8703 43.9221 68.5301 44.8258 68.1815C44.2555 67.8803 43.6937 67.5824 43.0997 67.2677C42.7595 67.9226 42.4363 68.5437 42.0708 69.2443Z" fill="url(#paint0_linear_52_882)"/>
<path d="M28.6711 29.6679C28.4544 29.937 28.2903 30.3262 28.0229 30.421C27.7166 30.5293 27.302 30.421 26.9669 30.311C26.796 30.2551 26.6843 29.9928 26.5641 29.8134C24.3692 26.5202 22.1743 23.2253 19.9828 19.9303C19.8778 19.7713 19.6815 19.5868 19.7052 19.4447C19.7763 19.03 19.8237 18.4851 20.0978 18.2702C20.3246 18.0942 20.8712 18.2803 21.2571 18.3819C21.4026 18.4191 21.5008 18.6628 21.6074 18.8202C23.8158 22.1371 26.026 25.454 28.2277 28.776C28.3868 29.018 28.49 29.299 28.6711 29.6679Z" fill="url(#paint1_linear_52_882)"/>
<path d="M19.8711 16.6067C19.8457 17.1483 19.5022 17.4817 18.9048 17.5172C18.3649 17.5494 17.7151 16.8504 17.7354 16.2615C17.7574 15.6607 18.0891 15.3037 18.7068 15.2834C19.2872 15.2647 19.8609 15.896 19.8711 16.6067Z" fill="url(#paint2_linear_52_882)"/>
<path d="M81.3932 22.853C80.7501 30.9389 77.5263 37.4407 70.0869 41.2196C65.8815 43.3553 61.6135 43.2504 57.7517 40.2144C55.198 38.2073 53.9423 35.4032 53.3787 32.2775C51.9318 24.2458 56.4621 14.9178 63.6595 11.1236C67.0847 9.31795 70.6555 8.75779 74.3058 10.3824C78.0594 12.051 80.0089 15.1818 80.8821 19.0521C81.1614 20.2959 81.229 21.5889 81.3932 22.853ZM60.5474 27.5238C61.9418 28.1601 63.2415 28.7524 64.5835 29.365C65.1064 28.2261 65.587 27.1752 66.088 26.0819C64.7054 25.4456 63.426 24.8584 62.0738 24.2373C61.5627 25.3407 61.0737 26.3933 60.5474 27.5238ZM69.2661 19.2129C69.784 18.0926 70.2697 17.0416 70.7858 15.923C69.4218 15.2969 68.1238 14.6995 66.7649 14.075C66.2454 15.1987 65.7597 16.2496 65.2486 17.3598C66.5906 17.9792 67.8717 18.5715 69.2661 19.2129ZM71.918 28.7541C70.5117 28.1144 69.212 27.5221 67.8835 26.9163C67.3623 28.0484 66.8867 29.0841 66.3774 30.1926C67.7295 30.817 69.0292 31.4178 70.3915 32.0473C70.9026 30.9423 71.3917 29.8879 71.918 28.7541ZM63.7492 31.1589C62.3497 30.5209 61.0517 29.9303 59.7164 29.3227C59.1867 30.4735 58.7044 31.5227 58.2052 32.6075C59.598 33.2438 60.896 33.8361 62.2329 34.447C62.7558 33.3166 63.2297 32.2859 63.7492 31.1589ZM75.0843 21.8901C75.5937 20.7884 76.0827 19.7307 76.6023 18.6053C75.2518 17.9809 73.9454 17.3784 72.5847 16.7506C72.0754 17.8506 71.5846 18.9083 71.0634 20.0336C72.4121 20.6547 73.7186 21.2589 75.0843 21.8901ZM68.442 21.0033C67.0594 20.3704 65.7597 19.7747 64.4126 19.157C63.8897 20.2926 63.4074 21.3435 62.9014 22.4435C64.2924 23.0815 65.5871 23.6772 66.9223 24.2898C67.4401 23.1712 67.919 22.1372 68.442 21.0033ZM74.2618 23.6806C72.8826 23.0459 71.5829 22.4503 70.2358 21.8309C69.7163 22.9579 69.2306 24.0106 68.7195 25.1156C70.0886 25.7452 71.3917 26.3426 72.7404 26.9619C73.2498 25.8619 73.7287 24.8279 74.2618 23.6806ZM68.046 37.1293C68.5604 36.0175 69.0478 34.9632 69.5674 33.8429C68.2067 33.2184 66.8901 32.6143 65.538 31.9932C65.015 33.1321 64.5344 34.1813 64.0301 35.2796C65.4009 35.9109 66.7006 36.5099 68.046 37.1293ZM73.7084 29.585C73.1906 30.7053 72.7049 31.7596 72.1904 32.8749C73.2955 33.3809 74.343 33.8615 75.4481 34.3675C76.0963 33.2963 76.6954 32.3046 77.33 31.257C76.0912 30.6833 74.954 30.1604 73.7084 29.585ZM56.6432 21.7395C56.2912 22.8446 55.9544 23.8684 55.6532 24.9058C55.6177 25.0259 55.748 25.2849 55.8664 25.3441C56.809 25.8078 57.7669 26.2376 58.7603 26.6979C59.2934 25.5404 59.7774 24.4912 60.2766 23.4064C59.0429 22.8412 57.909 22.3216 56.6432 21.7395ZM76.0472 24.5115C75.5209 25.6606 75.0386 26.7098 74.5394 27.7979C75.7663 28.3615 76.895 28.8776 78.1372 29.4479C78.4249 28.3581 78.7143 27.3427 78.9427 26.3155C78.9817 26.1395 78.8074 25.7976 78.6398 25.7113C77.819 25.2899 76.9678 24.9295 76.0472 24.5115ZM61.1041 21.6126C61.6186 20.4956 62.1026 19.4464 62.6187 18.3295C61.5847 17.8539 60.6134 17.4072 59.5692 16.9266C58.872 17.9656 58.2171 18.9421 57.5283 19.971C58.7806 20.5464 59.9094 21.0643 61.1041 21.6126ZM57.2727 34.3726C57.1052 35.0139 56.6804 35.6993 56.8666 36.1021C57.5012 37.4746 58.5741 38.5255 59.9618 39.3581C60.456 38.2903 60.9163 37.2918 61.3986 36.2493C60.2207 35.7027 59.1123 35.1883 58.0038 34.6755C57.8329 34.5976 57.6569 34.5316 57.2727 34.3726ZM63.1941 37.0701C62.6915 38.1616 62.2397 39.1466 61.6744 40.3718C62.9792 40.453 64.1351 40.5969 65.2875 40.5766C66.6634 40.5529 66.8326 40.3346 67.0949 38.8673C65.8274 38.2835 64.548 37.6929 63.1941 37.0701ZM67.3809 11.9546C67.4824 12.0798 67.584 12.2033 67.6838 12.3286C68.9818 12.9226 70.2798 13.5166 71.6167 14.1275C71.9806 13.3372 72.3072 12.6315 72.6609 11.8632C71.1395 11.3453 69.6638 11.3149 68.1746 11.5772C67.8954 11.6263 67.6449 11.8259 67.3809 11.9546ZM69.7924 38.0652C70.3678 38.1633 70.9804 38.4679 71.2732 38.2784C72.2615 37.637 73.1364 36.8196 74.1789 35.9684C73.1314 35.4861 72.2835 35.0935 71.3629 34.6704C70.8484 35.7806 70.3644 36.8281 69.7924 38.0652ZM73.4123 14.9533C74.7983 15.593 76.0946 16.1904 77.3875 16.7861C77.9104 15.7893 76.1403 13.4523 74.4175 12.7821C74.101 13.4658 73.7829 14.1512 73.4123 14.9533ZM56.4435 31.7038C56.9258 30.6546 57.4183 29.585 57.9277 28.4766C56.9749 28.0501 56.1186 27.6659 55.1218 27.2175C55.1218 28.2735 55.1726 29.1738 55.1083 30.0639C55.0406 31.0235 55.4247 31.5464 56.4435 31.7038ZM63.4564 16.5356C63.9844 15.3815 64.4634 14.3323 64.9406 13.2864C64.1384 12.8955 62.2075 14.0463 61.1532 15.4796C61.8978 15.8215 62.6323 16.1583 63.4564 16.5356ZM78.4486 19.3127C77.8664 20.5803 77.3926 21.6092 76.8866 22.7092C77.6989 23.0832 78.4469 23.4267 79.4098 23.8701C79.2914 22.4519 79.2118 21.2369 79.0663 20.0303C79.0392 19.8153 78.7346 19.6343 78.4486 19.3127Z" fill="url(#paint3_linear_52_882)"/>
<defs>
<linearGradient id="paint0_linear_52_882" x1="8" y1="26" x2="68" y2="84.5" gradientUnits="userSpaceOnUse">
<stop stop-color="#02C0C2"/>
<stop offset="1" stop-color="#164A9E"/>
</linearGradient>
<linearGradient id="paint1_linear_52_882" x1="20.2634" y1="21.4955" x2="29.0299" y2="27.3987" gradientUnits="userSpaceOnUse">
<stop stop-color="#02C0C2"/>
<stop offset="1" stop-color="#164A9E"/>
</linearGradient>
<linearGradient id="paint2_linear_52_882" x1="17.8684" y1="15.8839" x2="19.5783" y2="17.3892" gradientUnits="userSpaceOnUse">
<stop stop-color="#02C0C2"/>
<stop offset="1" stop-color="#164A9E"/>
</linearGradient>
<linearGradient id="paint3_linear_52_882" x1="54.8765" y1="18.3616" x2="79.7784" y2="37.8703" gradientUnits="userSpaceOnUse">
<stop stop-color="#02C0C2"/>
<stop offset="1" stop-color="#164A9E"/>
</linearGradient>
</defs>
</svg>
