<svg width="88" height="88" viewBox="0 0 88 88" fill="none" xmlns="http://www.w3.org/2000/svg">
<path d="M3.04614 33.9205C3.42183 33.0202 3.75183 32.0979 4.18507 31.2281C4.54214 30.5089 5.24953 30.3024 5.85368 30.6189C6.46122 30.937 6.63214 31.619 6.28522 32.3501C4.11568 36.9345 7.29722 41.7221 12.4114 41.5732C15.796 41.4733 18.1517 39.9672 19.1197 37.2425C19.3143 36.6959 19.4277 36.1104 19.5005 35.5333C19.9726 31.7561 20.4228 27.9772 20.8797 24.1966C20.9237 23.831 20.9643 23.4655 21.0151 23.0306C20.7325 23.0086 20.5006 22.973 20.2705 22.973C17.5238 22.9696 14.7789 22.9866 12.0323 22.9578C11.4908 22.9527 11.2285 23.1541 10.9966 23.6144C10.4077 24.7787 9.77137 25.9193 9.14184 27.0616C8.70184 27.857 8.00968 28.121 7.37168 27.7605C6.76245 27.417 6.61691 26.7232 7.02476 25.9532C7.71014 24.6586 8.43784 23.3859 9.09445 22.0778C9.29922 21.6699 9.42276 21.1792 9.42953 20.7222C9.46337 18.4833 9.4363 16.2427 9.44645 14.0021C9.46507 9.45486 12.7058 6.18024 17.2615 6.17517C30.4057 6.15824 43.5481 6.1684 56.6923 6.17009C56.9055 6.17009 57.1221 6.1684 57.3303 6.20563C57.9395 6.31563 58.2661 6.70486 58.2898 7.30901C58.3135 7.91147 58.0241 8.34978 57.4251 8.48686C57.0663 8.56809 56.6838 8.56471 56.3132 8.56471C43.3823 8.56809 30.4531 8.57317 17.5221 8.55963C16.1429 8.55794 14.8788 8.82701 13.7906 9.71209C12.6821 10.6141 11.9511 11.7835 11.8969 13.1949C11.8038 15.6149 11.8715 18.0416 11.8715 20.5158C33.2945 20.5158 54.6886 20.5158 76.1115 20.5158C76.1115 18.0044 76.2706 15.5184 76.0692 13.0612C75.8509 10.4076 73.6272 8.60701 70.9026 8.57486C68.3963 8.5444 65.89 8.56978 63.3854 8.56471C63.0672 8.56471 62.7406 8.56301 62.4326 8.49363C61.8318 8.35824 61.534 7.93347 61.5475 7.32932C61.5611 6.72517 61.8792 6.32409 62.4868 6.21071C62.7457 6.16163 63.0181 6.17009 63.2838 6.17009C65.7106 6.16671 68.1357 6.16332 70.5625 6.17009C75.3297 6.18194 78.5485 9.39394 78.5569 14.1442C78.5603 16.3578 78.54 18.5713 78.5721 20.7832C78.5789 21.213 78.6991 21.6801 78.8988 22.0592C80.2035 24.5333 81.5828 26.9669 82.8588 29.4545C83.6305 30.959 84.2617 32.5345 84.9555 34.0796C84.9555 34.7735 84.9555 35.4656 84.9555 36.1595C84.8811 36.4404 84.8066 36.7196 84.7355 37.0005C83.9672 40.0264 82.1345 42.1316 79.2541 43.3281C79.0578 43.4093 78.8565 43.4804 78.6584 43.5582C78.6365 43.5667 78.6212 43.5904 78.5569 43.6496C78.5569 44.2995 78.5569 44.9899 78.5569 45.6821C78.5569 51.4698 78.5569 57.2558 78.5552 63.0435C78.5552 63.3092 78.5806 63.5867 78.518 63.8389C78.3657 64.4532 77.9511 64.8102 77.308 64.7865C76.7038 64.7645 76.3214 64.4041 76.1894 63.8219C76.1318 63.5664 76.1572 63.2906 76.1572 63.0249C76.1555 56.9715 76.1555 50.9181 76.1555 44.8647C76.1555 44.577 76.1555 44.2893 76.1555 43.9136C74.3481 43.9627 72.6338 43.8172 71.0465 43.0116C69.4861 42.2196 68.2558 41.0705 67.2929 39.5407C65.4517 42.2941 62.964 43.8849 59.642 43.8984C56.3048 43.9102 53.7917 42.355 51.9251 39.5542C50.0652 42.3533 47.5132 43.917 44.1388 43.9085C40.7795 43.9001 38.2428 42.3432 36.388 39.5305C35.2948 41.2601 33.8732 42.5462 31.9981 43.2858C31.0471 43.6615 30.2111 43.1978 30.184 42.2975C30.1637 41.5952 30.6088 41.2685 31.1892 41.0164C33.4197 40.0484 34.7126 38.3375 35.1306 35.9547C35.1814 35.667 35.1966 35.3709 35.1966 35.0798C35.2017 31.2399 35.2 27.4001 35.2 23.5586C35.2 23.4029 35.2 23.2472 35.2 23.0322C34.9208 23.0069 34.694 22.9696 34.4655 22.9696C31.0521 22.9662 27.6405 22.9747 24.2271 22.9595C23.738 22.9578 23.4452 23.0272 23.3691 23.6076C22.9375 26.8552 22.4434 30.0959 22.0169 33.3435C21.5228 37.1122 22.7717 39.4104 26.1681 41.1247C26.8349 41.4615 27.1074 42.0842 26.8603 42.7087C26.62 43.3145 25.9549 43.6005 25.2543 43.3332C23.6195 42.7104 22.2826 41.6832 21.2469 40.2701C21.0777 40.0382 20.9101 39.803 20.7138 39.5339C19.7374 41.0621 18.502 42.2399 16.9045 43.0302C15.334 43.807 13.6501 43.9695 11.8428 43.9001C11.8428 44.269 11.8428 44.5516 11.8428 44.8359C11.8428 54.4889 11.8411 64.1435 11.8428 73.7964C11.8428 77.2876 13.9785 79.4284 17.4731 79.4301C35.1492 79.4335 52.8254 79.4335 70.5032 79.4301C74.0401 79.4301 76.1505 77.2961 76.1538 73.7372C76.1555 72.297 76.1471 70.8569 76.1572 69.4167C76.164 68.5502 76.6294 68.0104 77.3435 68.0053C78.0577 67.9985 78.5603 68.5401 78.5485 69.3964C78.5197 71.4729 78.6365 73.573 78.3725 75.6207C77.9392 78.9782 74.9608 81.5556 71.5778 81.7942C71.2326 81.8179 70.8857 81.8315 70.5388 81.8315C52.8355 81.8332 35.1323 81.8349 17.4291 81.8315C13.5757 81.8298 10.6057 79.6501 9.71553 76.1352C9.5226 75.3702 9.4583 74.5562 9.4583 73.7642C9.44137 64.003 9.44814 54.2435 9.44814 44.4822C9.44814 44.1912 9.44814 43.9001 9.44814 43.5836C7.09753 42.8069 5.24953 41.4192 4.1343 39.2259C3.64691 38.2681 3.40322 37.1867 3.04953 36.1612C3.04614 35.4132 3.04614 34.6669 3.04614 33.9205ZM37.6285 23.0153C37.6166 23.2099 37.6031 23.3402 37.6031 23.4706C37.6031 27.3646 37.5946 31.2586 37.6166 35.1509C37.62 35.7026 37.7164 36.2695 37.8654 36.8025C38.7623 39.9993 41.7509 41.8744 45.2117 41.4395C48.2494 41.0587 50.6829 38.3019 50.71 35.1221C50.7438 31.2552 50.7201 27.3882 50.7185 23.5213C50.7185 23.3673 50.6948 23.2116 50.6778 23.0153C46.3303 23.0153 42.0217 23.0153 37.6285 23.0153ZM67.1118 22.9696C67.166 23.4892 67.2083 23.9055 67.254 24.3218C67.6652 28.0499 68.0866 31.7781 68.4877 35.5096C68.6552 37.0733 69.212 38.4593 70.3408 39.5661C72.6745 41.8524 75.5074 42.003 78.3725 41.0587C81.9161 39.891 83.6525 35.4352 81.7266 32.2976C80.0309 29.5358 78.5958 26.6115 77.0795 23.7396C76.7834 23.1778 76.4551 22.9409 75.7951 22.9527C73.3988 22.9967 71.0008 22.9696 68.6028 22.9696C68.1306 22.9696 67.6585 22.9696 67.1118 22.9696ZM53.196 23.0153C53.1638 23.1338 53.1266 23.2082 53.1266 23.2827C53.1266 27.3341 53.0318 31.3889 53.1638 35.4352C53.2518 38.1209 54.736 40.0721 57.2406 41.0452C59.7706 42.0284 62.1246 41.5393 64.1114 39.6575C65.9154 37.9482 66.2928 35.7601 66.0051 33.4061C65.6108 30.1805 65.1741 26.9618 64.7832 23.7362C64.7121 23.1456 64.4955 22.9476 63.8829 22.9527C60.5525 22.9832 57.2203 22.9662 53.8898 22.9696C53.658 22.9713 53.4261 23.0001 53.196 23.0153Z" fill="url(#paint0_linear_50_874)"/>
<path d="M47.6317 71.4661C45.8784 71.4661 44.1777 71.4661 42.4228 71.4661C42.8086 73.3293 42.3432 74.8575 40.6577 75.7933C39.3918 76.4956 38.0684 76.4212 36.8855 75.5581C35.4149 74.4852 35.0798 73.0027 35.596 71.241C33.4789 70.4964 32.7377 68.8092 32.3332 66.7818C31.3195 61.7167 30.2128 56.6703 29.1432 51.617C28.7997 49.9924 28.2328 49.5355 26.5608 49.5304C26.0801 49.5287 25.5995 49.5473 25.1223 49.5152C24.3168 49.4593 23.8192 48.955 23.848 48.2696C23.8768 47.6029 24.3591 47.1629 25.1443 47.1375C25.8635 47.1155 26.5861 47.0952 27.3037 47.146C29.2228 47.2796 30.5631 48.2713 31.2044 50.072C31.4329 50.7133 31.7494 50.8233 32.3468 50.8233C40.7711 50.8064 49.1954 50.8115 57.6214 50.8115C57.8617 50.8115 58.102 50.8047 58.3406 50.8149C59.3204 50.8606 59.8146 51.4512 59.6251 52.3972C58.7941 56.5484 57.9548 60.698 57.1086 64.8475C56.9275 65.7343 56.5535 65.9898 55.4806 65.9915C48.8958 65.9949 42.3111 65.9932 35.7246 65.9932C35.4098 65.9932 35.0951 65.9932 34.7786 65.9932C34.8091 68.249 35.6823 69.0698 37.4948 69.0529C42.9068 69.0004 48.3188 69.0343 53.7308 69.0343C53.944 69.0343 54.1572 69.0309 54.3704 69.0343C55.3774 69.0512 55.8986 69.3981 55.9832 70.1072C56.0661 70.8027 55.6397 71.2495 54.5871 71.5135C54.8968 72.9063 54.6734 74.1924 53.6089 75.2281C52.8643 75.9541 51.9538 76.2773 50.9148 76.2198C48.6081 76.0946 47.3 74.2364 47.6317 71.4661ZM48.6318 53.2789C45.8615 53.2789 43.1944 53.2789 40.4868 53.2789C40.6577 54.6107 40.8184 55.8732 40.9843 57.1712C43.3806 57.1712 45.7363 57.1712 48.1343 57.1712C48.3018 55.8732 48.4626 54.6124 48.6318 53.2789ZM38.0668 53.2721C36.0004 53.2721 34.0171 53.2721 31.9643 53.2721C32.2232 54.5109 32.4568 55.682 32.7275 56.8429C32.7614 56.9901 33.0017 57.1915 33.1489 57.1949C34.9275 57.2186 36.7078 57.2101 38.5592 57.2101C38.39 55.858 38.2326 54.5972 38.0668 53.2721ZM41.7797 63.5258C43.6886 63.5258 45.5078 63.5258 47.3491 63.5258C47.5115 62.2092 47.6655 60.9552 47.8212 59.6876C45.5941 59.6876 43.4601 59.6876 41.2906 59.6876C41.4564 61.0026 41.6155 62.2396 41.7797 63.5258ZM50.556 57.2084C52.3803 57.2084 54.1048 57.2152 55.8275 57.1966C55.9714 57.1949 56.2168 57.0493 56.2421 56.9326C56.5078 55.7293 56.738 54.5193 56.9868 53.2653C54.9492 53.2653 53.0268 53.2653 51.0603 53.2653C50.8944 54.5667 50.7337 55.8224 50.556 57.2084ZM33.3114 59.6606C33.572 60.8824 33.7971 62.001 34.0611 63.1095C34.1034 63.2889 34.32 63.5613 34.4621 63.5647C36.0732 63.5969 37.686 63.585 39.3597 63.585C39.1837 62.2109 39.0246 60.9552 38.8588 59.6606C37.0108 59.6606 35.2152 59.6606 33.3114 59.6606ZM49.7589 63.5901C51.4157 63.5901 52.9523 63.602 54.4872 63.5732C54.6598 63.5698 54.9441 63.3616 54.9797 63.2043C55.242 62.0501 55.4552 60.8841 55.6972 59.6606C53.8458 59.6606 52.0808 59.6606 50.2615 59.6606C50.0957 60.9535 49.9349 62.2075 49.7589 63.5901ZM40.1534 72.6541C40.1601 72.0178 39.6558 71.4915 39.0128 71.4644C38.3358 71.4373 37.7757 71.9603 37.7689 72.6287C37.7621 73.265 38.2681 73.793 38.9095 73.8184C39.5848 73.8472 40.1466 73.3209 40.1534 72.6541ZM49.9264 72.5813C49.8926 73.2126 50.3817 73.766 51.018 73.8167C51.6949 73.8709 52.2754 73.37 52.3109 72.7049C52.3448 72.0736 51.8557 71.522 51.2194 71.4712C50.5424 71.4153 49.962 71.9129 49.9264 72.5813Z" fill="url(#paint1_linear_50_874)"/>
<path d="M59.5709 10.9694C63.0875 10.9694 66.6058 10.9508 70.1224 10.9779C71.9907 10.9914 73.4055 12.2183 73.7135 13.9952C73.9894 15.5826 73.0721 17.2766 71.5321 17.8638C70.9991 18.0669 70.3898 18.1549 69.8161 18.1566C62.942 18.1752 56.0661 18.1786 49.192 18.1634C47.2831 18.1583 45.9343 17.2106 45.4469 15.6283C44.9815 14.1205 45.4943 12.4332 46.8515 11.6378C47.5268 11.2435 48.3932 11.0134 49.1784 10.9982C52.6426 10.9305 56.1068 10.9694 59.5709 10.9694ZM59.5201 13.3691C56.1914 13.3691 52.8609 13.3691 49.5321 13.3691C48.2697 13.3691 47.7163 13.716 47.6875 14.5165C47.6571 15.3491 48.2663 15.7671 49.5271 15.7671C56.1863 15.7688 62.8455 15.7688 69.5031 15.7654C69.8212 15.7654 70.1495 15.7637 70.4541 15.6892C71.0447 15.5454 71.3595 15.1206 71.3392 14.5215C71.3189 13.9258 70.9855 13.5214 70.3831 13.4114C70.0987 13.3589 69.7992 13.3708 69.5081 13.3691C66.1777 13.3674 62.8489 13.3691 59.5201 13.3691Z" fill="url(#paint2_linear_50_874)"/>
<path d="M31.0386 14.5573C31.0386 16.5508 29.4224 18.1551 27.4238 18.1433C25.4235 18.1314 23.8277 16.5153 23.8463 14.5184C23.8649 12.5587 25.4523 10.9848 27.4221 10.973C29.4224 10.9611 31.0386 12.562 31.0386 14.5573ZM27.4204 15.7368C28.0957 15.7487 28.6457 15.2071 28.6355 14.5404C28.6254 13.904 28.1075 13.3913 27.4644 13.3794C26.7875 13.3676 26.2392 13.9074 26.2494 14.5742C26.2595 15.2105 26.7791 15.725 27.4204 15.7368Z" fill="url(#paint3_linear_50_874)"/>
<path d="M36.8906 10.9729C38.8926 10.978 40.4918 12.5891 40.4783 14.586C40.4647 16.5778 38.8334 18.1703 36.8331 18.1432C34.8649 18.1161 33.2894 16.5288 33.2843 14.5691C33.2792 12.5755 34.8903 10.9678 36.8906 10.9729ZM38.0735 14.5538C38.0718 13.9175 37.5607 13.398 36.916 13.3811C36.2374 13.3625 35.684 13.8938 35.6874 14.5623C35.6891 15.1986 36.2018 15.7181 36.8449 15.7368C37.5201 15.7554 38.0752 15.2206 38.0735 14.5538Z" fill="url(#paint4_linear_50_874)"/>
<path d="M17.9012 18.0993C15.8992 18.0756 14.3508 16.4628 14.3846 14.4337C14.4168 12.4876 16.0498 10.89 17.9892 10.9103C19.9625 10.9307 21.6006 12.5993 21.5701 14.5607C21.5414 16.5457 19.9032 18.1247 17.9012 18.0993ZM17.9909 13.3168C17.3648 13.2999 16.8198 13.8143 16.7877 14.4507C16.7538 15.1394 17.2565 15.6827 17.9401 15.6945C18.5849 15.7063 19.1214 15.2173 19.162 14.581C19.2026 13.943 18.6391 13.3337 17.9909 13.3168Z" fill="url(#paint5_linear_50_874)"/>
<defs>
<linearGradient id="paint0_linear_50_874" x1="8" y1="5.5" x2="70" y2="81.5" gradientUnits="userSpaceOnUse">
<stop stop-color="#02C0C2"/>
<stop offset="1" stop-color="#164A9E"/>
</linearGradient>
<linearGradient id="paint1_linear_50_874" x1="26.0131" y1="46.8578" x2="49.1265" y2="79.0142" gradientUnits="userSpaceOnUse">
<stop stop-color="#02C0C2"/>
<stop offset="1" stop-color="#164A9E"/>
</linearGradient>
<linearGradient id="paint2_linear_50_874" x1="47.0017" y1="10.8948" x2="49.5726" y2="22.3887" gradientUnits="userSpaceOnUse">
<stop stop-color="#02C0C2"/>
<stop offset="1" stop-color="#164A9E"/>
</linearGradient>
<linearGradient id="paint3_linear_50_874" x1="24.2811" y1="10.9098" x2="30.2302" y2="17.6673" gradientUnits="userSpaceOnUse">
<stop stop-color="#02C0C2"/>
<stop offset="1" stop-color="#164A9E"/>
</linearGradient>
<linearGradient id="paint4_linear_50_874" x1="33.7194" y1="10.9098" x2="39.6685" y2="17.6686" gradientUnits="userSpaceOnUse">
<stop stop-color="#02C0C2"/>
<stop offset="1" stop-color="#164A9E"/>
</linearGradient>
<linearGradient id="paint5_linear_50_874" x1="14.8187" y1="10.8469" x2="20.7861" y2="17.6017" gradientUnits="userSpaceOnUse">
<stop stop-color="#02C0C2"/>
<stop offset="1" stop-color="#164A9E"/>
</linearGradient>
</defs>
</svg>
