<svg width="88" height="88" viewBox="0 0 88 88" fill="none" xmlns="http://www.w3.org/2000/svg">
<path d="M84 72.7999C82.768 74.7039 81.06 75.304 78.78 75.276C69.66 75.1639 60.54 75.228 51.42 75.228C50.704 75.228 49.984 75.228 49.14 75.228C49.14 76.116 49.14 76.7999 49.14 77.72C50.748 77.72 52.28 77.5799 53.768 77.7799C54.504 77.8799 55.152 78.6039 55.84 79.0479C55.184 79.4599 54.532 80.2159 53.872 80.2239C47.284 80.3119 40.692 80.3119 34.104 80.2239C33.444 80.2159 32.796 79.452 32.14 79.04C32.832 78.6 33.484 77.8759 34.22 77.776C35.708 77.576 37.24 77.7159 38.848 77.7159C38.848 76.7959 38.848 76.1119 38.848 75.2239C38.004 75.2239 37.288 75.2239 36.568 75.2239C27.448 75.2239 18.328 75.1599 9.20801 75.2679C6.93601 75.2959 5.21201 74.716 3.98801 72.796C3.98801 58.396 3.98801 43.9959 3.98801 29.5959C5.03201 29.7719 5.26801 30.1719 5.06801 31.3519C4.84801 32.6399 5.22001 34.0559 5.46801 35.3919C5.71201 36.7119 6.40401 37.9959 6.41201 39.2999C6.49201 49.4959 6.45601 59.688 6.45601 69.884C6.45601 72.652 6.56401 72.7679 9.21601 72.7679C32.404 72.7719 55.592 72.7719 78.78 72.7679C81.356 72.7679 81.52 72.608 81.52 70.0639C81.524 59.604 81.5 49.1399 81.556 38.6799C81.56 37.6919 81.904 36.6239 82.376 35.7439C83.328 33.9599 83.432 32.2079 82.6 30.2039C83.08 29.9959 83.532 29.7959 83.988 29.5999C84 43.9999 84 58.3999 84 72.7999ZM41.608 77.6039C43.304 77.6039 44.788 77.6039 46.356 77.6039C46.356 76.8039 46.356 76.1199 46.356 75.3719C44.716 75.3719 43.184 75.3719 41.608 75.3719C41.608 76.1519 41.608 76.7959 41.608 77.6039Z" fill="#164A9E"/>
<path d="M4 22C4.984 21.428 5.908 20.684 6.964 20.324C8.304 19.868 8.968 18.384 8.12 17.196C6.832 15.388 6.944 14.36 8.612 12.668C10.496 10.76 11.536 10.592 13.452 11.888C14.732 12.752 16.16 12.152 16.476 10.612C16.94 8.33598 17.868 7.66398 20.464 7.71998C22.764 7.76798 23.608 8.46398 24 10.644C24.264 12.112 25.808 12.752 27.048 11.908C28.944 10.616 29.992 10.752 31.748 12.508C33.532 14.296 33.656 15.276 32.34 17.196C31.516 18.4 32.16 20.008 33.58 20.284C35.952 20.744 36.46 21.4 36.46 23.98C36.46 26.576 35.936 27.264 33.608 27.712C32.168 27.992 31.496 29.58 32.316 30.772C33.648 32.712 33.536 33.68 31.768 35.46C30.02 37.22 28.932 37.372 27.068 36.104C25.732 35.196 24.28 35.864 23.992 37.52C23.648 39.48 22.704 40.228 20.492 40.28C17.984 40.344 16.916 39.628 16.492 37.608C16.088 35.68 14.86 35.208 13.16 36.328C11.596 37.36 10.332 37.088 8.628 35.344C7.012 33.688 6.856 32.604 8.008 30.964C9.016 29.528 8.392 28.144 6.768 27.652C5.772 27.356 4.92 26.568 4 26C4 24.668 4 23.332 4 22ZM28.58 30.484C29.02 29.628 29.688 28.844 29.82 27.98C30.168 25.72 31.336 24.804 33.564 25.144C33.656 25.16 33.772 25.004 33.992 24.852C33.964 24.232 33.928 23.54 33.884 22.62C31.18 23.472 30.624 21.948 29.692 19.996C28.656 17.828 28.904 16.504 30.872 15.224C30.216 14.484 29.744 13.956 29.236 13.38C28.228 14.308 27.46 15.012 26.832 15.592C24.984 14.812 23.34 14.12 21.616 13.392C21.56 12.484 21.496 11.508 21.428 10.416C20.62 10.416 19.928 10.416 19.108 10.416C19.068 11.144 19.156 11.832 18.968 12.432C18.8 12.96 18.428 13.6 17.972 13.824C16.616 14.484 15.172 14.96 13.648 15.552C12.96 14.916 12.2 14.216 11.356 13.436C10.756 14.1 10.284 14.616 9.78 15.172C10.608 16.072 11.308 16.832 11.836 17.404C11.04 19.312 10.352 20.952 9.624 22.7C8.68 22.752 7.648 22.808 6.476 22.868C6.52 23.756 6.556 24.44 6.592 25.144C7.816 25.208 8.804 25.256 9.66 25.3C10.424 27.144 11.128 28.84 11.84 30.568C11.188 31.284 10.524 32.008 9.636 32.984C10.244 33.528 10.768 33.996 11.348 34.508C12.248 33.7 13.028 33.004 13.808 32.304C14.484 32.672 15.036 33.092 15.656 33.288C17.768 33.964 19.9 34.572 19 37.7C20.032 37.644 20.72 37.608 21.548 37.564C21.548 36.704 21.428 36.016 21.588 35.4C21.708 34.928 22.096 34.364 22.516 34.164C23.884 33.52 25.32 33.024 26.844 32.428C27.536 33.048 28.308 33.74 29.184 34.528C29.744 33.916 30.216 33.404 30.732 32.84C29.944 31.992 29.284 31.264 28.58 30.484Z" fill="#164A9E"/>
<path d="M84 26C82.948 26.576 81.94 27.26 80.832 27.696C79.772 28.116 79.068 29.7 79.708 30.66C81.144 32.812 81.088 33.58 79.372 35.34C77.456 37.308 76.732 37.396 74.392 35.944C73.332 35.288 71.82 35.952 71.536 37.2C70.968 39.688 70.22 40.288 67.716 40.28C65.236 40.272 64.552 39.696 64 37.132C63.748 35.964 62.12 35.312 61.084 35.964C58.84 37.376 58.04 37.3 56.232 35.484C54.432 33.672 54.36 32.916 55.796 30.656C56.48 29.576 55.724 27.976 54.4 27.716C52.036 27.252 51.532 26.6 51.532 24.004C51.532 21.4 52.04 20.74 54.392 20.288C55.844 20.008 56.472 18.448 55.632 17.216C54.32 15.288 54.444 14.36 56.264 12.536C58.04 10.76 59.076 10.62 60.952 11.9C62.196 12.748 63.74 12.112 63.996 10.648C64.376 8.47198 65.22 7.77198 67.524 7.72798C70.124 7.67598 71.048 8.34798 71.516 10.62C71.832 12.156 73.272 12.768 74.54 11.912C76.484 10.6 77.504 10.76 79.372 12.672C81.032 14.376 81.132 15.36 79.832 17.208C79.004 18.384 79.688 19.884 81.024 20.332C82.08 20.688 83.008 21.436 83.988 22.008C84 23.332 84 24.668 84 26ZM54.084 25.436C56.768 24.436 57.252 26.06 58.268 27.916C59.508 30.184 58.944 31.5 57.136 32.86C57.868 33.528 58.384 34 58.912 34.484C59.78 33.68 60.504 33.008 61.412 32.16C62.964 34.268 67.72 32.82 66.456 37.548C67.428 37.548 68.124 37.548 69.012 37.548C69.012 36.768 68.896 36.08 69.048 35.464C69.168 34.984 69.532 34.384 69.948 34.188C71.316 33.54 72.76 33.052 74.292 32.456C74.968 33.064 75.748 33.764 76.612 34.544C77.176 33.94 77.656 33.424 78.188 32.86C77.392 31.96 76.708 31.188 76.156 30.564C76.952 28.68 77.664 26.992 78.376 25.3C79.38 25.244 80.356 25.188 81.496 25.128C81.46 24.284 81.428 23.596 81.396 22.852C80.212 22.792 79.228 22.74 78.336 22.696C77.588 20.892 76.884 19.196 76.164 17.46C76.82 16.716 77.504 15.944 78.176 15.18C77.624 14.508 77.208 13.996 76.736 13.416C75.776 14.268 74.996 14.964 74.292 15.588C72.48 14.828 70.78 14.116 69.052 13.388C68.984 12.428 68.92 11.456 68.852 10.46C68.016 10.46 67.324 10.46 66.54 10.46C66.476 11.568 66.424 12.544 66.372 13.404C64.608 14.144 62.968 14.832 61.216 15.564C60.508 14.932 59.736 14.236 58.872 13.46C58.256 13.992 57.724 14.452 57.144 14.952C58.056 15.988 58.74 16.768 59.392 17.508C58.884 18.532 58.18 19.384 58.056 20.316C57.756 22.572 56.432 23.052 54.496 22.828C54.392 22.816 54.272 22.94 54.08 23.044C54.084 23.656 54.084 24.296 54.084 25.436Z" fill="#164A9E"/>
<path d="M23.792 54.496C20.32 51.992 20.32 51.992 23.676 49.5C22.764 48.664 21.828 47.804 20.888 46.94C22.016 46.108 23.06 45.108 24.292 44.468C30.252 41.376 36.28 38.412 42.244 35.328C43.508 34.676 44.528 34.7 45.784 35.348C52.104 38.612 58.48 41.768 64.804 45.032C65.676 45.484 66.352 46.316 67.12 46.972C66.4 47.592 65.68 48.22 64.952 48.832C64.752 49 64.512 49.124 64.292 49.268C65.24 50.136 66.164 50.98 67.092 51.824C66.268 52.692 65.444 53.556 64.456 54.596C64.824 54.832 65.4 55.192 65.968 55.568C67.488 56.572 67.488 57.448 65.864 58.32C62.056 60.36 58.212 62.344 54.384 64.344C51.436 65.884 48.46 67.372 45.556 68.988C44.432 69.612 43.544 69.588 42.416 68.988C35.896 65.524 29.328 62.156 22.812 58.696C22.06 58.296 21.504 57.528 20.86 56.928C21.508 56.324 22.148 55.712 22.816 55.128C23.052 54.916 23.356 54.772 23.792 54.496ZM25.072 46.852C25.36 47.116 25.444 47.232 25.556 47.292C29.436 49.332 33.316 51.376 37.208 53.396C39.444 54.556 41.712 56.58 43.952 56.556C46.276 56.532 48.592 54.54 50.884 53.356C54.872 51.296 58.84 49.192 63.116 46.952C56.768 43.736 50.74 40.668 44.684 37.652C44.288 37.456 43.616 37.496 43.208 37.696C37.212 40.692 31.24 43.728 25.072 46.852ZM25.052 57.056C31.16 60.248 37.216 63.428 43.3 66.556C43.688 66.756 44.368 66.728 44.764 66.52C50.836 63.392 56.88 60.212 63.068 56.976C62.076 55.92 61.244 55.704 60.008 56.372C55.332 58.904 50.576 61.288 45.904 63.832C44.588 64.548 43.536 64.588 42.208 63.868C37.592 61.368 32.892 59.012 28.264 56.528C27.032 55.864 26.056 55.796 25.052 57.056ZM63.08 51.972C61.912 50.652 60.932 50.876 59.728 51.528C55.116 54.028 50.42 56.376 45.808 58.876C44.564 59.548 43.584 59.596 42.316 58.912C37.644 56.384 32.888 54.008 28.2 51.504C27.004 50.864 26.064 50.74 25.14 52.096C31.244 55.288 37.292 58.46 43.36 61.592C43.704 61.768 44.296 61.772 44.636 61.592C50.764 58.428 56.872 55.22 63.08 51.972Z" fill="#02C0C2"/>
<path d="M71.54 59.624C73.632 59.648 75.288 61.404 75.216 63.516C75.148 65.524 73.44 67.168 71.456 67.144C69.484 67.116 67.776 65.412 67.74 63.436C67.708 61.368 69.472 59.6 71.54 59.624ZM73.276 63.444C72.424 62.836 71.952 62.264 71.448 62.228C71.1 62.204 70.424 62.92 70.404 63.324C70.388 63.724 71.008 64.476 71.364 64.488C71.864 64.5 72.38 63.968 73.276 63.444Z" fill="#164A9E"/>
<path d="M16.56 67.14C14.572 67.18 12.864 65.548 12.784 63.536C12.7 61.416 14.336 59.66 16.432 59.624C18.492 59.584 20.28 61.352 20.256 63.408C20.236 65.372 18.528 67.1 16.56 67.14ZM18.108 63.412C17.436 62.844 16.956 62.156 16.636 62.224C16.124 62.332 15.716 62.94 15.264 63.34C15.696 63.748 16.076 64.368 16.58 64.488C16.908 64.568 17.412 63.932 18.108 63.412Z" fill="#164A9E"/>
<path d="M38.568 27.568C38.548 25.58 39.48 25.052 41.212 25.192C43.068 25.344 44.952 25.352 46.804 25.192C48.572 25.036 49.44 25.64 49.444 27.568C45.848 27.568 42.236 27.568 38.568 27.568Z" fill="#164A9E"/>
<path d="M10.292 70.088C9.72002 69.332 9.08402 68.852 9.15202 68.504C9.24402 68.016 9.79202 67.412 10.272 67.268C10.552 67.184 11.4 67.908 11.4 68.264C11.392 68.76 10.832 69.256 10.292 70.088Z" fill="#02C0C2"/>
<path d="M77.844 70.088C77.236 69.296 76.644 68.852 76.6 68.36C76.572 68 77.352 67.212 77.632 67.272C78.12 67.38 78.72 67.928 78.848 68.408C78.94 68.752 78.352 69.284 77.844 70.088Z" fill="#02C0C2"/>
<path d="M26.84 23.932C26.868 27.592 24 30.548 20.356 30.624C16.688 30.7 13.592 27.636 13.616 23.956C13.64 20.356 16.636 17.368 20.236 17.356C23.848 17.344 26.812 20.296 26.84 23.932ZM20.224 19.92C17.988 19.924 16.148 21.704 16.096 23.916C16.044 26.188 17.944 28.088 20.26 28.08C22.524 28.072 24.324 26.32 24.372 24.084C24.424 21.776 22.572 19.916 20.224 19.92Z" fill="#02C0C2"/>
<path d="M61.152 24.0919C61.116 20.4199 63.952 17.4599 67.6 17.3599C71.26 17.2599 74.384 20.3199 74.38 23.9999C74.376 27.6039 71.396 30.6039 67.792 30.6359C64.168 30.6639 61.188 27.7279 61.152 24.0919ZM67.908 19.9159C65.54 19.8399 63.656 21.5999 63.62 23.9279C63.584 26.1639 65.332 27.9879 67.588 28.0719C69.916 28.1599 71.86 26.3519 71.896 24.0599C71.932 21.8599 70.128 19.9879 67.908 19.9159Z" fill="#02C0C2"/>
</svg>
