<svg width="88" height="88" viewBox="0 0 88 88" fill="none" xmlns="http://www.w3.org/2000/svg">
<path d="M3.02501 43.8075C3.02501 33.5417 2.96726 23.276 3.05801 13.013C3.08551 9.82299 4.64201 7.32324 7.66151 6.04724C8.82751 5.55499 10.175 5.26349 11.44 5.26074C29.359 5.21124 47.2753 5.26074 65.1943 5.20024C69.3165 5.18649 73.029 8.43149 73.0868 12.5042C73.1638 18.095 73.15 23.6857 73.0785 29.2737C73.073 29.744 72.3993 30.503 71.9208 30.6102C71.0353 30.8055 70.6668 30.0932 70.6695 29.2352C70.6723 26.6695 70.6228 24.101 70.6888 21.538C70.7163 20.4985 70.3753 20.218 69.3578 20.218C48.554 20.2427 27.7475 20.2427 6.94376 20.218C5.90151 20.218 5.52476 20.4655 5.52751 21.593C5.56326 39.237 5.54676 56.8782 5.55776 74.5222C5.56051 77.902 7.64776 79.915 11.1155 79.9177C30.4095 79.9232 49.7008 79.9205 68.9948 79.9205C69.4073 79.9205 69.8198 79.9205 70.2323 79.926C71.0683 79.937 71.6595 80.3687 71.4175 81.1827C71.2663 81.697 70.6503 82.1177 70.1663 82.4725C69.9545 82.6265 69.542 82.5 69.223 82.5C49.7008 82.5 30.1785 82.5412 10.6563 82.4587C7.59001 82.445 5.14801 80.8445 3.88026 77.9652C3.35226 76.769 3.07451 75.3637 3.06626 74.052C2.99476 63.9705 3.02501 53.889 3.02501 43.8075ZM70.6503 17.6825C70.6503 15.8702 70.708 14.223 70.6338 12.5812C70.565 11.0522 70.0068 9.59199 68.6235 8.88524C67.4548 8.28849 66.0578 7.85399 64.7598 7.84849C49.0848 7.77974 33.4125 7.80449 17.7375 7.80449C15.4468 7.80449 13.1533 7.77974 10.8625 7.81274C8.42326 7.84574 6.29751 9.09424 5.89876 11.165C5.49176 13.2687 5.57426 15.4715 5.43951 17.688C27.3405 17.6825 48.9088 17.6825 70.6503 17.6825Z" fill="#164A9E"/>
<path d="M55.2503 65.4197C53.2235 64.7239 52.327 63.7312 52.415 61.5642C52.6185 56.5317 52.4975 51.4854 52.4618 46.4447C52.4563 45.6169 52.6955 45.1164 53.4243 44.6819C58.2148 41.8164 62.986 38.9179 67.7408 35.9919C68.42 35.5739 68.9013 35.5519 69.5915 35.9782C74.4233 38.9537 79.2688 41.9044 84.1445 44.8057C84.8705 45.2374 84.9915 45.7407 84.9888 46.4777C84.964 51.5624 84.975 56.6499 84.975 61.7374C84.975 64.2069 84.7605 64.4902 82.1783 65.3702C82.1783 62.3699 82.1783 59.4027 82.1783 56.4382C82.1783 53.6882 82.1343 50.9382 82.203 48.1909C82.225 47.2807 81.8978 46.7884 81.147 46.3402C77.2585 44.0192 73.3865 41.6679 69.5365 39.2809C68.893 38.8822 68.4393 38.9042 67.815 39.2892C64.0063 41.6514 60.1838 43.9999 56.3338 46.2934C55.5198 46.7802 55.2228 47.3192 55.231 48.2652C55.2778 53.4874 55.253 58.7124 55.253 63.9374C55.2503 64.3857 55.2503 64.8339 55.2503 65.4197Z" fill="#02C0C2"/>
<path d="M65.6122 48.0508C65.6122 51.931 65.6122 55.4978 65.6122 59.0645C65.6122 62.227 65.7387 65.3978 65.5655 68.5493C65.4582 70.4935 66.99 70.7218 68.0542 71.368C68.4695 71.621 69.3385 71.2223 69.9655 71.0133C71.5027 70.499 71.8327 69.3798 71.808 67.8178C71.7145 61.7705 71.7695 55.7178 71.7695 49.6678C71.7695 49.2195 71.7695 48.7685 71.7695 48.0508C73.2187 48.939 74.503 49.6843 75.7295 50.512C75.9495 50.6605 76.021 51.1528 76.0237 51.4855C76.0402 57.123 76.0512 62.7605 76.0045 68.398C76.0017 68.8353 75.6662 69.4375 75.3005 69.6795C73.3535 70.9638 71.3625 72.1848 69.3412 73.3508C69.003 73.546 68.3512 73.5295 68.0047 73.3315C66.0192 72.1958 64.0585 71.0078 62.1472 69.7538C61.7732 69.509 61.4377 68.893 61.435 68.4448C61.3882 62.8073 61.391 57.1698 61.4295 51.5323C61.4322 51.1088 61.6907 50.5313 62.0235 50.2948C63.0905 49.5303 64.2482 48.8895 65.6122 48.0508Z" fill="#02C0C2"/>
<path d="M16.5165 50.0609C18.5433 51.8182 18.8953 53.9274 18.8018 56.2099C18.755 57.3512 18.744 58.5062 18.854 59.642C19.0383 61.5779 20.2593 62.6725 22.1953 62.766C22.7425 62.7934 23.375 62.6312 23.8205 62.8539C24.3018 63.0959 24.8408 63.6514 24.9123 64.1382C24.959 64.4517 24.2688 65.1282 23.8205 65.2244C19.9568 66.0549 16.5275 63.3654 16.346 59.3999C16.28 57.9837 16.3543 56.5592 16.324 55.1402C16.2745 52.8384 15.2873 51.7714 13.0515 51.2489C12.5345 51.1279 12.144 50.4625 11.6958 50.0472C12.1688 49.6539 12.5895 49.0187 13.123 48.9059C15.0893 48.4879 16.225 47.3714 16.3103 45.3694C16.3735 43.9064 16.3048 42.4379 16.3378 40.9722C16.4285 36.8389 19.8083 34.1137 23.87 34.9497C24.2935 35.0377 24.9343 35.6207 24.9178 35.9424C24.893 36.4017 24.4393 36.9929 24.0048 37.2294C23.5703 37.4659 22.9378 37.3449 22.3905 37.3614C20.2015 37.4329 18.92 38.6539 18.8045 40.8402C18.7578 41.7092 18.766 42.5809 18.799 43.4499C18.887 45.8892 18.7578 48.2459 16.5165 50.0609Z" fill="#164A9E"/>
<path d="M30.1593 57.8298C29.3398 58.421 28.842 59.0535 28.435 59.0013C27.9813 58.9408 27.61 58.256 27.203 57.8435C27.6155 57.4448 27.9895 56.7903 28.446 56.727C28.8503 56.672 29.348 57.2743 30.1593 57.8298Z" fill="#164A9E"/>
<path d="M35.9453 57.8682C35.1285 58.4374 34.6225 59.0589 34.2127 59.0039C33.7755 58.9434 33.1375 58.2449 33.1265 57.8132C33.1155 57.4364 33.836 56.7764 34.2787 56.7324C34.6912 56.6939 35.167 57.3044 35.9453 57.8682Z" fill="#164A9E"/>
<path d="M41.2693 14.0278C36.421 14.0278 31.57 14.0168 26.7218 14.036C25.762 14.0388 24.8545 13.904 24.8765 12.7463C24.8985 11.6573 25.8115 11.5775 26.6943 11.5775C36.3468 11.5858 45.9993 11.5665 55.6518 11.616C56.276 11.6188 57.1148 11.9598 57.4695 12.4328C58.0085 13.1505 57.1615 14.0195 55.9543 14.0223C51.0593 14.036 46.1643 14.0278 41.2693 14.0278Z" fill="#02C0C2"/>
<path d="M64.2153 11.6215C64.7185 11.6215 65.2878 11.473 65.7058 11.6627C66.1568 11.8662 66.814 12.4465 66.759 12.749C66.6738 13.2247 66.1155 13.8902 65.67 13.9672C64.6498 14.1487 63.5525 14.1515 62.535 13.9617C62.0813 13.8765 61.5285 13.1862 61.446 12.6995C61.3965 12.408 62.1143 11.8332 62.5873 11.649C63.0658 11.4647 63.668 11.6077 64.218 11.6077C64.2153 11.6105 64.2153 11.616 64.2153 11.6215Z" fill="#02C0C2"/>
<path d="M10.4803 11.0687C11.0963 11.8745 11.737 12.3502 11.6958 12.7545C11.6463 13.211 10.9808 13.5987 10.5848 14.0167C10.1778 13.6207 9.51227 13.266 9.43802 12.815C9.36652 12.4162 9.94952 11.9047 10.4803 11.0687Z" fill="#02C0C2"/>
<path d="M16.9538 12.7848C16.1288 13.3568 15.6613 13.9233 15.18 13.937C14.8115 13.948 14.0883 13.2248 14.124 12.8865C14.1708 12.4355 14.762 11.7535 15.1773 11.7095C15.6173 11.6628 16.1233 12.2485 16.9538 12.7848Z" fill="#02C0C2"/>
<path d="M21.6012 12.7655C20.7817 13.3485 20.3197 13.926 19.8385 13.9425C19.4617 13.9535 18.7247 13.2385 18.755 12.903C18.7962 12.4492 19.3875 11.759 19.8055 11.7067C20.2455 11.6517 20.7625 12.2347 21.6012 12.7655Z" fill="#02C0C2"/>
</svg>
