<svg width="30" height="30" viewBox="0 0 30 30" fill="none" xmlns="http://www.w3.org/2000/svg">
<path d="M0.822533 15.1925C-0.313568 15.807 -0.266435 16.7069 0.924655 17.1928L4.45374 18.6323C5.64581 19.1203 7.44963 18.854 8.46004 18.0411L23.7851 5.58167C24.7926 4.76474 24.9006 4.8852 24.0257 5.85094L11.9106 19.2195C11.0327 20.1822 11.292 21.3645 12.488 21.8413L12.9013 22.0074C14.0973 22.4842 16.0465 23.2849 17.2346 23.7829L21.1486 25.4259C22.3378 25.924 23.6084 25.3368 23.9462 24.0613L29.9115 1.45652C30.2483 0.18101 29.5943 -0.360575 28.4582 0.252883L0.822533 15.1925Z" fill="white"/>
<path d="M10.5074 29.9911C10.4377 30.2067 12.921 26.284 12.921 26.284C13.6231 25.1786 13.2244 23.8595 12.0382 23.3594L9.33003 22.2165C8.14385 21.7165 7.57531 22.3036 8.06628 23.5255C8.06628 23.5255 10.5791 29.7694 10.5074 29.9911Z" fill="white"/>
</svg>
